<svg xmlns="http://www.w3.org/2000/svg" width="57.002" height="58.639" viewBox="0 0 57.002 58.639">
  <g id="Grupo_5" data-name="Grupo 5" transform="translate(-40.388 -2.399)">
    <g id="Grupo_32" data-name="Grupo 32" transform="translate(41.445 3.535)">
      <path id="Trazado_119" data-name="Trazado 119" d="M97.769,27.72,95.4,37.78a16.315,16.315,0,0,0,8.589,18.372l16.671,8.187,16.671-8.187a16.315,16.315,0,0,0,8.589-18.372l-2.364-10.06,4.419-10.737a1.722,1.722,0,0,0-.593-2.057l-6.359-4.531a1.722,1.722,0,0,0-2,0l-5.957,4.234L120.663,7.95l-12.409,6.677L102.3,10.393a1.722,1.722,0,0,0-2,0l-6.36,4.531a1.722,1.722,0,0,0-.593,2.057Zm41.088-6.461,4.05,17.23a13.227,13.227,0,0,1-6.963,14.895l-15.28,7.673-15.28-7.673a13.226,13.226,0,0,1-6.963-14.895l4.05-17.23,18.193-9.79Z" transform="translate(-93.219 -7.95)" fill="none" stroke="#fff" stroke-width="2"/>
      <path id="Trazado_120" data-name="Trazado 120" d="M149.9,25.42,130.548,35.609s-7.9,19.816-3.16,27.657S149.9,78.114,149.9,78.114s18.693-6.837,22.6-15.575c3.9-8.715-3.554-27.366-3.554-27.366Z" transform="translate(-122.307 -23.513)" fill="#fff"/>
      <path id="Trazado_121" data-name="Trazado 121" d="M97.769,27.72,95.4,37.78a16.315,16.315,0,0,0,8.589,18.372l16.671,8.187,16.671-8.187a16.315,16.315,0,0,0,8.589-18.372l-2.364-10.06,4.419-10.737a1.722,1.722,0,0,0-.593-2.057l-6.359-4.531a1.722,1.722,0,0,0-2,0l-5.957,4.234L120.663,7.95l-12.409,6.677L102.3,10.393a1.722,1.722,0,0,0-2,0l-6.36,4.531a1.722,1.722,0,0,0-.593,2.057Zm41.088-6.461,4.05,17.23a13.227,13.227,0,0,1-6.963,14.895l-15.28,7.673-15.28-7.673a13.226,13.226,0,0,1-6.963-14.895l4.05-17.23,18.193-9.79Z" transform="translate(-93.219 -7.95)" fill="#332451"/>
      <path id="Trazado_122" data-name="Trazado 122" d="M223.269,292.889l2.46,4.851,2.458-7.478-7.115-4.667-3.889,3.29,2.923,3.876Z" transform="translate(-203.65 -255.283)" fill="#332451"/>
      <path id="Trazado_123" data-name="Trazado 123" d="M375.45,292.889l3.163-.128,2.923-3.876-3.889-3.29-7.115,4.667,2.458,7.478Z" transform="translate(-340.258 -255.283)" fill="#332451"/>
      <path id="Trazado_124" data-name="Trazado 124" d="M272.158,197.446l-5.566,7.172,5.566,3.66Z" transform="translate(-247.664 -176.758)" fill="#b85667"/>
      <path id="Trazado_125" data-name="Trazado 125" d="M370.932,197.446v10.832l5.566-3.66Z" transform="translate(-340.614 -176.758)" fill="#b85667"/>
      <path id="Trazado_126" data-name="Trazado 126" d="M311.238,388.43l1.842,1.22-1.842,1.22,1.1,1.658,2.544-1.685,2.544,1.685,1.1-1.658-1.842-1.22,1.842-1.22-1.1-1.658-2.544,1.685-2.544-1.685Z" transform="translate(-287.436 -345.414)" fill="#332451"/>
    </g>
  </g>
</svg>
