<svg xmlns="http://www.w3.org/2000/svg" xmlns:xlink="http://www.w3.org/1999/xlink" width="47.999" height="50.999" viewBox="0 0 47.999 50.999">
  <defs>
    <clipPath id="clip-path">
      <rect id="Rect치ngulo_39" data-name="Rect치ngulo 39" width="35.443" height="2.757" fill="#332350"/>
    </clipPath>
  </defs>
  <g id="Grupo_41" data-name="Grupo 41" transform="translate(-254.001 -18.001)">
    <path id="Sustracci칩n_28" data-name="Sustracci칩n 28" d="M-9037.023,51H-9078V7.019l7.02-7.019H-9030V43.978L-9037.022,51Z" transform="translate(9332.002 18.001)" fill="#b85667" opacity="0.82"/>
    <g id="Grupo_28" data-name="Grupo 28" transform="translate(260.279 34.288)">
      <g id="Grupo_27" data-name="Grupo 27" transform="translate(0 0)" clip-path="url(#clip-path)">
        <path id="Trazado_262" data-name="Trazado 262" d="M35.443,1.378l-.835.123-.856.126a5.408,5.408,0,0,0-.981.144c-.334.053-.668.091-.981.144a1.389,1.389,0,0,0-.856.126,1.422,1.422,0,0,0-.605.089c-.146-.016-.23.009-.23.034-.011.04-.035.028-.045,0-.147,0-.294,0-.441.012a5.082,5.082,0,0,1-.882,0h-.148c-.18.1-.384-.013-.563.087a1.389,1.389,0,0,0-.748.054.347.347,0,0,1-.3.211c-.2.054-.407-.046-.61,0a.379.379,0,0,1-.425-.105c-.15-.166-.342.227-.5.224a1.45,1.45,0,0,1-.851-.077,1.145,1.145,0,0,0-.41-.073.381.381,0,0,1-.163-.09l-.158.006c-.149.1-.287.107-.4-.082l-.393.012a.588.588,0,0,1-.282.034.815.815,0,0,0-.5,0,.192.192,0,0,1-.164-.009c-.106-.06-.159.054-.234.1a.443.443,0,0,1-.47.109c-.444.105-.876-.095-1.32.011-.345.2-.616-.06-1.01-.176a1.248,1.248,0,0,0-.547.2c-.115.112-.234.2-.391.106-.076-.037-.13-.144-.231-.105-.225-.162-.525.059-.664-.215h-.079c-.146.069-.286.325-.408.224a8.7,8.7,0,0,0-1.1-.085c-.162.016-.328.091-.477-.056a9.054,9.054,0,0,0-1.507-.144l-.055-.005c-.145.006-.3.059-.423-.08a.355.355,0,0,1-.072-.019,3.434,3.434,0,0,0-1.207.128.623.623,0,0,1-.178.041A12.115,12.115,0,0,1,10.3,2.311c-.139-.028-.23-.253-.4-.14a6.541,6.541,0,0,0-.659.019,6.1,6.1,0,0,0-.7,0L7.8,2.215a.993.993,0,0,0-.267.031.9.9,0,0,1-.236-.018c-.077-.016-.155-.052-.228-.066,0-.012-.035-.025-.1-.015A.512.512,0,0,0,6.694,2.1c-.046-.022-.11-.006-.183-.042-.073-.021-.155-.174-.239-.024-.041-.055-.1.046-.156-.034a.194.194,0,0,0-.156-.016.3.3,0,0,0-.349-.055c-.033-.144-.095-.07-.165-.044-.07.076-.149.118-.214-.016-.065-.063-.132.032-.2-.031s-.16,0-.2-.032c-.1,0-.208.089-.307-.007-.1-.136-.184-.1-.223-.076-.1-.208-.194.076-.281,0-.087-.029-.172,0-.265-.089a.443.443,0,0,1-.266-.031c-.1-.019-.194-.042-.285-.056L2.85,1.5c-.117-.019-.234-.105-.345-.055a.168.168,0,0,0-.135-.056c-.059,0-.2.033-.2,0-.082.017-.149.025-.143-.032-.1.047-.157.052-.18-.019-.115.049-.259-.041-.382-.06s-.24,0-.351-.017L0,1.084.982.973C1.131.956,1.292.9,1.464.88S2.083.843,2,.819c.345-.006.622.009.584-.066.161.061.286.019.61-.069-.154.069.1.006.309-.035A1.637,1.637,0,0,0,3.817.614,3.275,3.275,0,0,0,4.148.539a.377.377,0,0,1,.278.007A.587.587,0,0,1,5.011.48c.038-.112.37-.042.541-.061L5.678.4A.4.4,0,0,0,5.8.391c.053.006.108.015.118-.013.063.02.109.028.114-.013A.317.317,0,0,0,6.312.334.3.3,0,0,0,6.552.306a.654.654,0,0,0,.2-.022L6.893.268,7.015.254a1.626,1.626,0,0,1,.7-.118,1.381,1.381,0,0,0,.894.047.323.323,0,0,1,.27.144.394.394,0,0,0,.309.126A.348.348,0,0,1,9.5.5a.262.262,0,0,0,.177.12.8.8,0,0,0,.471,0,.472.472,0,0,0,.164-.03.913.913,0,0,1,.78-.181L11.47.314a.73.73,0,0,1,.612-.066,1.808,1.808,0,0,0,1.083.076,1.053,1.053,0,0,1,.482-.072.248.248,0,0,1,.116.028L14,.289a.376.376,0,0,1,.335-.2,5.831,5.831,0,0,1,1.258.163.338.338,0,0,0,.311-.1A.391.391,0,0,1,16.38.075c.085.02.143-.126.236-.056a.14.14,0,0,0,.163.007l.14.084A5.538,5.538,0,0,0,18.1.393.428.428,0,0,0,18.232.5a1.746,1.746,0,0,0,.89-.033L19.36.454l.054-.009A3,3,0,0,1,19.9.477c.138-.009.282.049.409-.064l.076-.029a.526.526,0,0,1,.56-.14l.312-.021c.536-.053,1.07.02,1.606.014a.449.449,0,0,1,.6.142l.157,0c.128-.11.263-.07.406-.054.263.03.512.189.786.11.161.049.3-.147.461-.072a.465.465,0,0,1,.55.174l.468.045a3.357,3.357,0,0,0,1.186.1c.1.055.16-.054.237-.091a.278.278,0,0,1,.2-.012c.116.02.235.006.351.037l.236,0a.665.665,0,0,1,.089-.063.362.362,0,0,1,.1-.021,2.572,2.572,0,0,0,.356-.025l.1,0A.534.534,0,0,0,29.47.469c.066-.012.133-.019.2-.024l.2-.015c.076-.091.154-.041.231,0,0,.041.083.032.23.041.146-.072.355.007.605.107.25.069.543.073.856.152A7.242,7.242,0,0,0,32.771.9a3.867,3.867,0,0,1,.981.174l1.691.3" transform="translate(0 0)" fill="#332350"/>
      </g>
    </g>
    <g id="Grupo_29" data-name="Grupo 29" transform="translate(260.279 42.122)">
      <g id="Grupo_27-2" data-name="Grupo 27" transform="translate(0 0)" clip-path="url(#clip-path)">
        <path id="Trazado_262-2" data-name="Trazado 262" d="M35.443,1.378l-.835.123-.856.126a5.408,5.408,0,0,0-.981.144c-.334.053-.668.091-.981.144a1.389,1.389,0,0,0-.856.126,1.422,1.422,0,0,0-.605.089c-.146-.016-.23.009-.23.034-.011.04-.035.028-.045,0-.147,0-.294,0-.441.012a5.082,5.082,0,0,1-.882,0h-.148c-.18.1-.384-.013-.563.087a1.389,1.389,0,0,0-.748.054.347.347,0,0,1-.3.211c-.2.054-.407-.046-.61,0a.379.379,0,0,1-.425-.105c-.15-.166-.342.227-.5.224a1.45,1.45,0,0,1-.851-.077,1.145,1.145,0,0,0-.41-.073.381.381,0,0,1-.163-.09l-.158.006c-.149.1-.287.107-.4-.082l-.393.012a.588.588,0,0,1-.282.034.815.815,0,0,0-.5,0,.192.192,0,0,1-.164-.009c-.106-.06-.159.054-.234.1a.443.443,0,0,1-.47.109c-.444.105-.876-.095-1.32.011-.345.2-.616-.06-1.01-.176a1.248,1.248,0,0,0-.547.2c-.115.112-.234.2-.391.106-.076-.037-.13-.144-.231-.105-.225-.162-.525.059-.664-.215h-.079c-.146.069-.286.325-.408.224a8.7,8.7,0,0,0-1.1-.085c-.162.016-.328.091-.477-.056a9.054,9.054,0,0,0-1.507-.144l-.055-.005c-.145.006-.3.059-.423-.08a.355.355,0,0,1-.072-.019,3.434,3.434,0,0,0-1.207.128.623.623,0,0,1-.178.041A12.115,12.115,0,0,1,10.3,2.311c-.139-.028-.23-.253-.4-.14a6.541,6.541,0,0,0-.659.019,6.1,6.1,0,0,0-.7,0L7.8,2.215a.993.993,0,0,0-.267.031.9.9,0,0,1-.236-.018c-.077-.016-.155-.052-.228-.066,0-.012-.035-.025-.1-.015A.512.512,0,0,0,6.694,2.1c-.046-.022-.11-.006-.183-.042-.073-.021-.155-.174-.239-.024-.041-.055-.1.046-.156-.034a.194.194,0,0,0-.156-.016.3.3,0,0,0-.349-.055c-.033-.144-.095-.07-.165-.044-.07.076-.149.118-.214-.016-.065-.063-.132.032-.2-.031s-.16,0-.2-.032c-.1,0-.208.089-.307-.007-.1-.136-.184-.1-.223-.076-.1-.208-.194.076-.281,0-.087-.029-.172,0-.265-.089a.443.443,0,0,1-.266-.031c-.1-.019-.194-.042-.285-.056L2.85,1.5c-.117-.019-.234-.105-.345-.055a.168.168,0,0,0-.135-.056c-.059,0-.2.033-.2,0-.082.017-.149.025-.143-.032-.1.047-.157.052-.18-.019-.115.049-.259-.041-.382-.06s-.24,0-.351-.017L0,1.084.982.973C1.131.956,1.292.9,1.464.88S2.083.843,2,.819c.345-.006.622.009.584-.066.161.061.286.019.61-.069-.154.069.1.006.309-.035A1.637,1.637,0,0,0,3.817.614,3.275,3.275,0,0,0,4.148.539a.377.377,0,0,1,.278.007A.587.587,0,0,1,5.011.48c.038-.112.37-.042.541-.061L5.678.4A.4.4,0,0,0,5.8.391c.053.006.108.015.118-.013.063.02.109.028.114-.013A.317.317,0,0,0,6.312.334.3.3,0,0,0,6.552.306a.654.654,0,0,0,.2-.022L6.893.268,7.015.254a1.626,1.626,0,0,1,.7-.118,1.381,1.381,0,0,0,.894.047.323.323,0,0,1,.27.144.394.394,0,0,0,.309.126A.348.348,0,0,1,9.5.5a.262.262,0,0,0,.177.12.8.8,0,0,0,.471,0,.472.472,0,0,0,.164-.03.913.913,0,0,1,.78-.181L11.47.314a.73.73,0,0,1,.612-.066,1.808,1.808,0,0,0,1.083.076,1.053,1.053,0,0,1,.482-.072.248.248,0,0,1,.116.028L14,.289a.376.376,0,0,1,.335-.2,5.831,5.831,0,0,1,1.258.163.338.338,0,0,0,.311-.1A.391.391,0,0,1,16.38.075c.085.02.143-.126.236-.056a.14.14,0,0,0,.163.007l.14.084A5.538,5.538,0,0,0,18.1.393.428.428,0,0,0,18.232.5a1.746,1.746,0,0,0,.89-.033L19.36.454l.054-.009A3,3,0,0,1,19.9.477c.138-.009.282.049.409-.064l.076-.029a.526.526,0,0,1,.56-.14l.312-.021c.536-.053,1.07.02,1.606.014a.449.449,0,0,1,.6.142l.157,0c.128-.11.263-.07.406-.054.263.03.512.189.786.11.161.049.3-.147.461-.072a.465.465,0,0,1,.55.174l.468.045a3.357,3.357,0,0,0,1.186.1c.1.055.16-.054.237-.091a.278.278,0,0,1,.2-.012c.116.02.235.006.351.037l.236,0a.665.665,0,0,1,.089-.063.362.362,0,0,1,.1-.021,2.572,2.572,0,0,0,.356-.025l.1,0A.534.534,0,0,0,29.47.469c.066-.012.133-.019.2-.024l.2-.015c.076-.091.154-.041.231,0,0,.041.083.032.23.041.146-.072.355.007.605.107.25.069.543.073.856.152A7.242,7.242,0,0,0,32.771.9a3.867,3.867,0,0,1,.981.174l1.691.3" transform="translate(0 0)" fill="#332350"/>
      </g>
    </g>
    <g id="Grupo_30" data-name="Grupo 30" transform="translate(260.279 49.956)">
      <g id="Grupo_27-3" data-name="Grupo 27" transform="translate(0 0)" clip-path="url(#clip-path)">
        <path id="Trazado_262-3" data-name="Trazado 262" d="M35.443,1.378l-.835.123-.856.126a5.408,5.408,0,0,0-.981.144c-.334.053-.668.091-.981.144a1.389,1.389,0,0,0-.856.126,1.422,1.422,0,0,0-.605.089c-.146-.016-.23.009-.23.034-.011.04-.035.028-.045,0-.147,0-.294,0-.441.012a5.082,5.082,0,0,1-.882,0h-.148c-.18.1-.384-.013-.563.087a1.389,1.389,0,0,0-.748.054.347.347,0,0,1-.3.211c-.2.054-.407-.046-.61,0a.379.379,0,0,1-.425-.105c-.15-.166-.342.227-.5.224a1.45,1.45,0,0,1-.851-.077,1.145,1.145,0,0,0-.41-.073.381.381,0,0,1-.163-.09l-.158.006c-.149.1-.287.107-.4-.082l-.393.012a.588.588,0,0,1-.282.034.815.815,0,0,0-.5,0,.192.192,0,0,1-.164-.009c-.106-.06-.159.054-.234.1a.443.443,0,0,1-.47.109c-.444.105-.876-.095-1.32.011-.345.2-.616-.06-1.01-.176a1.248,1.248,0,0,0-.547.2c-.115.112-.234.2-.391.106-.076-.037-.13-.144-.231-.105-.225-.162-.525.059-.664-.215h-.079c-.146.069-.286.325-.408.224a8.7,8.7,0,0,0-1.1-.085c-.162.016-.328.091-.477-.056a9.054,9.054,0,0,0-1.507-.144l-.055-.005c-.145.006-.3.059-.423-.08a.355.355,0,0,1-.072-.019,3.434,3.434,0,0,0-1.207.128.623.623,0,0,1-.178.041A12.115,12.115,0,0,1,10.3,2.311c-.139-.028-.23-.253-.4-.14a6.541,6.541,0,0,0-.659.019,6.1,6.1,0,0,0-.7,0L7.8,2.215a.993.993,0,0,0-.267.031.9.9,0,0,1-.236-.018c-.077-.016-.155-.052-.228-.066,0-.012-.035-.025-.1-.015A.512.512,0,0,0,6.694,2.1c-.046-.022-.11-.006-.183-.042-.073-.021-.155-.174-.239-.024-.041-.055-.1.046-.156-.034a.194.194,0,0,0-.156-.016.3.3,0,0,0-.349-.055c-.033-.144-.095-.07-.165-.044-.07.076-.149.118-.214-.016-.065-.063-.132.032-.2-.031s-.16,0-.2-.032c-.1,0-.208.089-.307-.007-.1-.136-.184-.1-.223-.076-.1-.208-.194.076-.281,0-.087-.029-.172,0-.265-.089a.443.443,0,0,1-.266-.031c-.1-.019-.194-.042-.285-.056L2.85,1.5c-.117-.019-.234-.105-.345-.055a.168.168,0,0,0-.135-.056c-.059,0-.2.033-.2,0-.082.017-.149.025-.143-.032-.1.047-.157.052-.18-.019-.115.049-.259-.041-.382-.06s-.24,0-.351-.017L0,1.084.982.973C1.131.956,1.292.9,1.464.88S2.083.843,2,.819c.345-.006.622.009.584-.066.161.061.286.019.61-.069-.154.069.1.006.309-.035A1.637,1.637,0,0,0,3.817.614,3.275,3.275,0,0,0,4.148.539a.377.377,0,0,1,.278.007A.587.587,0,0,1,5.011.48c.038-.112.37-.042.541-.061L5.678.4A.4.4,0,0,0,5.8.391c.053.006.108.015.118-.013.063.02.109.028.114-.013A.317.317,0,0,0,6.312.334.3.3,0,0,0,6.552.306a.654.654,0,0,0,.2-.022L6.893.268,7.015.254a1.626,1.626,0,0,1,.7-.118,1.381,1.381,0,0,0,.894.047.323.323,0,0,1,.27.144.394.394,0,0,0,.309.126A.348.348,0,0,1,9.5.5a.262.262,0,0,0,.177.12.8.8,0,0,0,.471,0,.472.472,0,0,0,.164-.03.913.913,0,0,1,.78-.181L11.47.314a.73.73,0,0,1,.612-.066,1.808,1.808,0,0,0,1.083.076,1.053,1.053,0,0,1,.482-.072.248.248,0,0,1,.116.028L14,.289a.376.376,0,0,1,.335-.2,5.831,5.831,0,0,1,1.258.163.338.338,0,0,0,.311-.1A.391.391,0,0,1,16.38.075c.085.02.143-.126.236-.056a.14.14,0,0,0,.163.007l.14.084A5.538,5.538,0,0,0,18.1.393.428.428,0,0,0,18.232.5a1.746,1.746,0,0,0,.89-.033L19.36.454l.054-.009A3,3,0,0,1,19.9.477c.138-.009.282.049.409-.064l.076-.029a.526.526,0,0,1,.56-.14l.312-.021c.536-.053,1.07.02,1.606.014a.449.449,0,0,1,.6.142l.157,0c.128-.11.263-.07.406-.054.263.03.512.189.786.11.161.049.3-.147.461-.072a.465.465,0,0,1,.55.174l.468.045a3.357,3.357,0,0,0,1.186.1c.1.055.16-.054.237-.091a.278.278,0,0,1,.2-.012c.116.02.235.006.351.037l.236,0a.665.665,0,0,1,.089-.063.362.362,0,0,1,.1-.021,2.572,2.572,0,0,0,.356-.025l.1,0A.534.534,0,0,0,29.47.469c.066-.012.133-.019.2-.024l.2-.015c.076-.091.154-.041.231,0,0,.041.083.032.23.041.146-.072.355.007.605.107.25.069.543.073.856.152A7.242,7.242,0,0,0,32.771.9a3.867,3.867,0,0,1,.981.174l1.691.3" transform="translate(0 0)" fill="#332350"/>
      </g>
    </g>
  </g>
</svg>
