<svg id="Grupo_18" data-name="Grupo 18" xmlns="http://www.w3.org/2000/svg" xmlns:xlink="http://www.w3.org/1999/xlink" width="2344.448" height="45.058" viewBox="0 0 2344.448 45.058">
  <defs>
    <clipPath id="clip-path">
      <rect id="Rectángulo_31" data-name="Rectángulo 31" width="2344.448" height="45.058" transform="translate(0 0)" fill="none"/>
    </clipPath>
  </defs>
  <g id="Grupo_17" data-name="Grupo 17" clip-path="url(#clip-path)">
    <path id="Trazado_261" data-name="Trazado 261" d="M2343.284,20.433c-11.338.132-22.649-1.631-34-.23l-3.8,0c-4.622-2.448-9.866.327-14.474-2.236-7.564.234-12.752,1.842-19.231-1.386-1.73-3.418-4.295-5.208-7.671-5.429-5.216-1.376-10.458,1.192-15.683.02-3.984-1.083-7.755-.937-10.928,2.7-3.846,4.255-8.781-5.841-12.908-5.761-7.443-1.932-14.689-.5-21.877,1.982-3.378,1.725-7,1.459-10.548,1.882a9.774,9.774,0,0,0-4.2,2.315l-4.073-.158c-3.842-2.479-7.368-2.737-10.169,2.116l-10.112-.321c-2.325-1.313-4.827-.748-7.261-.87a20.944,20.944,0,0,1-12.82-.077,4.938,4.938,0,0,0-4.2.224c-2.734,1.54-4.1-1.4-6.022-2.5-3.629-3.2-7.606-4.411-12.075-2.791-11.4-2.7-22.514,2.432-33.917-.271-8.88-5.239-15.829,1.552-25.965,4.532-4.839-1.138-9.836-1.687-14.06-5.109-2.951-2.88-6.008-5.237-10.053-2.721-1.964.956-3.354,3.7-5.945,2.7-5.774,4.167-13.495-1.525-17.068,5.534l-2.025,0c-3.745-1.785-7.353-8.351-10.484-5.747-9.49-.032-18.817,3.416-28.364,2.177-4.158-.419-8.43-2.333-12.266,1.444-12.89,1.551-25.706,4.311-38.727,3.693q-.7.068-1.409.133c-3.731-.153-7.615-1.5-10.874,2.045a9.1,9.1,0,0,0-1.863.5,88.274,88.274,0,0,1-31.031-3.282,16.048,16.048,0,0,0-4.572-1.06c-12.386.411-24.806.354-37.155,2.251-3.575.718-5.919,6.51-10.374,3.6-5.633-.435-11.307.516-16.929-.488-6.037.713-12.052-.1-18.08-.084-6.3-.184-25.216-6.237-25.216-6.237a41.773,41.773,0,0,0-17.928-3.028c-7.511,3.677-15.235,2.626-22.974,1.2-2.887-.232-5.025,1.453-6.944,3.7a10.124,10.124,0,0,1-7.933,3.247c-2.783-.75-5.483-.716-8,1.084a6.726,6.726,0,0,1-4.542,3.085,20.424,20.424,0,0,1-12.1.108c-1.4-.217-2.862-.045-4.2-.764-5.97-6.01-13.078-4.929-20.056-4.658l-9.817-2.422c-5.1-2.7-10.318-3.646-15.742-1.686-9.07,4.349-18.447,3.31-27.85,1.947-3.973-2.241-8.232-1.575-12.4-1.86a6.357,6.357,0,0,0-2.993.729l-6.1.226c-2.052-3.643-5.119-4.86-8.6-5.06-10.8-.62-21.405-4.61-32.331-2.821a8.687,8.687,0,0,1-8-2.595c-3.78-3.223-7.784-4.453-12.2-2.027-2.183.527-3.666-3.247-6.058-1.438a3.585,3.585,0,0,1-4.2.178l-3.6,2.162c-10.213,4.437-19.347,11.993-30.3,14.264a11.011,11.011,0,0,1-3.426,2.806c-7.637.5-15.31,2.6-22.876-.862l-6.126-.365c-.464-.079-.928-.157-1.392-.23-4.221-.872-8.289,1.022-12.475.826-3.537-.241-7.257,1.27-10.509-1.653l-1.949-.754c-4.333-3.918-9.065-5.512-14.4-3.588l-8.03-.533c-13.781-1.37-27.514.518-41.278.371-5.746-2.349-11.038-2.172-15.319,3.646l-4.048.1c-3.282-2.832-6.758-1.8-10.423-1.384-6.757.771-13.16,4.861-20.2,2.818-4.146,1.265-7.632-3.787-11.848-1.85-5.451-1.633-10.275-.6-14.145,4.478L1269.5,22.077c-9.91,4.409-20.308,1.839-30.472,2.614-2.622,1.412-4.1-1.394-6.088-2.347-1.688-1-3.431-.6-5.168-.308-2.991.5-6.049.147-9.014.942l-6.062-.042a17.183,17.183,0,0,0-2.286-1.611,9.294,9.294,0,0,0-2.612-.535,65.953,65.953,0,0,1-9.142-.64c-.9.024-1.8.059-2.688.117-2.8.132-5.629.4-8.268-1.2-3.4-.6-6.835-.716-10.256-.992-1.711.478-3.474-.081-5.217-.051-1.742-.03-3.506.529-5.217.051-3.421.276-6.855.392-10.256.992-2.639,1.6-5.464,1.328-8.268,1.2-.892-.058-1.792-.093-2.687-.117a65.963,65.963,0,0,1-9.142.64,9.3,9.3,0,0,0-2.613.535,17.183,17.183,0,0,0-2.286,1.611l-6.061.042c-2.965-.8-6.024-.439-9.014-.942-1.738-.3-3.48-.69-5.169.308-1.983.953-3.466,3.759-6.088,2.347-10.164-.775-20.562,1.8-30.472-2.614l-12.028-1.153c-3.87-5.08-8.694-6.111-14.145-4.478-4.215-1.937-7.7,3.115-11.847,1.85-7.042,2.043-13.444-2.047-20.2-2.818-3.666-.418-7.142-1.448-10.424,1.384l-4.047-.1c-4.282-5.818-9.574-6-15.319-3.646-13.765.147-27.5-1.741-41.278-.371l-8.03.533c-5.336-1.924-10.067-.33-14.4,3.588l-1.949.754c-3.253,2.923-6.972,1.412-10.509,1.653-4.187.2-8.254-1.7-12.476-.826-.464.073-.927.151-1.391.23l-6.126.365c-7.567,3.458-15.239,1.363-22.877.862a11.008,11.008,0,0,1-3.425-2.806c-10.958-2.271-20.092-9.827-30.3-14.264L830.57.673a3.585,3.585,0,0,1-4.2-.178c-2.392-1.809-3.874,1.965-6.057,1.438C815.9-.493,811.9.737,808.115,3.96a8.686,8.686,0,0,1-8,2.595c-10.926-1.789-21.536,2.2-32.331,2.821-3.485.2-6.552,1.417-8.6,5.06l-6.1-.226a6.363,6.363,0,0,0-2.994-.729c-4.164.285-8.423-.381-12.4,1.86-9.4,1.363-18.78,2.4-27.849-1.947-5.425-1.96-10.645-1.017-15.743,1.686L684.284,17.5c-6.978-.271-14.086-1.352-20.056,4.658-1.343.719-2.8.547-4.2.764a20.428,20.428,0,0,1-12.1-.108,6.722,6.722,0,0,1-4.541-3.085c-2.514-1.8-5.214-1.834-8-1.084a10.124,10.124,0,0,1-7.932-3.247c-1.92-2.248-4.057-3.933-6.945-3.7-7.739,1.428-15.462,2.479-22.973-1.2A41.77,41.77,0,0,0,579.6,13.529s-18.918,6.053-25.216,6.237c-6.029-.017-12.043.8-18.081.084-5.622,1-11.3.053-16.929.488-4.455,2.905-6.8-2.887-10.374-3.6-12.349-1.9-24.769-1.84-37.155-2.251a16.049,16.049,0,0,0-4.572,1.06,88.271,88.271,0,0,1-31.031,3.282,9.065,9.065,0,0,0-1.863-.5c-3.259-3.549-7.143-2.2-10.874-2.045q-.7-.064-1.408-.133c-13.022.618-25.838-2.142-38.728-3.693-3.836-3.777-8.108-1.863-12.265-1.444-9.548,1.239-18.874-2.209-28.365-2.177-3.13-2.6-6.739,3.962-10.483,5.747l-2.026,0c-3.572-7.059-11.293-1.367-17.068-5.534-2.591,1-3.981-1.748-5.945-2.7-4.044-2.516-7.1-.159-10.053,2.721-4.224,3.422-9.221,3.971-14.059,5.109-10.137-2.98-17.085-9.771-25.965-4.532-11.4,2.7-22.515-2.432-33.917.271-4.47-1.62-8.446-.408-12.076,2.791-1.924,1.1-3.288,4.04-6.022,2.5a4.936,4.936,0,0,0-4.2-.224,20.944,20.944,0,0,1-12.82.077c-2.435.122-4.936-.443-7.261.87l-10.113.321c-2.8-4.853-6.327-4.595-10.168-2.116l-4.073.158a9.772,9.772,0,0,0-4.2-2.315c-3.543-.423-7.17-.157-10.548-1.882-7.188-2.477-14.434-3.914-21.877-1.982-4.126-.08-9.062,10.016-12.907,5.761-3.174-3.638-6.944-3.784-10.929-2.7-5.225,1.172-10.467-1.4-15.682-.02-3.377.221-5.942,2.011-7.672,5.429C66.2,19.8,61.008,18.2,53.444,17.962c-4.607,2.563-9.852-.212-14.473,2.236l-3.805,0c-11.352-1.4-22.664.362-34,.23-.269.028-.894.037-1.164.056V45.058H592.049v-.012l580.175-.61,580.175.61v.012h592.049V20.489c-.27-.019-.894-.028-1.164-.056" fill="#b85667"/>
  </g>
</svg>
