<svg xmlns="http://www.w3.org/2000/svg" xmlns:xlink="http://www.w3.org/1999/xlink" width="130.721" height="9.237" viewBox="0 0 130.721 9.237">
  <defs>
    <clipPath id="clip-path">
      <rect id="Rectángulo_39" data-name="Rectángulo 39" width="130.721" height="9.237" fill="none"/>
    </clipPath>
  </defs>
  <g id="Grupo_30" data-name="Grupo 30" transform="translate(0 0)">
    <g id="Grupo_27" data-name="Grupo 27" transform="translate(0 0)" clip-path="url(#clip-path)">
      <path id="Trazado_262" data-name="Trazado 262" d="M130.721,4.618l-3.079.412-3.156.422a21.828,21.828,0,0,0-3.618.484c-1.232.176-2.463.3-3.618.484a5.581,5.581,0,0,0-3.156.422,5.725,5.725,0,0,0-2.232.3c-.539-.054-.847.031-.847.113-.039.135-.128.094-.167.007-.542-.006-1.084.016-1.626.041a20.626,20.626,0,0,1-3.253-.011h-.546c-.663.319-1.416-.043-2.077.291a5.614,5.614,0,0,0-2.759.181,1.283,1.283,0,0,1-1.1.708c-.748.179-1.5-.155-2.25,0a1.493,1.493,0,0,1-1.568-.352c-.552-.555-1.26.761-1.852.751a5.851,5.851,0,0,1-3.139-.258,4.6,4.6,0,0,0-1.513-.245,1.45,1.45,0,0,1-.6-.3l-.584.02a.941.941,0,0,1-1.459-.276l-1.451.042a2.373,2.373,0,0,1-1.042.114,3.293,3.293,0,0,0-1.84.01.772.772,0,0,1-.6-.029c-.392-.2-.588.182-.864.326a1.754,1.754,0,0,1-1.733.364c-1.636.352-3.231-.317-4.867.035-1.274.683-2.271-.2-3.726-.591a4.9,4.9,0,0,0-2.017.666c-.423.375-.862.683-1.443.355-.282-.125-.481-.483-.853-.352-.829-.543-1.937.2-2.449-.721h-.291c-.537.233-1.055,1.089-1.5.749-1.362,0-2.7-.445-4.07-.284-.6.055-1.21.3-1.76-.188a36.661,36.661,0,0,0-5.557-.481l-.2-.017c-.535.02-1.093.2-1.56-.266a1.416,1.416,0,0,1-.267-.065,13.883,13.883,0,0,0-4.453.428,2.5,2.5,0,0,1-.656.138,49.13,49.13,0,0,1-5.331-.293c-.513-.094-.849-.849-1.489-.47-.808.057-1.622-.067-2.429.063a24.745,24.745,0,0,0-2.594.011l-2.71.072a4.016,4.016,0,0,0-.986.1,3.651,3.651,0,0,1-.869-.061c-.284-.052-.573-.174-.839-.22,0-.042-.128-.085-.36-.052a2.056,2.056,0,0,0-1.009-.145c-.171-.075-.405-.019-.674-.141-.268-.069-.571-.583-.88-.082-.151-.184-.376.153-.574-.113a.78.78,0,0,0-.576-.052A1.191,1.191,0,0,0,20.7,6.474c-.121-.482-.35-.235-.609-.148-.259.253-.548.394-.79-.053-.241-.211-.486.107-.735-.105s-.592,0-.754-.108c-.352-.009-.768.3-1.132-.025-.364-.457-.677-.319-.822-.256-.383-.7-.715.256-1.037.01-.322-.1-.635.013-.979-.3a1.784,1.784,0,0,1-.982-.1c-.351-.063-.714-.139-1.052-.188l-1.3-.186c-.431-.065-.862-.353-1.273-.183a.649.649,0,0,0-.5-.189c-.219-.013-.735.112-.742.011-.3.056-.55.084-.528-.107-.372.157-.58.174-.665-.064-.423.166-.957-.137-1.408-.2s-.885,0-1.3-.056L0,3.632l3.623-.371C4.171,3.2,4.766,3.013,5.4,2.948a10.783,10.783,0,0,0,2-.2c1.273-.02,2.294.029,2.154-.221.592.2,1.056.064,2.249-.23-.57.23.375.021,1.14-.117a6.626,6.626,0,0,0,1.14-.117c.379-.039.817-.17,1.223-.255a1.52,1.52,0,0,1,1.026.024,2.346,2.346,0,0,1,2.154-.221c.14-.376,1.364-.14,2-.2l.467-.048A1.6,1.6,0,0,0,21.4,1.31c.2.02.4.051.436-.045.232.068.4.095.42-.043a1.27,1.27,0,0,0,1.03-.1,1.22,1.22,0,0,0,.883-.093,2.645,2.645,0,0,0,.72-.074L25.422.9l.453-.046A6.539,6.539,0,0,1,28.447.456a5.575,5.575,0,0,0,3.3.156,1.229,1.229,0,0,1,1,.482,1.531,1.531,0,0,0,1.138.423,1.394,1.394,0,0,1,1.147.141.973.973,0,0,0,.652.4,3.214,3.214,0,0,0,1.737.014,1.9,1.9,0,0,0,.6-.1c.857-.783,1.877-.642,2.878-.607L42.3,1.053a2.931,2.931,0,0,1,2.259-.22,7.3,7.3,0,0,0,4,.254A4.243,4.243,0,0,1,50.337.845a.988.988,0,0,1,.43.1l.875.029a1.418,1.418,0,0,1,1.235-.66,23.561,23.561,0,0,1,4.639.545A1.327,1.327,0,0,0,58.664.516a1.547,1.547,0,0,1,1.75-.264c.313.069.526-.423.869-.187a.557.557,0,0,0,.6.023L62.4.369a22.152,22.152,0,0,0,4.348.947,1.557,1.557,0,0,0,.491.366,7.064,7.064,0,0,0,3.283-.112l.879-.048.2-.03a12.146,12.146,0,0,1,1.79.108c.508-.031,1.041.166,1.508-.215l.28-.1A2.077,2.077,0,0,1,77.248.818L78.4.749C80.378.57,82.348.816,84.324.8a1.758,1.758,0,0,1,2.2.475l.581.013a1.851,1.851,0,0,1,1.5-.18c.97.1,1.888.634,2.9.367.595.165,1.1-.494,1.7-.241a1.815,1.815,0,0,1,2.03.584l1.726.15c1.422.575,2.914.24,4.372.341.376.184.589-.182.874-.306a1.119,1.119,0,0,1,.742-.04c.429.065.868.019,1.293.123l.87-.005a2.468,2.468,0,0,1,.328-.21,1.454,1.454,0,0,1,.375-.07,10.428,10.428,0,0,0,1.312-.083c.128,0,.258.008.386.015a2.148,2.148,0,0,0,1.186-.156c.244-.039.489-.062.735-.081s.491-.031.737-.049c.279-.305.568-.139.851,0,0,.139.308.106.847.136a3.364,3.364,0,0,1,2.232.36c.924.232,2,.245,3.156.509a29.161,29.161,0,0,0,3.618.583,15.563,15.563,0,0,1,3.618.583l6.236,1" transform="translate(0 0)" fill="#332350"/>
    </g>
  </g>
</svg>
