<svg version="1.2" xmlns="http://www.w3.org/2000/svg" viewBox="0 0 600 591" width="600" height="591"><defs><linearGradient id="P" gradientUnits="userSpaceOnUse"/><linearGradient id="g1" x1="185.4" y1="62" x2="405.7" y2="510.6" href="#P"><stop offset=".1" stop-color="#f46a57"/><stop offset=".1" stop-color="#f56855"/><stop offset=".3" stop-color="#f66350"/><stop offset=".4" stop-color="#db5d51"/><stop offset=".4" stop-color="#b25453"/><stop offset=".5" stop-color="#914d54"/><stop offset=".6" stop-color="#774756"/><stop offset=".6" stop-color="#654356"/><stop offset=".7" stop-color="#5a4157"/><stop offset=".8" stop-color="#564057"/></linearGradient><linearGradient id="g2" x1="185.4" y1="62" x2="405.7" y2="510.6" href="#P"><stop offset=".1" stop-color="#f46a57"/><stop offset=".1" stop-color="#f56855"/><stop offset=".3" stop-color="#f66350"/><stop offset=".4" stop-color="#db5d51"/><stop offset=".4" stop-color="#b25453"/><stop offset=".5" stop-color="#914d54"/><stop offset=".6" stop-color="#774756"/><stop offset=".6" stop-color="#654356"/><stop offset=".7" stop-color="#5a4157"/><stop offset=".8" stop-color="#564057"/></linearGradient></defs><style>.a{fill:none;stroke:#fff;stroke-width:3.2}.b{fill:#fff}.c{fill:url(#g1)}.d{fill:url(#g2)}.e{fill:#a2484c}.f{fill:#97474c}.g{fill:#ef5648}.h{opacity:.6;fill:#392938}.i{fill:#643e4b}.j{fill:#ffb473}.k{fill:#f68361}.l{fill:#d85545}.m{opacity:.6;fill:#382938}.n{fill:#f38262}.o{fill:#f59367}.p{fill:#fc824c}.q{fill:#d9594a}.r{fill:#392938}.s{fill:#fead71}.t{fill:#feb172}.u{fill:#463447}.v{fill:#382938}.w{fill:#5e465e}.x{fill:#3c2c3d}.y{fill:#cc4b40}.z{fill:#ce4d41}.A{fill:#fea96f}.B{fill:#ef5548}.C{fill:#cd4c40}.D{fill:#fc814c}.E{fill:#fc824e}.F{opacity:.5;fill:#3a2b3a}.G{opacity:.8;fill:#0b292e}.H{fill:#185159}.I{fill:#15454c}.J{fill:#0b292e}.K{fill:#174c54}.L{fill:#2fc6dd}.M{fill:#164951}.N{fill:#134734}.O{fill:#08261a}.P{fill:#2fdd9d}.Q{fill:#fbb74c}.R{fill:#ffe1b2}.S{opacity:.8;fill:#3f2e3e}.T{fill:#f9594c}.U{fill:#fff;stroke:#fff;stroke-width:.4}</style><path class="a" d="m437.3 115.8c-1.5 4-11.3 3.9-21.7-0.2-10.5-4.1-17.7-10.6-16.2-14.6 1.6-4 11.3-3.9 21.8 0.2 10.5 4.1 17.7 10.6 16.1 14.6z"/><path class="b" d="m382.6 129.8c7.3-3.3 14.2-6.7 20.5-11.8-3.4 7.7-12.5 11.8-20.5 11.8z"/><path class="b" d="m375.4 104.8c8.3 0.8 17.5-0.6 24-6.3l1.9 2.5c-7.5 5.2-17.3 5.7-25.9 3.8z"/><path class="b" d="m434.8 138.4c-2.7-6.4-5.7-12.7-6.2-19.8l3.2 0.3c-0.6 6.4 1.4 13.2 3 19.5z"/><path class="b" d="m438.9 113.2c0.8 4.4 1.6 9.1 4.2 12.8-3.6-3.2-5.4-7.7-7.3-12 0 0 3.1-0.8 3.1-0.8z"/><path class="b" d="m404.8 110.8c-2.2 2.2-4.8 3.7-7.8 4.6 0.7-1.4 1.6-2.7 2.6-3.8 0.9-1.2 2-2.3 3.2-3.2z"/><path class="b" d="m413.5 115.3c-2.1 3-4.9 5.5-7.7 7.9 1.4-3.4 3-6.8 5.1-9.8 0 0 2.6 1.9 2.6 1.9z"/><path class="c" d="m547.3 283.1c0.7-138.2-111.5-251.2-249.7-251.3-46.9 0-90.8 12.9-128.3 35.3-4.4 2.6-12 0.1-16.2-1.7-1.5-0.6-2.9-1.4-4.3-2.3-1.1-0.8-2.1-1.3-3.1-1.7-2.8-1.2-6-1.2-8.8-0.3-22.5 7.4-33.2 23.1-37.7 32.1-1.8 3.8-2.5 8.1-1.7 12.3l1.1 6.5c1.3 10.2-3.3 22.8-6.7 30.5-1.9 4.3-4.7 8.2-8.1 11.4-27.9 40.4-36.3 75-36.3 127.8 0 32.4 6.2 63.4 17.4 91.8 0.6 2.4 2.1 9.7 1.4 16.9-0.3 2.8 0.4 5.6 1.9 8l4.3 6.9c1.3 2.2 3.9 3.3 6.4 2.8l2.6-0.6c43.3 74.2 123.8 124.1 215.9 124.1 35 0 68.4-7.2 98.7-20.3q-0.1 0 0 0 0.5-0.2 1-0.4c2.2-0.6 7.4-0.6 16 8.7 0 0 7 6.2 25.5-6.4 0 0 17.5-12.3 12.5-16.2 0 0-5.7-7.4-0.5-17.1l4.3-4.2c56-45.5 91.9-114.8 92.4-192.6z"/><path class="d" d="m547.3 283.1c0.7-138.2-111.5-251.2-249.7-251.3-46.9 0-90.8 12.9-128.3 35.3-4.4 2.6-12 0.1-16.2-1.7-1.5-0.6-2.9-1.4-4.3-2.3-1.1-0.8-2.1-1.3-3.1-1.7-2.8-1.2-6-1.2-8.8-0.3-22.5 7.4-33.2 23.1-37.7 32.1-1.8 3.8-2.5 8.1-1.7 12.3l1.1 6.5c1.3 10.2-3.3 22.8-6.7 30.5-1.9 4.3-4.7 8.2-8.1 11.4-27.9 40.4-36.3 75-36.3 127.8 0 32.4 6.2 63.4 17.4 91.8 0.6 2.4 2.1 9.7 1.4 16.9-0.3 2.8 0.4 5.6 1.9 8l4.3 6.9c1.3 2.2 3.9 3.3 6.4 2.8l2.6-0.6c43.3 74.2 123.8 124.1 215.9 124.1 35 0 68.4-7.2 98.7-20.3q-0.1 0 0 0 0.5-0.2 1-0.4c2.2-0.6 7.4-0.6 16 8.7 0 0 7 6.2 25.5-6.4 0 0 17.5-12.3 12.5-16.2 0 0-5.7-7.4-0.5-17.1l4.3-4.2c56-45.5 91.9-114.8 92.4-192.6z"/><path class="e" d="m95.8 193.2c1.2 1.9-0.3 5.1-3.5 7.3-3.2 2.1-6.8 2.4-8.1 0.5-1.2-1.9 0.4-5.1 3.5-7.3 3.2-2.1 6.8-2.3 8.1-0.5z"/><path class="f" d="m291.3 184.6c1.2 2.1-0.8 5.5-4.5 7.7-3.7 2.1-7.7 2.1-8.9 0-1.2-2 0.8-5.5 4.5-7.6 3.7-2.1 7.7-2.2 8.9-0.1z"/><path class="g" d="m140.4 143.1c1.3 1.9-0.3 5.2-3.5 7.3-3.2 2.2-6.8 2.4-8 0.5-1.3-1.9 0.3-5.1 3.4-7.3 3.2-2.1 6.8-2.3 8.1-0.5z"/><path class="h" d="m247.6 526.6l-1.6-1.7c-81.4-20.6-125.3-68.6-143-86.2 35.8 44.3 86.6 76.2 144.6 87.9z"/><path class="h" d="m474.2 453.1l3.2 1.9c42.9-44.6 69.5-105.1 69.9-171.9q0-3.1-0.1-6.1h-2.1c0 0 4.5 103.4-70.9 176.1z"/><path class="i" d="m335.4 231.1c11.4-7.8 23.6-14.5 35.9-20.9 4.1-2 8.2-4.1 12.5-5.9l0.4 0.8c-9.5 6.3-19.8 12-29.9 17.4-6.2 3.1-12.3 6.2-18.8 8.9z"/><path class="j" d="m75.1 178.7l8.2-15.6c0 0 26.2-33.9 17.7-55.6l-3.6-2.1q0 0.1 0.1 0.1l1.1 6.5c1.3 10.2-3.3 22.8-6.7 30.5-1.9 4.3-4.7 8.2-8.1 11.4-27.9 40.4-36.3 75-36.3 127.8 0 20.6 2.5 40.5 7.2 59.6-4.4-29.9-9.6-85 3.6-123.3 0 0 2.9-18.4 16.8-39.3z"/><path class="k" d="m348.2 219.5c6.3-5.1 13.5-8.9 21.1-11.5-6.3 5-13.5 9-21.1 11.5z"/><path class="l" d="m340.5 98.7c0 0-38.8 12.7-72.5 33.9 0 0 46-30.4 72.5-33.9z"/><path class="k" d="m283.9 112.4c4.3-3.3 9-6.1 13.8-8.6 4.8-2.5 9.8-4.7 15.1-5.9l0.2 0.4-14.4 7.3c-4.8 2.4-9.6 4.8-14.7 6.8z"/><path class="l" d="m297.7 137.9c4.9-3.6 10.2-6.5 15.6-9.2 2.7-1.3 5.4-2.6 8.2-3.7 2.8-1.1 5.7-2.1 8.6-2.7l0.2 0.3c-2.7 1.5-5.3 3-7.9 4.4-2.6 1.4-5.3 2.8-8 4.1-5.4 2.6-10.8 5.1-16.5 7.1z"/><path class="k" d="m307.7 129.8c1.5-1.2 3.1-2.2 4.9-3q1.2-0.7 2.6-1.2c0.9-0.3 1.8-0.6 2.8-0.7l0.1 0.1c-1.6 1.1-3.3 2-5 2.9-1.7 0.8-3.5 1.6-5.3 2.1z"/><path class="k" d="m295.3 114.3c2.2-1.9 4.6-3.3 7.1-4.5 2.6-1.2 5.2-2.4 8-2.8l0.1 0.2c-2.3 1.6-4.8 2.9-7.3 4.2-2.5 1.2-5.1 2.3-7.8 3.1z"/><path class="m" d="m298.2 437.9c0 0 65.4-6 125.7-53.3 0 0-39.9 44.4-125.7 53.3z"/><path class="m" d="m427.4 405.8c0 0-55.8 35-101 42.5-45.2 7.6-45.2 7.6-45.2 7.6 0 0 71 0.2 147.3-47.9z"/><path class="m" d="m399.8 375.7c0 0-47 29.8-88.2 40.5 0 0 46.8-8.5 88.2-38.1z"/><path class="j" d="m154 65.8q-0.5-0.2-1-0.4c-1.5-0.6-2.9-1.4-4.2-2.3q-1.7-1.2-3.2-1.8c-2.8-1.1-5.9-1.1-8.8-0.2-22.5 7.4-33.1 23.1-37.6 32.1-1.9 3.8-2.5 8.1-1.7 12.3l0.8 4.7c12.5 3.6 37.4-13.8 37.4-13.8 14-11.9 17.7-23.1 18.3-30.6z"/><path class="n" d="m146.6 61.8q0 0-0.1 0l-1.9-0.8c-2.5-0.8-5.3-0.7-7.8 0.2-22.5 7.3-33.1 23.1-37.6 32.1q0 0 0 0.1c-1.6 4.7-0.4 6.8-0.4 6.8 5.5 13.3 34.2-6.7 34.2-6.7 19.6-16.6 13.7-31.5 13.6-31.7z"/><path class="j" d="m115.6 120.9c-0.1-5.5-0.7-11.1-3.2-16-0.1-0.1-0.2-0.3 0.2-0.6l3.4-1.5c0.5 0 0.6 0.2 0.6 0.4 1.7 5.8 0.7 12-1 17.7z"/><path class="j" d="m147.7 108.8l-13.5-14.7 2.9-2.2z"/><path class="j" d="m146.9 75.4c1.1 0.5 2.6 1 3.9 1.4q2.1 0.5 4.3 0.7c2.9 0.2 5.9-0.1 8.8-0.9-2.7 1.4-5.6 2.3-8.7 2.7q-2.4 0.3-4.8 0.2c-1.6-0.1-3.1-0.3-4.8-0.8z"/><path class="o" d="m305.9 66.1c-10.6 0-19.3-4.4-19.3-9.9 0.1-5.4 8.7-9.9 19.3-9.9 10.7 0 19.3 4.5 19.3 9.9 0 5.5-8.6 9.9-19.3 9.9z"/><path class="p" d="m272.9 63.6c2.9-0.9 5.6-2.4 7.8-4.3q1.7-1.4 3-3.2c0.9-1.1 1.6-2.4 2.2-3.6l3.1 1.7c-1 1.4-2 2.7-3.2 3.8-1.2 1.1-2.6 2.1-4 2.9-2.8 1.6-5.8 2.6-8.9 2.9z"/><path class="p" d="m283.8 74c1.5-1.8 2.7-3.7 3.7-5.7 1-2 1.6-4.2 1.7-6.2l3.5 0.7c-0.8 2.5-2.1 4.6-3.7 6.5q-2.3 2.7-5.2 4.7z"/><path class="q" d="m308.6 47.9c-0.1 0-20.1 3.3-9.1 16.2l-8.5-1.1-3.6-4.5v-4.6l4-4.9c0 0 4.5-1.7 4.7-1.7 0.3 0 10.9-0.6 10.9-0.6z"/><path class="r" d="m411.9 516c-9.9-8-13.4-5.5-13.4-5.5v0.2c2.7-0.1 7.5 1.2 14.6 8.9 0 0 6.7 6 24.5-5.6v-0.1c-8.8 4.1-13.3 4.8-15.5 4.4-1.7-0.3-2.5-2.1-1.8-3.6 3.1-6.3 10.4-10.5 10.4-10.5 11-7.5 16.3-4.3 18.9-0.6 2.1-2.6 3.3-5.2 1.5-6.6 0 0-0.3-0.4-0.8-1.1-32.1-5.4-38.4 20.1-38.4 20.1z"/><path class="f" d="m277.3 200.1c0.6 1.2-0.5 3.2-2.6 4.4-2.1 1.2-4.4 1.3-5.1 0.1-0.7-1.2 0.5-3.2 2.6-4.4 2.1-1.2 4.4-1.3 5-0.1z"/><path class="s" d="m237 127.7c0.6 0.9-0.3 2.6-2 3.7-1.6 1.1-3.5 1.3-4.1 0.4-0.6-0.9 0.2-2.5 1.9-3.7 1.7-1.1 3.6-1.3 4.2-0.4z"/><path class="t" d="m309.1 47.9c0 0 10.4 2.7 11.6 8.3 0 0 1 4.1-8 7.5l3.5 0.3 6.6-3 2.2-6.4-4.1-4.7-8.2-2.9z"/><path class="s" d="m182.4 100.8c1.8 0.3 3 1.7 2.8 3.2-0.2 1.4-1.9 2.3-3.7 2.1-1.8-0.3-3-1.7-2.8-3.2 0.2-1.4 1.9-2.4 3.7-2.1z"/><path class="o" d="m430.3 111.5c-1.5 4-11.2 3.9-21.7-0.2-10.5-4-17.7-10.6-16.1-14.5 1.5-4 11.2-4 21.7 0.1 10.5 4.1 17.7 10.6 16.1 14.6z"/><path class="q" d="m416.9 112.5c0 0-6.2-2-11.6-5.2-5-3-2.2-10.8 3.6-9.9 1.7 0.3 3.6 0.7 5.5 1.4 0.5 0.2 6.4 2.9 6.8 3l1.1-0.8-14.9-6.2-12.1-0.4-3.1 3.1c0 0 1.6 4.2 1.9 4.6 0.3 0.3 5.5 4.7 5.5 4.7l9 4.6 3.6 1.1c0 0 4.7 0 4.7 0z"/><path class="t" d="m420.4 101c0 0 10.5 10.2-2.6 11.5l3.1 2 6.5-0.6 4.1-2.8c0 0-1.5-5.3-2.1-5.8-0.5-0.5-8-4.9-8-4.9z"/><path fill-rule="evenodd" class="p" d="m305.9 67.9c-11.8 0-21.1-5.1-21.1-11.7 0-6.5 9.3-11.7 21.1-11.7 11.9 0 21.1 5.2 21.1 11.7 0 6.6-9.2 11.7-21.1 11.7zm0-19.8c-10.3 0.1-17.4 4.3-17.4 8.1 0 3.8 7.1 8.1 17.4 8.1 10.4 0 17.5-4.3 17.5-8.1 0-3.8-7.2-8-17.5-8z"/><path fill-rule="evenodd" class="p" d="m423 116q-0.1 0-0.2 0c-4.3 0-9.6-1.1-14.8-3.2-9.9-3.8-19.2-11-17-16.6 1-2.6 4.2-4 9-4 4.3 0.1 9.5 1.2 14.8 3.3 5.2 2 9.9 4.7 13 7.6 3.6 3.2 5 6.4 4 9-1 2.5-4.1 3.9-8.8 3.9zm-23.2-20.6c-3.1 0-5.4 0.8-5.9 1.9-0.9 2.4 4.4 8.4 15.3 12.6 4.8 1.9 9.7 2.9 13.6 3 3.2 0.1 5.6-0.7 6-2 0.5-1.2-0.7-3.3-3.1-5.5-2.9-2.6-7.2-5.1-12.1-7-4.9-1.9-9.7-3-13.6-3q-0.1 0-0.2 0z"/><path class="p" d="m375.6 125.5c3.7-1.7 7.3-3.3 10.7-5.2 1.7-0.9 3.4-2 5-3 1.6-1.1 3.1-2.3 4.8-3.6-0.8 1.9-2 3.7-3.5 5.2-1.5 1.4-3.2 2.7-5.1 3.6-1.8 1-3.8 1.7-5.8 2.2-2 0.6-4 0.9-6.1 0.8z"/><path class="p" d="m368.4 100.5c4.3 0.4 8.7 0.2 12.9-0.8 2.1-0.4 4.1-1.2 6-2 1.9-0.9 3.5-2.1 5.1-3.4l2 2.4c-2 1.3-4 2.4-6.2 3.2-2.2 0.7-4.4 1.2-6.6 1.4-4.5 0.4-8.9 0.1-13.2-0.8z"/><path class="p" d="m427.8 134.1q-2.1-4.6-3.8-9.4-0.9-2.5-1.5-5c-0.4-1.7-0.8-3.4-0.8-5.4l3.2 0.3c-0.3 1.4-0.2 3.1 0 4.7q0.2 2.5 0.7 4.9 0.8 5 2.2 9.9z"/><path class="u" d="m366.3 502.8c-6.1 6.2-14.1 8.2-17.7 4.6-3.6-3.6-1.6-11.6 4.6-17.7 6.2-6.2 14.1-8.2 17.7-4.6 3.7 3.6 1.6 11.5-4.6 17.7z"/><path class="p" d="m431.9 108.9c0.4 2.2 0.8 4.4 1.4 6.6q0.5 1.7 1.2 3.2c0.4 1.1 0.9 2.1 1.7 3-1-0.7-1.7-1.6-2.4-2.6q-1.1-1.4-1.9-3c-1.2-2-2.1-4.2-3-6.4z"/><path class="p" d="m397.8 106.6c-0.5 0.5-1.1 1-1.7 1.4-0.6 0.5-1.2 0.9-1.9 1.3-1.3 0.7-2.6 1.4-4.2 1.9 0.7-1.5 1.6-2.7 2.6-3.9 0.5-0.6 1-1.2 1.5-1.7 0.5-0.5 1.1-1 1.7-1.4z"/><path class="p" d="m406.5 111c-1 1.5-2.3 2.9-3.6 4.2q-1.9 2-4.1 3.8 1-2.6 2.3-5.1c0.9-1.7 1.8-3.3 2.9-4.7z"/><path fill-rule="evenodd" class="r" d="m271.6 518.4c-3 0-6.1-0.2-9.3-0.6-6.5-0.8-12.6-2.5-17.1-4.6-6.5-3-7.5-6.1-7.3-8.1 0.3-2 2.1-4.7 9.1-6 4.9-0.9 11.2-0.9 17.8-0.1 6.5 0.9 12.6 2.5 17.1 4.6 6.5 3.1 7.5 6.1 7.2 8.2-0.2 2-2 4.7-9.1 6-2.5 0.4-5.3 0.6-8.4 0.6zm-16.1-16.5c-2.9 0-5.5 0.2-7.8 0.6-4.8 0.9-6.2 2.3-6.3 3-0.1 0.8 0.9 2.5 5.3 4.6 4.1 2 9.9 3.5 16.1 4.3 6.2 0.8 12.1 0.8 16.6 0 4.8-0.9 6.2-2.4 6.3-3.1 0.1-0.7-0.9-2.5-5.3-4.5-4.2-2-9.9-3.5-16.1-4.3-3-0.4-6-0.6-8.8-0.6z"/><path class="r" d="m299.7 507.2c-2.4 0.8-4.6 2-6.7 3.3-1.1 0.6-2.1 1.3-3.1 2-1 0.8-1.9 1.5-3.1 2l-1.5-2c1-0.9 2.1-1.6 3.3-2.2 1.1-0.6 2.4-1.1 3.6-1.5 2.4-0.9 5-1.5 7.5-1.6z"/><path class="r" d="m287.2 498.8c-0.5 0.6-1 1.2-1.4 1.7-0.4 0.7-0.8 1.2-1.1 1.9-0.6 1.2-1 2.4-1.4 3.6l-3.3-1.2c0.4-0.7 0.8-1.5 1.3-2.1 0.5-0.7 1-1.3 1.6-1.8 1.3-1 2.7-1.9 4.3-2.2z"/><path class="v" d="m204.1 449.1c-0.7 1-2.4 0.9-3.8-0.1-1.4-1-2-2.6-1.3-3.5 0.7-0.9 2.3-0.9 3.7 0.1 1.4 1 2 2.6 1.4 3.5z"/><path class="r" d="m234.6 496.2c3 2 5.4 5.1 6.8 8.8l-3.4 0.6c-0.1-3.1-1.2-6.5-3.4-9.4z"/><path class="r" d="m415.8 511.5c-0.2-0.5-0.6-1.1-0.9-1.6q-0.5-0.8-1.1-1.6c-0.8-1-1.7-2-2.8-2.6 1.3 0.2 2.6 0.8 3.8 1.5q0.9 0.5 1.7 1.2c0.6 0.4 1.1 0.8 1.7 1.3z"/><path class="w" d="m220.4 438.5c-1.1 1.6-4 1.5-6.4-0.2-2.3-1.7-3.4-4.3-2.2-5.9 1.1-1.6 3.9-1.5 6.3 0.2 2.4 1.7 3.4 4.3 2.3 5.9z"/><path class="v" d="m172.3 438.7c-1.9 2.4-6.4 2-10.1-0.9-3.8-2.8-5.3-7.1-3.5-9.4 1.8-2.4 6.3-2 10.1 0.8 3.7 2.9 5.3 7.2 3.4 9.5z"/><path class="x" d="m225.8 440.1c0 0 20.7 2.7 34.2 1.4 0 0-15.4 5.5-34.2-1.4z"/><path class="u" d="m453.2 445.9c-4.9 3.7-10.8 3.8-13.3 0.4-2.5-3.4-0.6-9 4.2-12.6 4.9-3.6 10.9-3.8 13.4-0.4 2.5 3.4 0.6 9-4.3 12.6z"/><path class="p" d="m246.4 96c-3 3.6-7.6 4.6-10.1 2.4-2.6-2.2-2.2-6.8 0.9-10.4 3-3.5 7.6-4.6 10.1-2.4 2.6 2.2 2.2 6.9-0.9 10.4z"/><path class="y" d="m227.4 80.6c-4.5 1.2-8.9-0.4-9.8-3.7-0.9-3.3 2.1-6.9 6.6-8.1 4.5-1.3 8.9 0.4 9.7 3.6 1 3.3-2 6.9-6.5 8.2z"/><path class="y" d="m249.9 55.7c-3.9 1.5-7.8 0.8-8.6-1.5-0.9-2.3 1.5-5.3 5.4-6.8 3.9-1.5 7.8-0.8 8.7 1.5 0.8 2.3-1.6 5.3-5.5 6.8z"/><path class="g" d="m198.9 85.3c0.4 1.6-1.9 3.5-5.1 4.3-3.2 0.8-6.1 0.2-6.5-1.3-0.4-1.6 1.9-3.5 5.1-4.3 3.2-0.8 6.1-0.2 6.5 1.3z"/><path class="g" d="m221 96.7c0.8 1.4-1.2 4-4.4 5.9-3.3 1.9-6.5 2.2-7.3 0.9-0.8-1.4 1.1-4.1 4.4-5.9 3.2-1.9 6.5-2.3 7.3-0.9z"/><path class="g" d="m264.2 91.5c-0.5 1.8-2.1 2.9-3.7 2.5-1.5-0.4-2.4-2.2-1.9-4 0.4-1.8 2.1-2.9 3.6-2.5 1.6 0.4 2.5 2.2 2 4z"/><path class="g" d="m205.8 68.4c0.5 1.1-0.3 2.5-1.7 3.1-1.5 0.7-3.1 0.4-3.5-0.7-0.5-1 0.3-2.4 1.7-3.1 1.4-0.7 3-0.4 3.5 0.7z"/><path class="z" d="m265.9 107.2c-1.6 1.6-4.2 1.6-5.8 0-1.6-1.6-1.6-4.2 0-5.8 1.6-1.6 4.2-1.6 5.8 0 1.6 1.6 1.6 4.2 0 5.8z"/><path class="A" d="m355.1 58.1c-0.4 2-4.2 3-8.4 2.1-4.1-0.8-7.2-3.2-6.8-5.2 0.5-2.1 4.2-3 8.4-2.2 4.2 0.9 7.2 3.3 6.8 5.3z"/><path class="B" d="m392.1 67.4c-0.8 2-4.3 2.4-7.9 1-3.6-1.4-5.9-4.2-5.1-6.1 0.8-2 4.3-2.4 7.9-1 3.6 1.4 5.9 4.1 5.1 6.1z"/><path class="C" d="m417.8 75.1c-0.9 1.6-4 1.7-7.1 0.1-3-1.6-4.8-4.3-3.9-5.9 0.9-1.7 4-1.7 7.1-0.1 3 1.5 4.8 4.2 3.9 5.9z"/><path class="D" d="m380.1 71.7c-1 1.3-3.3 1.2-5.2-0.2-1.9-1.5-2.6-3.7-1.6-5 1-1.4 3.3-1.3 5.2 0.2 1.9 1.4 2.7 3.6 1.6 5z"/><path class="E" d="m402 74.4c-1 1.3-3.4 1.2-5.2-0.2-1.9-1.5-2.7-3.7-1.6-5 1-1.4 3.3-1.3 5.2 0.2 1.9 1.4 2.6 3.6 1.6 5z"/><path class="v" d="m522.2 285.5c-1.8 2.1-4.5 2.7-5.9 1.4-1.4-1.2-1-3.9 0.9-6 1.8-2.1 4.5-2.7 5.9-1.4 1.4 1.2 1 3.9-0.9 6z"/><path class="u" d="m533.4 309.7c-2.1 3.6-5.8 5.4-8.2 4-2.5-1.5-2.8-5.6-0.7-9.2 2.1-3.7 5.8-5.5 8.3-4 2.5 1.4 2.8 5.5 0.6 9.2z"/><path class="j" d="m297.6 31.8c-46.9 0-90.8 12.9-128.4 35.3-4.3 2.6-11.9 0.1-16.1-1.7-1.5-0.6-2.9-1.4-4.3-2.3-1.1-0.8-2.1-1.3-3.1-1.7-1.3-0.6-2.7-0.8-4-0.9l9.7 8.6 8.6 1.5c5.1 1 10.4-0.1 14.8-2.9 16.1-10.3 62.6-35 139.2-35.3q-8.1-0.6-16.4-0.6z"/><path class="F" d="m97.4 431.5c-4.9-9.9-11-16.9-13-19.1q6.1 9.9 13 19.1z"/><path fill-rule="evenodd" class="F" d="m81.8 403.7c-0.1 1.2-0.7 2.3-0.7 2.3 2.7 1.6 4.6 5.7 4.6 5.7-1.7-1.8-3-2.8-3.8-3.4q-0.2-0.4-0.4-0.8l-0.6 0.2q-0.1-0.1-0.1-0.1l-0.5 0.2-1.4 0.3c-2.5 0.5-5.1-0.6-6.4-2.8l-4.3-6.9c-1.5-2.4-2.2-5.3-1.9-8.1q0.1-0.6 0.1-1.2c0.4-6.7-1-13.3-1.5-15.5q-2.2-5.7-4.1-11.5c8.8 16.2 5.7 26.5 5.7 26.5l0.3-0.9c0.4-1.3 1.1-2.5 2.2-3.4l1.3-1.2c-0.7 1.8 0.2 2.7 0.7 3q0.3 0.1 0.4 0.4c0.5 0.6 1.5 0.5 1.5 0.5 1.6-0.6 1.7-2 1.7-2 0.4 1.5-0.2 3.1-0.2 3.1l3.2 3c1.9 0.2 2.6-1.3 2.6-1.3 0 1.7-1 4-1 4l1.7 3.1c0.8 1.6 1.3 3.3 1.4 5.1 1.2 1.2 4.5 2.6 4.5 2.6-1.4 0.2-5-0.9-5-0.9zm0 0q0 0 0 0 0 0 0 0zm-10.5-15c-0.7-0.6-1.6-1-2.6-1.2l-1.2 3.9q-0.2 0.7 0 1.4l0.2 1q0.4 1.8 1.3 3.3l4.2 7.2c0.5 0.8 1.4 1.5 2.4 1.8 0.8 0.3 1.9 0.5 3.5 0.4 0 0 4.5-7.3-7.8-17.8z"/><path class="G" d="m137.6 217.3c-4.5-35.3-43.9-64.6-78.6-58.5-33.5 5.8-49.1 42.7-43.8 76l36.8-11.3c0.3-12.2 6.9-25.3 19.7-27.7 15.5-2.9 27.6 12.6 29.8 26.3 2 13.3-4 32-19.2 34.5-15 2.4-27.1-12.6-29.7-25.9q-0.3-1.3-0.4-2.6l-36.1 11.1c7.5 32.1 38.4 54.2 71.4 48.4 33.1-5.8 54.3-37.5 50.1-70.3z"/><path class="H" d="m137.6 212.8c-4.5-35.3-43.9-64.6-78.6-58.5-33.5 5.9-49.1 42.8-43.8 76.1l36.8-11.4c0.3-12.2 6.9-25.2 19.7-27.7 15.5-2.9 27.6 12.6 29.8 26.4 2 13.2-4 31.9-19.2 34.4-15 2.4-27.1-12.6-29.7-25.9q-0.3-1.3-0.4-2.6l-36.1 11.1c7.5 32.2 38.4 54.2 71.4 48.5 33.1-5.8 54.3-37.5 50.1-70.4z"/><path class="H" d="m56.8 239.2c0 0-9.6-27.2 4.6-42.7l-12.4-3.8-13.3 8.4 10.8 29.5 12.1 9.5"/><path class="G" d="m258.4 219.1q-1.1-34-2.2-68c-13.9 0.5-22.9 1.8-36.7 2.7q2.1 33.9 4.2 67.8c0.9 9.8-4.6 17.4-13.8 19l1.2 21.4h-3.8l-1.9-21.1q-0.7-0.1-1.3-0.1l-0.6-10.5c-1.3 0.2-3.6 0.2-3.6 0.2l-0.8 1.1 0.7 7.8c-5.4-2.6-8.5-8.5-9.1-15.3q-3-33.8-5.9-67.7l-5.6-11.7-8.3 6.4 2.9 6.3q-15.2 1.4-30.4 3.2 4 33.8 7.9 67.6c3.6 30.3 27.2 49.6 57.1 48.5l0.1 0.1c2.2-0.1 3.4-0.3 3.4-0.3l-0.1-0.1h0.1c30.3-3.1 47.5-26 46.5-57.3z"/><path class="I" d="m205.2 235.2c-8.8-0.5-13.9-7.9-14.7-16.7q-3-33.9-5.9-67.8-20.7 1.8-41.4 4.2 4 33.8 7.9 67.6c3.6 30.4 27.2 49.7 57.2 48.6z"/><path class="I" d="m258.1 213.4q-1.1-34-2.2-68c-13.8 0.5-22.8 1.9-36.6 2.7q2.1 33.9 4.2 67.9c0.9 9.7-4.6 17.3-13.9 18.9l2 35.8c30.3-3 47.6-25.9 46.5-57.3z"/><path class="I" d="m184.6 150.7l-5.6-10.5-8.3 5.2 6.5 14.1 4.2-2.2z"/><path class="I" d="m207 256.4l-2.5 4.8 6.1 9.6h1.1l0.7-2.4 0.8-12z"/><path class="J" d="m208.3 271.1l-6.6-10.8-2.8-34.4 0.8-1.1c0 0 2.3 0.1 3.6-0.2l2 35.4 6.4 10.8c0 0-1.2 0.2-3.4 0.3z"/><g style="opacity:.8"><path class="J" d="m268.1 184.8l-1-12.6 19.2-13.5 40.1 4.6 43.4 7.5 5.2 3.3-1.9 12.6c0 0-50-3.7-105-1.9z"/><path class="J" d="m306.9 262.3l-6.6 0.8 0.8 10.8 36.6 0.6 1.5-11.8-0.4-8.8-31.9 8.4"/></g><path class="K" d="m267.6 178.2l-1.9-11.9 20.1-14.3 40.1 4.7 43.4 7.5 6.7 3.8-1.9 12.1c0 0-51.5-3.8-106.5-1.9z"/><path class="K" d="m306.5 255.6l-6.6 0.9 0.7 10.8 36.6 0.6 1.5-10.8-23.6-7.4-8.6 5.9"/><path class="G" d="m465.8 193.1l7.7-10v-12.1l-5.9 8q1-7.9 2.1-15.9-39.5-5-79.1-7.8c0.5-1.6 1.1-3.3 1.1-3.4 0.1-0.1-2.8-7.7-2.8-7.7l-0.7-0.4-6.9 10.8q-3.9 60.3-7.7 120.5 40.5 2.7 80.7 7.7l7.7-9.9-0.2-7.6-1.9-2.3c0.7-5.2-2.4-4.9-1.7-10.1q-21.8-2.7-43.8-4.9 0.8-8.4 1.6-16.9 1.7 0.1 3.4 0.3l0.1-1 4.3 1.4q15.6 1.6 31.2 3.5l7.7-9.9 0.3-10.6c0.6-4.9-5.1-2.8-4.5-7.7q-13-1.6-26-3l1.2-11-0.4-0.5-3.6-0.3-0.2 0.5-1.1 10.9q-1-0.1-2-0.2l-0.8 8.8h-4l-0.9 5.2 1.3-14.5q-1.6-0.1-3.3-0.3 0.7-7.4 1.4-14.8 22.9 2.3 45.7 5.2z"/><path class="K" d="m458.5 201.1q-16-2-32.1-3.6l-2.6 28.3q15.6 1.6 31.2 3.5 1.8-14.1 3.5-28.2z"/><path class="K" d="m423.8 225.8l-5.4-1.8 3.2-17.7h15.7l16.4 7.7 9 5.4-7.7 9.9-28.6-4.8z"/><path class="K" d="m381.3 148.6q-3.9 60.3-7.7 120.5 40.5 2.6 80.7 7.7 2-15 3.9-29.9-21.9-2.8-43.8-4.9 0.8-8.5 1.6-16.9 1.7 0.1 3.4 0.3l2.6-28.4q-1.6-0.1-3.3-0.3 0.7-7.4 1.4-14.8 22.9 2.2 45.7 5.1 1.9-14.9 3.9-29.9-44.1-5.5-88.4-8.5z"/><path class="K" d="m462 266.9l-7.7 9.9-2.3-2.8 2.2-12.4 5.4 3z"/><path class="K" d="m389 138.2l-0.8-0.4-6.9 10.8 3.5 3.7 4.9-0.4c0 0 2-5.8 2.1-6 0-0.1-2.8-7.7-2.8-7.7z"/><path class="K" d="m465.8 187l7.7-9.9-1.4-3.2-46.6-9.2-7.1 11.2 21.3 4.7z"/><path class="K" d="m433.3 186.6l-3.6-0.3-0.2 0.5-1.2 11.6 2.8 0.3 1.4-0.4 1.2-11.2z"/><path class="G" d="m548.7 252.9c16.4-1.7 7-16.7 10.6-33.3 6-26.8 6.7-39.7-17.4-43.9q-30.6-5.6-61.4-10-7.6 54.4-15.2 108.8c-0.5 3.6 2.8-17.9 1.8-10.8l-4.1 14.3 0.8 7.2q19 2.7 37.8 5.9l10.9-7.2 2.2-11.3-5.6-24.2"/><path class="G" d="m508.9 248.4c0.2 0 4.7-24.8 4.7-24.8q-0.3 0-0.5-0.1 1.7-10.1 3.4-20.1 8 1.3 16 2.8c6.2 0.7 10.8 5.9 9.7 12.2-1.2 6.6-7.1 9.4-13.4 7.9q-5.4-1-10.9-1.9l-4.2 25.4q7.8 23 14.9 46.2c12.4 2.4 24.5 4.1 36.8 6.9l12.1-8 0.7-7.5-29.9-46.1 23.7-41.8-34.5-25.7-37 15.2-10.2 58z"/><path class="K" d="m541.1 168.4q-30.6-5.6-61.4-9.9-8.3 59.7-16.7 119.5 19 2.7 37.8 5.9 3.6-21.4 7.3-42.7 0.3 0 0.5 0.1l4.2-24.9q-0.3-0.1-0.5-0.1 1.7-10.1 3.4-20.2 8 1.4 16 2.9c6.2 0.7 10.8 5.9 9.7 12.2-1.2 6.6-7.1 9.4-13.4 7.9q-5.4-1-10.9-1.9l-4.2 25.4q7.8 23 14.9 46.2 18.5 3.6 37 7.7-8.1-25.6-16.9-50.8c16.4-1.7 7-16.7 10.7-33.3 5.9-26.9 6.6-39.8-17.5-44z"/><path class="K" d="m529.7 207.1l-3.6-0.7-2.4 12.8 3.7 0.9c0 0 1.8-1.6 1.8-1.7 0-0.1 2.1-8.9 2.1-8.9z"/><path class="K" d="m578.2 287.4l-13.4 9-12.3-9.4 1.2-5.3 6.8-1.9 8.1 1.9z"/><path class="K" d="m500.8 283.9l13.3-9.2-1.7-1.8-8.8-2.4-5.1-0.7-1.3 11.5z"/><path class="K" d="m492.3 148.4l-12.6 10.1 7.2 3.9 5.8-0.5 1.2-5.6-0.2-2.6z"/><path class="L" d="m130.5 206c-4.5-35.3-36.8-57.8-71.5-51.7-33.5 5.9-56.2 36-50.9 69.3l36.8-11.4c0.3-12.2 6.9-25.2 19.6-27.6 15.6-3 27.7 12.5 29.8 26.3 2.1 13.2-3.9 31.9-19.1 34.4-15.1 2.4-27.2-12.6-29.8-25.9q-0.2-1.3-0.4-2.6l-36.1 11.1c7.5 32.2 38.4 54.3 71.4 48.5 33.2-5.8 54.4-37.5 50.2-70.4z"/><path fill-rule="evenodd" class="b" d="m69.9 277.7c-28.7 0-54.5-20.2-61.3-49.7l-0.1-0.4 36.9-11.3v0.5q0.2 1.3 0.4 2.6c2.4 12.3 13.9 28 29.3 25.5 15.4-2.5 20.8-21.3 18.9-34-1.4-8.7-6.7-17.4-13.4-22.2-4.9-3.5-10.5-4.8-16-3.7-12.9 2.4-19 15.8-19.3 27.2v0.3l-37.5 11.6-0.1-0.5c-5.3-33.1 17.2-63.7 51.2-69.7 17.4-3 34.4 0.8 48.1 10.9 13.3 9.8 21.8 24.4 23.9 41.2 4.3 34-17.8 65-50.5 70.8q-5.3 0.9-10.5 0.9zm-60.5-49.5c7.8 32.4 38.8 53.4 70.9 47.8 32.2-5.7 54.1-36.4 49.8-69.9-2.1-16.6-10.5-31-23.6-40.6-13.5-10-30.3-13.8-47.5-10.8-33.4 5.9-55.5 35.8-50.6 68.3l36.1-11.1c0.4-11.7 6.7-25.2 20-27.7 5.7-1.1 11.4 0.2 16.5 3.8 7 4.9 12.3 13.9 13.7 22.8 2 13-3.6 32.3-19.5 34.9-15.9 2.5-27.7-13.6-30.2-26.2q-0.2-1.1-0.3-2.2z"/><path class="L" d="m199.3 225.2c-8.8-0.5-14-7.9-14.8-16.7q-2.9-33.9-5.9-67.8-20.7 1.8-41.3 4.2 3.9 33.8 7.9 67.6c3.5 30.4 26.1 49.7 56.1 48.6z"/><path fill-rule="evenodd" class="b" d="m198.9 261.5c-29.1 0-50.7-19.4-54.1-49l-8-67.9 0.4-0.1c13.7-1.6 27.6-3 41.4-4.2l0.4-0.1 5.9 68.2c0.9 9.5 6.5 15.9 14.4 16.4h0.4v0.4l2 36.2h-0.4q-1.2 0.1-2.4 0.1zm-61.2-116.2l7.9 67.1c3.4 29.8 25.7 49.2 55.3 48.3l-2-35.1c-8.1-0.7-13.9-7.3-14.7-17.1l-5.9-67.4c-13.5 1.2-27.2 2.6-40.6 4.2z"/><path class="L" d="m257 204.1q-1.1-34-2.2-68-20.7 0.8-41.5 2 2.1 33.9 4.2 67.9c0.9 9.7-4.5 17.3-13.8 18.9l2 35.8c30.3-3 52.4-25.2 51.3-56.6z"/><path fill-rule="evenodd" class="b" d="m205.3 261.2l-2-36.6 0.3-0.1c9.1-1.6 14.4-8.8 13.5-18.5l-4.2-68.3h0.4c13.8-0.8 27.7-1.5 41.5-2h0.4l2.2 68.4c1 30.4-20.2 53.9-51.7 57.1zm-1.2-36l2 35.1c30.8-3.3 51.5-26.4 50.5-56.2l-2.2-67.6c-13.5 0.5-27.2 1.1-40.7 1.9l4.2 67.5c0.9 9.8-4.6 17.5-13.8 19.3z"/><path class="L" d="m300.3 176.6q0 39.8 0 79.5 19 0 38.1 0.6 1.2-39.8 2.4-79.5z"/><path fill-rule="evenodd" class="b" d="m338.8 257.1h-0.4c-12.7-0.4-25.5-0.6-38.1-0.6h-0.4v-80.3l41.3 0.6v0.4zm-38.1-1.4c12.4 0.1 24.9 0.3 37.3 0.6l2.4-78.7-39.7-0.6z"/><path class="L" d="m265.3 135.8q0.4 15 0.8 30 17.1-0.4 34.2-0.4 0 3.4 0 6.8l40.6 0.6q0.1-3.4 0.2-6.8 17.3 0.6 34.5 1.5 0.9-15 1.7-30-55.9-2.9-112-1.7z"/><path fill-rule="evenodd" class="b" d="m341.3 173.2l-41.4-0.6v-6.8c-11.3 0-22.6 0.2-33.8 0.4l-0.4 0.1-0.8-30.9h0.4c37.2-0.8 74.9-0.2 112 1.8h0.4v0.4l-1.7 30.3h-0.4c-11.3-0.6-22.7-1.1-34.1-1.5zm-40.6-1.4l39.8 0.6 0.2-6.7h0.4c11.4 0.3 22.9 0.8 34.1 1.4l1.7-29.1c-36.9-2-74.3-2.6-111.2-1.7l0.7 29.2c11.2-0.3 22.6-0.4 33.9-0.4h0.4z"/><path class="L" d="m465.8 190.7q-16-2-32.1-3.6l-2.6 28.3q15.6 1.6 31.2 3.5 1.8-14.1 3.5-28.2z"/><path fill-rule="evenodd" class="b" d="m462.7 219.4l-0.4-0.1c-10.2-1.2-20.8-2.4-31.3-3.5h-0.3v-0.4l2.6-28.8 0.4 0.1c10.8 1.1 21.6 2.3 32.2 3.5l0.4 0.1zm-31.2-4.3c10.3 1.1 20.5 2.2 30.5 3.4l3.4-27.5c-10.3-1.2-20.8-2.4-31.4-3.4z"/><path class="L" d="m388.6 138.2q-3.9 60.3-7.7 120.5 40.5 2.6 80.7 7.7 2-15 3.9-29.9-21.9-2.8-43.8-4.9 0.8-8.5 1.6-17 1.7 0.2 3.4 0.4l2.6-28.4q-1.6-0.1-3.3-0.3 0.7-7.4 1.4-14.8 22.9 2.2 45.7 5.1 1.9-15 3.9-29.9-44.1-5.5-88.4-8.5z"/><path fill-rule="evenodd" class="b" d="m462 266.9l-0.4-0.1c-26.7-3.3-53.9-5.9-80.7-7.7h-0.4l7.7-121.3h0.4c29.4 2 59.2 4.8 88.4 8.5l0.4 0.1-3.9 30.7-0.4-0.1c-15-1.9-30.3-3.6-45.4-5l-1.3 14 3.3 0.3v0.4l-2.6 28.7-3.4-0.3-1.5 16.2c14.4 1.4 29 3 43.3 4.8h0.4zm-80.6-8.5c26.6 1.7 53.5 4.3 79.9 7.6l3.8-29.1c-14.4-1.8-29-3.4-43.4-4.8h-0.4l1.7-17.8 3.4 0.3 2.5-27.5-3.3-0.3 1.4-15.6h0.4c15.1 1.5 30.4 3.2 45.4 5.1l3.7-29.2c-28.9-3.6-58.4-6.4-87.5-8.4z"/><path class="L" d="m554 158.9q-30.6-5.7-61.4-10-8.3 59.7-16.7 119.5 19 2.7 37.8 5.9 3.7-21.4 7.3-42.7 0.3 0 0.5 0.1l4.2-24.9q-0.2-0.1-0.5-0.1 1.7-10.1 3.5-20.2 8 1.4 15.9 2.9c6.2 0.7 10.8 5.9 9.7 12.2-1.2 6.6-7.1 9.4-13.3 7.9q-5.5-1-11-1.9l-4.2 25.4q7.8 23 14.9 46.2 18.5 3.6 37 7.7-8-25.6-16.9-50.8c16.4-1.7 30.7-11.9 34.4-28.5 6-26.9-17.1-44.5-41.2-48.7z"/><path fill-rule="evenodd" class="b" d="m578.3 287.4l-0.7-0.2c-12.2-2.7-24.7-5.3-37-7.7h-0.2l-0.1-0.2c-4.7-15.3-9.7-30.9-14.9-46.2v-0.1-0.1l4.3-25.8h0.4q5.5 1 10.9 2c3.3 0.8 6.4 0.3 8.8-1.2 2.2-1.4 3.6-3.6 4.1-6.4 0.5-2.7-0.1-5.3-1.7-7.4-1.7-2.4-4.5-4-7.6-4.4-5.2-0.9-10.4-1.8-15.6-2.7l-3.3 19.4h0.5l-0.1 0.4-4.3 25.3-0.5-0.1-7.3 42.7-0.3-0.1c-12.6-2.1-25.3-4.1-37.8-5.8l-0.4-0.1v-0.4l16.8-119.9h0.4c20.4 2.9 41.1 6.3 61.4 10 15.7 2.8 29.4 10.8 36.6 21.6 5.5 8.2 7.1 17.5 4.9 27.7-3.5 15.5-16.9 26.7-34.2 28.6 5.8 16.7 11.4 33.6 16.7 50.4zm-37.3-8.6c12 2.3 24.1 4.9 36.1 7.5-5.3-16.7-10.9-33.5-16.7-50.1l-0.1-0.5 0.5-0.1c17.2-1.7 30.6-12.7 34-28.1 2.2-9.9 0.6-19-4.8-27-7-10.6-20.5-18.6-36-21.3-20.2-3.7-40.7-7-61-9.9l-16.6 118.8c12.3 1.7 24.7 3.6 37 5.7l7.3-42.7 0.5 0.1 4-24.1-0.4-0.1 3.5-20.9h0.4c5.4 1 10.7 1.9 16 2.9 3.3 0.4 6.3 2.1 8.2 4.6 1.7 2.3 2.3 5.2 1.8 8.1-0.6 3-2.1 5.4-4.4 6.9-2.6 1.7-6 2.1-9.4 1.3q-5.3-1-10.5-1.9l-4.2 24.9c5.1 15.3 10.1 30.7 14.8 45.9z"/><path class="M" d="m441.9 158l0.6-7.2 13.3 1.3-0.6 7.1z"/><path class="M" d="m391.3 245.2l0.9-15.8 11.6 0.7-1 15.8z"/><path class="M" d="m500.8 175l1.7-13.1 9.3 1.2-1.6 13z"/><path class="M" d="m546 270.1l-4-11.1 10.2 1.3 4.1 11.1z"/><path class="M" d="m227 146.9l15-0.6 0.4 10.3-15 0.6z"/><path class="M" d="m148.2 183l14.9-1.4 2 22.3-14.9 1.3z"/><path class="M" d="m313.5 209.7l0.3-20.1 11.3 0.1-0.3 20.1z"/><path class="M" d="m38.1 188.9l-5.5-4.8c3.5-6.8 10.6-9.8 10.6-9.8l5.2 4.7c-4.6 3-10.3 9.9-10.3 9.9zm70.7 57.7l-10.6-5.5c2-2.5 6.7-12.9 6.7-12.9l10.9 3.9c-1.2 9.4-7 14.5-7 14.5z"/><path class="N" d="m214.2 293.9h38v26.8h-38z"/><path class="N" d="m214.2 325.1h38v90.1h-38z"/><path class="O" d="m209.4 320.7h42.8v4.5h-42.8z"/><path class="N" d="m336 325.1v30.8l-40.3-62h-29.7l-0.9 121.3h30.6l2.6-65.3 42.5 65.3h33.2v-90.1z"/><path class="N" d="m336 293.9h38v26.8h-38z"/><path class="O" d="m336 320.7h44.8v4.5h-44.8z"/><path class="N" d="m431.8 345.1v26.9l11.1 0.5 22-0.5c-5.7 7.6-12.7 10.6-21.3 10.6-8.9 0-15.6-2.1-20-6.5l-17.5 25.4c9.9 7 18.4 14.5 33.4 14.5 31.4 0 48.5-18.3 56.9-32.8v-38.1l-53.5-0.3z"/><path class="N" d="m420.7 372.6c-2.9-4.5-4.3-10.6-4.3-18.2 0-16.1 8.5-25.2 23.2-25.2 7.9 0 13.1 1.5 16 6.2l34.7-16.7v-0.1c-8.7-16.1-26.5-25.9-51.1-25.9-38.1 0-59.9 19-59.9 55.2 0 20.1 11.3 40.4 24.4 51.4z"/><path class="N" d="m464.3 335.8l-8.7-0.4-4.4-9.2 9.1-1.9 5.4 5.7z"/><path class="O" d="m432.4 376.1l0.2-0.3c0 0-1.7-1.6-3-3.7l-1.2 0.1h-2.4l-5 6.1-14 24 4.2 3.2z"/><path class="N" d="m179.8 364.7c17.3-5.6 26.6-18.4 26.6-34.3 0-22.2-14.4-36.5-44.9-36.5h-56.5v121.2h27.6l10.4-4.5v-39h0.3v-25.3h-0.3v-20.6h15.1c7.2 0 10.9 4.1 10.9 10.3 0 7.2-3.7 10.3-10.9 10.3h-10.4v25.8l22.5 43 27.7 0.4 7.4-4.7z"/><path class="P" d="m209.4 293.9h38v26.8h-38z"/><path fill-rule="evenodd" class="b" d="m247.8 321.1h-38.8v-27.6h38.8zm-38-0.8h37.2v-26h-37.2z"/><path class="P" d="m209.4 325.1h38v90.1h-38z"/><path fill-rule="evenodd" class="b" d="m247.8 415.6h-38.8v-90.9h38.8zm-38-0.8h37.2v-89.2h-37.2z"/><path class="P" d="m342.8 325.1v30.8l-40.3-62h-38v121.3h38v-61l40.3 61h38v-90.1z"/><path fill-rule="evenodd" class="b" d="m381.2 415.6h-38.6l-0.1-0.2-39.5-59.9v60.1h-38.9v-122.1h38.7l0.1 0.2 39.5 60.9v-29.9h38.9c0 0 0 90.9-0.1 90.9zm-38.2-0.8h37.4v-89.3h-37.2v31.8l-40.9-63h-37.4v120.5h37.2v-61.9l0.8 1.1z"/><path class="P" d="m342.8 293.9h38v26.8h-38z"/><path fill-rule="evenodd" class="b" d="m381.2 321.1h-38.8v-27.6h38.8zm-38-0.8h37.2v-26h-37.2z"/><path class="P" d="m443.4 345.1v26.9h30.3c-5.7 7.6-12.7 10.6-21.2 10.6-9 0-15.6-2.1-20.1-6.5l-21.8 28.9c9.9 7.1 22.7 11 37.8 11 31.3 0 48.4-18.3 56.8-32.9v-38z"/><path fill-rule="evenodd" class="b" d="m448.3 416.5c-14.6 0-27.7-3.9-38-11.1l-0.3-0.3 22.3-29.6 0.4 0.3c4.4 4.3 10.9 6.4 19.7 6.4 8.7 0 15.2-3.1 20.5-9.8h-29.9v-27.7h62.6v38.5 0.1c-7.2 12.4-24.1 33.2-57.3 33.2zm-37.2-11.5c10.1 6.9 22.9 10.6 37.2 10.6 32.7 0 49.4-20.3 56.5-32.6v-37.5h-61v26.1h30.7l-0.5 0.7c-5.4 7.2-12.5 10.7-21.6 10.7-8.8 0-15.4-2-20-6.3z"/><path class="P" d="m429.5 372.6c-2.9-4.5-4.3-10.6-4.3-18.2 0-16.1 8.2-26.6 23-26.6 7.9 0 13.3 2.9 16.2 7.6l34.8-16.7v-0.1c-8.7-16.1-26.6-25.9-51.2-25.9-38 0-61.3 25.5-61.3 61.7 0 20.1 7.3 37 20.4 47.9z"/><path fill-rule="evenodd" class="b" d="m407.1 402.9l-0.3-0.2c-13.2-11.1-20.5-28.3-20.5-48.3 0-18.1 5.7-33.6 16.5-44.7 11-11.4 26.7-17.4 45.2-17.4 24.1 0 42.5 9.3 51.5 26.1l0.1 0.2-0.1 0.3-0.2 0.2-35 16.8-0.2-0.3c-3-4.8-8.6-7.4-15.9-7.4-14.2 0-22.6 9.8-22.6 26.2 0 7.5 1.4 13.6 4.2 18l0.2 0.2-0.2 0.2zm40.9-109.8c-37 0-60.9 24.1-60.9 61.3 0 19.6 7 36.4 19.9 47.4l22-29.2c-2.8-4.6-4.2-10.5-4.2-18.2 0-16.9 8.7-27 23.4-27 7.4 0 13.2 2.7 16.4 7.5l34.1-16.4c-9-16.4-27-25.4-50.7-25.4z"/><path class="N" d="m415.4 326.9l-5.5-4.8c3.5-6.7 10.6-9.7 10.6-9.7l5.2 4.7c-4.6 2.9-10.3 9.8-10.3 9.8z"/><path class="P" d="m170.9 368.7c17.3-5.6 26.2-19.2 26.2-35.1 0-22.2-15.6-39.7-46-39.7h-56.5v121.2h38v-43.5h0.3v-25.3h-0.3v-20.6h15.1c7.1 0 10.9 4.2 10.9 10.3 0 7.2-3.8 10.3-10.9 10.3h-10.4v25.8l22.5 43h37.5z"/><path fill-rule="evenodd" class="b" d="m198 415.5h-38.4l-22.7-43.4v-26.2h10.8c7.2 0 10.5-3.2 10.5-9.9 0-6.3-3.8-9.9-10.5-9.9h-14.7v19.8h0.3v26.1h-0.3v43.5h-38.8v-122h56.9c14.5 0 26.5 4 34.7 11.6 7.7 7.1 11.7 17 11.7 28.5 0 16.6-9.7 29.8-26 35.3zm-37.9-0.8h36.5l-26.2-46.2 0.5-0.1c16.2-5.3 25.9-18.3 25.9-34.7 0-24.3-17.5-39.4-45.7-39.4h-56v120.4h37.2v-43.5h0.3v-24.5h-0.3v-21.3h15.4c7.1 0 11.4 4 11.4 10.6 0 7.2-3.7 10.7-11.4 10.7h-9.9v25.3z"/><path class="N" d="m102.9 303.8h9v12.1h-9z"/><path class="N" d="m162.3 408l-5.8-10.6h9.5l5.8 10.6z"/><path class="N" d="m219.1 392.9h18.6v9.3h-18.6z"/><path class="N" d="m273.4 302.9h18.5v9.4h-18.5z"/><path class="N" d="m344.2 385.2h11v16.9h-11z"/><path class="N" d="m486 365.5h8.2v14.1h-8.2z"/><path class="Q" d="m466.4 465.8c-0.7 3.7-1.6 8.3-2 10.3-0.5 2.1-1.4 5.7-1.9 7.7-0.6 2.1-1.6 5.7-2.2 7.7l-1.2 3.8-0.3 1-0.4 0.9-0.6 1.9c-1 2.9-2.4 6.3-3.6 9.2-0.6 1.2-1.8 4.2-2.4 5.4-1 2-2.6 5.2-3.6 7-9.9 18.3-24.9 33.7-44.2 41.7-19.2 8-40.7 8.8-61.1 5.6-17.7-2.8-35.2-8.2-51.4-15.9-41.1-20-76.9-49.3-108.1-82.5-47.4-50.9-85.9-110-115.7-172.8-0.4-0.9-1.2-2.6-1.6-3.5-14.5-35.7-26.1-73-30.2-111.4-2.2-20.9-2-42.2 1.9-62.9 6-31.7 21.7-63.5 49-81.8 14.2-8.6 30.2-13.9 46.7-15.4 30.3-2.7 62.4 7.4 88.4 23 2.8-0.9 5.6-1.9 8.4-2.7-1.3-0.8-3.9-2.7-3.9-2.7-4.3-3-8.8-5.6-13.4-8-36.8-19.9-82.2-26.4-121-8.3-3.3 1.5-6.7 3.3-9.8 5.1-4.3 2.4-8.2 5.4-11.9 8.6-25.7 22.3-40.4 55-45.4 88.2-2.7 16.4-3.1 33.3-2 49.9 2.8 41.3 14.3 81.4 29.5 119.6l1.5 3.9 0.1 0.2c0.1 0.1 0.1 0.3 0.2 0.3 0.3 0.8 1.2 2.7 1.5 3.4 47.1 99.9 124.8 208.6 225.9 258.4 13.7 6.8 28.3 11.8 43.3 15.3 39.5 9.2 83.2 5.6 112.2-25.7 7.2-7.7 13.2-16.6 18-25.9 1-2 2.6-5.5 3.5-7.6l1.6-3.8 0.8-1.9c1.1-3.1 2.4-6.7 3.4-9.8l0.6-2 0.3-1 0.3-1 1.1-4q0.2-1 0.5-2l0.5-2 0.9-4c0.5-2.1 1.2-6 1.6-8.1 0.8-3.9 2-12.2 2.4-16.2 0 0 0.1-0.6 0-1.2q-3.1 3-6.2 6z"/><path class="R" d="m471.9 460.5c-0.8 5-2.3 13.7-2.8 16.5-0.2 0.9-0.5 2.1-0.7 3.5-0.3 1.6-0.7 3.4-1 4.6l-1.4 6q-0.1 0.6-0.3 1.2l-1.3 4.7-1.2 3.9c-0.7 2.4-1.6 5-2.5 7.5l-3.2 7.9-0.8 1.9c-0.9 1.9-1.9 4.2-2.7 5.7-4.8 9.6-10.8 18.2-17.7 25.6-34.1 36.6-84.3 31.6-111.1 25.3-15.6-3.6-30.1-8.7-43-15.2-85.9-42.4-168.1-136.3-225.4-257.8-0.1-0.3-0.4-0.9-0.7-1.5-0.3-0.7-0.6-1.4-0.8-1.9l-1.7-4.3c-17.3-43.6-27-82.6-29.5-119.3-1.1-17.7-0.4-34.4 2-49.6 5.5-36 21.5-67.1 45-87.5 4.3-3.7 8.1-6.4 11.7-8.5 3.4-1.9 6.7-3.6 9.7-5 15-6.9 31.7-10.4 49.1-10.4 23.4 0 47.9 6.3 70.9 18.6 4.9 2.7 9.3 5.3 13.2 8 0 0 0.9 0.6 1.9 1.3q-1.6 0.5-3 1-1.2 0.4-2.5 0.8c-28.5-17-60.8-25.3-88.7-22.9-16.5 1.5-32.8 6.9-47.2 15.6-33.7 22.5-45.5 61.4-49.6 82.6-3.6 19.3-4.3 40.6-1.9 63.3 3.7 34.2 13.6 70.7 30.3 111.7 0.4 0.9 1.2 2.6 1.6 3.5 31.3 66 70.4 124.2 116 173.2 34.5 36.6 70.9 64.5 108.4 82.7 16.2 7.7 33.6 13.1 51.7 16 23.4 3.6 44.1 1.7 61.7-5.7 18.4-7.6 34.3-22.6 44.8-42.1 0.9-1.6 2.2-4.1 3.1-6l0.6-1.1c0.3-0.7 0.8-1.8 1.3-3 0.4-0.9 0.8-1.9 1.1-2.5l0.8-2c1-2.5 2-5 2.8-7.3l2.5-7.6c0.6-1.9 1.4-4.9 2-7.1l0.2-0.7c0.5-2 1.4-5.6 1.9-7.8 0.5-1.8 1.7-7.8 2.6-12.2q-1.5 1.4-3 2.8c-0.7 3.5-1.6 7.5-1.9 8.9-0.5 2.1-1.4 5.7-1.9 7.7l-0.2 0.7c-0.6 2.1-1.4 5.1-2 7l-1.2 3.8-1.3 3.7c-0.7 2.3-1.7 4.8-2.7 7.2l-0.8 1.9c-0.2 0.6-0.7 1.6-1.1 2.6-0.5 1.1-1 2.2-1.3 2.8l-0.5 1.1c-1 1.9-2.2 4.3-3.1 5.9-10.3 19.1-25.8 33.7-43.6 41.1-17.2 7.2-37.5 9.1-60.4 5.5-17.8-2.8-35-8.1-51.1-15.8-37.1-18-73.4-45.7-107.7-82.2-45.4-48.7-84.3-106.8-115.5-172.5-0.4-0.9-1.2-2.6-1.5-3.4-16.7-40.8-26.6-77.1-30.2-111.1-2.3-22.5-1.7-43.5 1.9-62.5 4-20.9 15.5-59.1 48.5-81.1 14.1-8.5 30-13.7 46.1-15.2 27.6-2.4 59.5 5.9 87.7 22.9l0.5 0.3 0.5-0.2q1.5-0.5 3-1c1.8-0.6 3.6-1.2 5.4-1.7l2.6-0.8-2.3-1.4c-1.3-0.8-3.9-2.6-3.9-2.7-4.1-2.8-8.5-5.4-13.5-8.1-40.6-21.9-86.3-24.9-122.1-8.2-3 1.4-6.4 3.1-9.9 5-3.8 2.2-7.6 5-12.1 8.8-23.9 20.8-40.2 52.4-45.8 88.9-2.4 15.4-3.1 32.3-2 50.2 2.5 36.9 12.2 76.1 29.6 120l1.6 4c0 0.1 0.1 0.2 0.2 0.4 0.1 0.4 0.5 1.1 0.8 1.8 0.3 0.7 0.5 1.2 0.7 1.6 57.6 122 140.1 216.4 226.5 258.9 13.1 6.6 27.7 11.8 43.5 15.4 10 2.3 23.1 4.5 37.4 4.5 25 0 53.8-6.6 76-30.5 7.1-7.6 13.2-16.4 18.1-26.1 0.9-1.6 1.9-3.8 2.8-5.8l2.4-5.8 1.6-4.2c1-2.5 1.9-5.2 2.6-7.6l2.5-8.7q0.2-0.6 0.4-1.3l1.4-6c0.3-1.2 0.6-3 1-4.7 0.2-1.3 0.4-2.5 0.6-3.4 0.7-3.9 2-12.2 2.5-16.4l0.6-3.2q-1.3 1.3-2.6 2.6z"/><path class="j" d="m297.6 31.8c-46.9 0-90.8 12.9-128.4 35.3-4.3 2.6-11.9 0.1-16.1-1.7-1.5-0.6-2.9-1.4-4.3-2.3-1.1-0.8-2.1-1.3-3.1-1.7-1.3-0.6-2.7-0.8-4-0.9l9.7 8.6 8.6 1.5c5.1 1 10.4-0.1 14.8-2.9 16.1-10.3 62.6-35 139.2-35.3q-8.1-0.6-16.4-0.6z"/><path class="S" d="m485.3 496.2h-370.8c-1.1 0-2-0.9-2-2v-43.1c0-1.1 0.9-2 2-2h370.8c1.1 0 2 0.9 2 2v43.1c0 1.1-0.9 2-2 2z"/><path class="T" d="m155.7 449.1h197.7v7.9h-197.7z"/><path class="T" d="m177.6 488.3h259.4v7.9h-259.4z"/><path class="T" d="m356.8 457h121.2c0.7 0 1.3 0.6 1.3 1.3v4.9h8v-12.7c0-0.8-0.6-1.4-1.4-1.4h-129.1z"/><path class="T" d="m479.3 466.5v20.5c0 0.7-0.6 1.3-1.3 1.3h-37.7v7.9h45.6c0.8 0 1.4-0.6 1.4-1.4v-28.3z"/><path class="T" d="m120.4 465v-6.7c0-0.7 0.6-1.3 1.3-1.3h30.6v-7.9h-38.4c-0.8 0-1.4 0.6-1.4 1.4v14.5z"/><path class="T" d="m174.2 488.3h-52.5c-0.7 0-1.2-0.6-1.2-1.3v-18.6h-8v26.4c0 0.8 0.6 1.4 1.4 1.4h60.3c0 0 0-7.9 0-7.9z"/><path fill-rule="evenodd" class="U" d="m160.4 477.4h-6.5l-1.2 3.4h-4.5l6.9-17.8h4.3l6.8 17.8h-4.5zm-1.3-3.7l-2-5.7-2 5.7z"/><path fill-rule="evenodd" class="U" d="m182.1 463h7.3c5.1 0 8.6 3.4 8.6 8.9 0 5.5-3.5 8.9-8.6 8.9h-7.3zm7.1 13.8c2.6 0 4.4-1.8 4.4-4.9 0-3.1-1.8-4.9-4.4-4.9h-2.8v9.8z"/><path class="U" d="m216.1 476.9v3.9h-12.4v-17.8h12.1v3.9h-7.8v3h6.9v3.8h-6.9v3.2z"/><path class="U" d="m234.2 476.9v3.9h-12.4v-17.8h12.1v3.9h-7.8v3h6.9v3.8h-6.9v3.2z"/><path fill-rule="evenodd" class="U" d="m254.3 469.6c0 4-2.6 6.6-6.8 6.6h-2.7v4.6h-4.4v-17.8h7.1c4.2 0 6.8 2.5 6.8 6.6zm-4.4 0c0-1.6-0.9-2.6-2.7-2.6h-2.4v5.2h2.4c1.8 0 2.7-1 2.7-2.6z"/><path class="U" d="m269.8 479.2l1.5-3.7c1.3 1 3.3 1.8 5.1 1.8 1.8 0 2.5-0.6 2.5-1.5 0-2.8-8.8-0.8-8.8-7.4 0-3.1 2.3-5.8 6.8-5.8 2 0 4.1 0.6 5.6 1.6l-1.3 3.7c-1.5-0.9-2.9-1.3-4.3-1.3-1.8 0-2.5 0.7-2.5 1.6 0 2.7 8.8 0.7 8.8 7.2 0 3.1-2.3 5.8-6.9 5.8-2.5 0-5-0.8-6.5-2z"/><path fill-rule="evenodd" class="U" d="m303.3 469.6c0 4-2.7 6.6-6.9 6.6h-2.7v4.6h-4.3v-17.8h7c4.2 0 6.9 2.5 6.9 6.6zm-4.4 0c0-1.6-0.9-2.6-2.7-2.6h-2.5v5.2h2.5c1.8 0 2.7-1 2.7-2.6z"/><path fill-rule="evenodd" class="U" d="m318.6 477.4h-6.5l-1.3 3.4h-4.4l6.8-17.8h4.3l6.9 17.8h-4.6zm-1.3-3.7l-2-5.7-2 5.7z"/><path class="U" d="m328.5 471.9c0-5.4 3.6-9.3 8.5-9.3 2.8 0 5.1 1.2 6.6 3.4l-2.8 2.9c-0.9-1.4-2.1-2.1-3.6-2.1-2.5 0-4.3 2-4.3 5.1 0 3.1 1.8 5.1 4.3 5.1 1.5 0 2.7-0.7 3.6-2.1l2.8 2.9c-1.5 2.2-3.8 3.4-6.6 3.4-4.9 0-8.5-3.9-8.5-9.3z"/><path class="U" d="m362.9 476.9v3.9h-12.4v-17.8h12.1v3.9h-7.7v3h6.8v3.8h-6.8v3.2z"/><path class="U" d="m393.3 480.8v-9.4l-4 7.7h-1.9l-4-7.5v9.2h-4v-17.8h3.6l5.4 10.3 5.3-10.3h3.6v17.8z"/><path class="U" d="m419.1 480.8l-0.1-9.4-3.9 7.7h-2l-3.9-7.5v9.2h-4.1v-17.8h3.6l5.5 10.3 5.2-10.3h3.6l0.1 17.8z"/><path fill-rule="evenodd" class="U" d="m429.7 471.9c0-5.3 3.6-9.3 8.6-9.3 4.9 0 8.6 4 8.6 9.3 0 5.4-3.7 9.3-8.6 9.3-5 0-8.6-3.9-8.6-9.3zm12.8 0c0-3.1-1.9-5.1-4.2-5.1-2.4 0-4.2 2-4.2 5.1 0 3.1 1.8 5.1 4.2 5.1 2.3 0 4.2-2 4.2-5.1z"/></svg>