<svg version="1.2" xmlns="http://www.w3.org/2000/svg" viewBox="0 0 1095 477" width="1095" height="477"><defs><linearGradient id="P" gradientUnits="userSpaceOnUse"/><linearGradient id="g1" x1="464.2" y1="47.7" x2="643.1" y2="412.1" href="#P"><stop offset=".1" stop-color="#f46a57"/><stop offset=".1" stop-color="#f56855"/><stop offset=".3" stop-color="#f66350"/><stop offset=".4" stop-color="#db5d51"/><stop offset=".4" stop-color="#b25453"/><stop offset=".5" stop-color="#914d54"/><stop offset=".6" stop-color="#774756"/><stop offset=".6" stop-color="#654356"/><stop offset=".7" stop-color="#5a4157"/><stop offset=".8" stop-color="#564057"/></linearGradient><linearGradient id="g2" x1="464.2" y1="47.7" x2="643.1" y2="412.1" href="#P"><stop offset=".1" stop-color="#f46a57"/><stop offset=".1" stop-color="#f56855"/><stop offset=".3" stop-color="#f66350"/><stop offset=".4" stop-color="#db5d51"/><stop offset=".4" stop-color="#b25453"/><stop offset=".5" stop-color="#914d54"/><stop offset=".6" stop-color="#774756"/><stop offset=".6" stop-color="#654356"/><stop offset=".7" stop-color="#5a4157"/><stop offset=".8" stop-color="#564057"/></linearGradient><linearGradient id="g3" x1="687.2" y1="361.5" x2="694.4" y2="376.2" href="#P"><stop offset=".1" stop-color="#f46a57"/><stop offset=".1" stop-color="#f56855"/><stop offset=".3" stop-color="#f66350"/><stop offset=".4" stop-color="#db5d51"/><stop offset=".4" stop-color="#b25453"/><stop offset=".5" stop-color="#914d54"/><stop offset=".6" stop-color="#774756"/><stop offset=".6" stop-color="#654356"/><stop offset=".7" stop-color="#5a4157"/><stop offset=".8" stop-color="#564057"/></linearGradient><linearGradient id="g4" x1="689.7" y1="360.3" x2="696.9" y2="374.9" href="#P"><stop offset=".1" stop-color="#f46a57"/><stop offset=".1" stop-color="#f56855"/><stop offset=".3" stop-color="#f66350"/><stop offset=".4" stop-color="#db5d51"/><stop offset=".4" stop-color="#b25453"/><stop offset=".5" stop-color="#914d54"/><stop offset=".6" stop-color="#774756"/><stop offset=".6" stop-color="#654356"/><stop offset=".7" stop-color="#5a4157"/><stop offset=".8" stop-color="#564057"/></linearGradient></defs><style>.a{fill:none;stroke:#fff;stroke-width:2.6}.b{fill:#fff}.c{fill:url(#g1)}.d{fill:url(#g2)}.e{fill:#a2484c}.f{fill:#463447}.g{fill:#97474c}.h{fill:#ef5648}.i{opacity:.6;fill:#392938}.j{fill:#643e4b}.k{fill:#ffb473}.l{fill:#f68361}.m{fill:#d85545}.n{opacity:.6;fill:#382938}.o{fill:#f38262}.p{fill:#f59367}.q{fill:#fc824c}.r{fill:#d9594a}.s{fill:#392938}.t{fill:#fead71}.u{fill:#feb172}.v{fill:#382938}.w{fill:#5e465e}.x{fill:#3c2c3d}.y{fill:#cc4b40}.z{fill:#ce4d41}.A{opacity:.5;fill:#463447}.B{fill:#fea96f}.C{fill:#ef5548}.D{fill:#cd4c40}.E{fill:#fc814c}.F{fill:#fc824e}.G{opacity:.5;fill:#3a2b3a}.H{fill:#0b292e}.I{opacity:.8;fill:#0b292e}.J{fill:none}.K{fill:#185159;stroke:#185159;stroke-width:.8}.L{fill:#134734}.M{fill:#2fdd9d}.N{fill:#2fc6dd}.O{fill:#164951}.P{fill:#fbb74c}.Q{fill:#ffe1b2}.R{fill:url(#g3)}.S{fill:url(#g4)}.T{opacity:.8;fill:#3f2e3e}.U{fill:#f9594c}.V{fill:#fff;stroke:#fff;stroke-width:.4}</style><path class="a" d="m668.8 91.3c-1.3 3.3-9.2 3.2-17.7-0.1-8.5-3.3-14.3-8.6-13.1-11.8 1.3-3.3 9.2-3.2 17.7 0.1 8.5 3.3 14.4 8.6 13.1 11.8z"/><path class="b" d="m624.3 102.7c5.9-2.6 11.7-5.5 16.7-9.6-2.7 6.3-10.1 9.6-16.7 9.6z"/><path class="b" d="m618.5 82.4c6.7 0.6 14.2-0.5 19.5-5.1l1.6 2c-6.1 4.3-14.1 4.6-21.1 3.1z"/><path class="b" d="m666.7 109.7c-2.1-5.2-4.6-10.3-5-16.1l2.6 0.2c-0.4 5.3 1.2 10.8 2.4 15.9z"/><path class="b" d="m670.1 89.2c0.6 3.6 1.2 7.4 3.4 10.4-2.9-2.5-4.4-6.2-5.9-9.7 0 0 2.5-0.7 2.5-0.7z"/><path class="b" d="m642.4 87.3c-1.8 1.8-4 3-6.4 3.8 0.6-1.2 1.3-2.2 2.1-3.2 0.8-0.9 1.6-1.8 2.6-2.5z"/><path class="b" d="m649.4 91c-1.7 2.4-3.9 4.4-6.2 6.4 1.1-2.8 2.4-5.5 4.2-7.9 0 0 2 1.5 2 1.5z"/><path class="c" d="m758.1 227.3c0.6-112.3-90.5-204.1-202.8-204.1-38.1-0.1-73.8 10.4-104.3 28.7-3.5 2-9.7 0-13.1-1.4-1.2-0.5-2.4-1.2-3.5-1.9q-1.3-0.9-2.5-1.4c-2.3-1-4.9-1-7.2-0.2-18.3 5.9-26.9 18.7-30.6 26.1-1.5 3.1-2 6.5-1.4 9.9l0.9 5.3c1.1 8.3-2.6 18.5-5.4 24.8-1.6 3.5-3.8 6.6-6.6 9.3-22.7 32.7-29.5 60.9-29.5 103.7 0 26.4 5.1 51.6 14.2 74.7 0.4 1.9 1.7 7.8 1.1 13.6-0.2 2.3 0.3 4.6 1.5 6.5l3.5 5.7c1.1 1.7 3.2 2.6 5.2 2.2l2.1-0.4c35.2 60.2 100.6 100.7 175.4 100.7 28.5 0 55.6-5.8 80.2-16.4q0 0 0 0 0.4-0.2 0.9-0.4c1.7-0.5 5.9-0.4 12.9 7.1 0 0 5.7 5 20.8-5.2 0 0 14.1-10 10.1-13.1 0 0-4.7-6.1-0.4-14l3.5-3.4c45.5-37 74.6-93.3 75-156.4z"/><path class="d" d="m758.1 227.3c0.6-112.3-90.5-204.1-202.8-204.1-38.1-0.1-73.8 10.4-104.3 28.7-3.5 2-9.7 0-13.1-1.4-1.2-0.5-2.4-1.2-3.5-1.9q-1.3-0.9-2.5-1.4c-2.3-1-4.9-1-7.2-0.2-18.3 5.9-26.9 18.7-30.6 26.1-1.5 3.1-2 6.5-1.4 9.9l0.9 5.3c1.1 8.3-2.6 18.5-5.4 24.8-1.6 3.5-3.8 6.6-6.6 9.3-22.7 32.7-29.5 60.9-29.5 103.7 0 26.4 5.1 51.6 14.2 74.7 0.4 1.9 1.7 7.8 1.1 13.6-0.2 2.3 0.3 4.6 1.5 6.5l3.5 5.7c1.1 1.7 3.2 2.6 5.2 2.2l2.1-0.4c35.2 60.2 100.6 100.7 175.4 100.7 28.5 0 55.6-5.8 80.2-16.4q0 0 0 0 0.4-0.2 0.9-0.4c1.7-0.5 5.9-0.4 12.9 7.1 0 0 5.7 5 20.8-5.2 0 0 14.1-10 10.1-13.1 0 0-4.7-6.1-0.4-14l3.5-3.4c45.5-37 74.6-93.3 75-156.4z"/><path class="e" d="m391.4 154.3c1 1.5-0.3 4.1-2.9 5.9-2.6 1.7-5.5 1.9-6.5 0.4-1-1.6 0.2-4.2 2.8-5.9 2.6-1.8 5.5-2 6.6-0.4z"/><path class="f" d="m648.5 242.4c1.8 2.3 0.3 6.5-3.4 9.5-3.8 2.9-8.2 3.4-10 1.1-1.9-2.3-0.3-6.5 3.4-9.5 3.7-2.9 8.2-3.4 10-1.1z"/><path class="g" d="m550.2 147.3c0.9 1.7-0.7 4.4-3.7 6.2-3 1.7-6.2 1.7-7.2 0-1-1.7 0.7-4.4 3.7-6.2 3-1.7 6.2-1.7 7.2 0z"/><path class="h" d="m427.6 113.6c1 1.5-0.3 4.1-2.8 5.9-2.6 1.7-5.6 1.9-6.6 0.4-1-1.5 0.3-4.2 2.9-5.9 2.5-1.7 5.5-1.9 6.5-0.4z"/><path class="i" d="m514.7 425.1l-1.3-1.4c-66.1-16.7-101.8-55.7-116.2-70 29.1 36 70.3 61.8 117.5 71.4z"/><path class="i" d="m698.7 365.3l2.6 1.6c34.9-36.2 56.5-85.4 56.8-139.6q0-2.5 0-5h-1.8c0 0 3.7 84-57.6 143z"/><path class="j" d="m586 185c9.3-6.3 19.1-11.8 29.1-16.9 3.4-1.7 6.8-3.4 10.2-4.9l0.4 0.7c-7.9 5.2-16.1 9.7-24.3 14.1-5 2.6-10.1 5.1-15.3 7.3z"/><path class="j" d="m596.3 236.7c14.2-9.7 29.2-18 44.5-25.8 5.1-2.6 10.3-5.1 15.5-7.4l0.6 1c-14.4 9.4-29.4 17.7-44.8 25.4-5.1 2.6-10.3 5-15.6 7.2z"/><path class="j" d="m614.5 238.3c8.3-5.7 17.2-10.6 26.1-15.2 3-1.5 6-3 9.1-4.3l0.3 0.6c-6.9 4.6-14.4 8.7-21.8 12.6-4.4 2.3-8.9 4.6-13.6 6.5z"/><path class="k" d="m374.5 142.4l6.7-12.6c0 0 21.3-27.6 14.4-45.2l-2.9-1.7q0 0.1 0 0.1l0.9 5.3c1.1 8.2-2.6 18.5-5.4 24.8-1.6 3.5-3.8 6.6-6.6 9.2-22.7 32.8-29.5 60.9-29.5 103.8 0 16.7 2.1 33 5.9 48.5-3.6-24.4-7.8-69.1 2.9-100.2 0 0 2.3-15 13.6-32z"/><path class="l" d="m596.4 175.6c2.5-2.1 5.3-3.8 8.2-5.4 2.9-1.5 5.8-3 9-4-2.6 2.1-5.4 3.9-8.2 5.4-2.9 1.6-5.9 3-9 4z"/><path class="m" d="m590.1 77.5c0 0-31.5 10.3-58.9 27.5 0 0 37.4-24.7 58.9-27.5z"/><path class="l" d="m544.2 88.6c1.7-1.3 3.5-2.6 5.4-3.7q2.8-1.8 5.7-3.3c2-1 4-1.9 6-2.8 2.1-0.8 4.2-1.5 6.4-2l0.1 0.4-11.7 5.9q-2.9 1.4-5.9 2.8c-2 1-4 1.9-6 2.7z"/><path class="m" d="m555.4 109.3c2-1.5 4.1-2.7 6.1-4q3.2-1.8 6.5-3.4 3.3-1.7 6.7-3c2.3-0.9 4.6-1.8 7-2.3l0.1 0.3c-4.2 2.5-8.5 4.7-12.8 6.9q-3.3 1.6-6.7 3.1c-2.2 0.9-4.4 1.9-6.8 2.7z"/><path class="l" d="m563.5 102.8q0.9-0.8 1.9-1.4 1-0.6 2-1.1 1.1-0.5 2.2-1c0.7-0.2 1.5-0.5 2.3-0.6v0.2c-1.3 0.8-2.6 1.6-4 2.3q-1.1 0.5-2.2 0.9-1 0.5-2.2 0.8z"/><path class="l" d="m553.4 90.1c0.9-0.7 1.9-1.4 2.8-2q1.5-0.9 3-1.6 1.6-0.8 3.2-1.4c1.1-0.4 2.2-0.7 3.3-0.9l0.1 0.2c-1.9 1.3-3.9 2.4-5.9 3.4q-1.6 0.7-3.1 1.4c-1.1 0.4-2.2 0.8-3.3 1.1z"/><path class="n" d="m552.8 345.8c0 0 56.5-5.2 108.8-46.2 0 0-34.6 38.5-108.8 46.2z"/><path class="n" d="m662.1 328.6c0 0-48.3 30.2-87.4 36.7-39.1 6.5-39.1 6.5-39.1 6.5 0 0 61.4 0.3 127.4-41.3z"/><path class="n" d="m640.7 292c0 0-40.7 25.7-76.3 35 0 0 40.5-7.3 76.3-32.9z"/><path class="k" d="m438.6 50.7q-0.4-0.1-0.7-0.3c-1.2-0.5-2.4-1.1-3.5-1.9q-1.3-0.9-2.6-1.4c-2.3-0.9-4.8-0.9-7.1-0.1-18.3 6-27 18.7-30.6 26.1-1.5 3-2 6.5-1.4 9.9l0.7 3.8c10.2 2.9 30.4-11.2 30.4-11.2 11.4-9.7 14.4-18.7 14.8-24.9z"/><path class="o" d="m432.6 47.5q0 0 0 0l-1.6-0.6c-2-0.7-4.3-0.6-6.3 0.1-18.3 6-26.9 18.7-30.5 26.1q-0.1 0-0.1 0.1c-1.3 3.8-0.3 5.5-0.3 5.5 4.5 10.8 27.8-5.5 27.8-5.5 15.9-13.5 11.1-25.6 11-25.7z"/><path class="k" d="m407.4 95.5c0-4.3-0.5-8.7-2.4-12.6l-0.1-0.3c-0.1-0.1-0.1-0.2 0.2-0.5l2.7-1.2c0.4 0 0.5 0.2 0.5 0.3 1.4 4.7 0.5 9.8-0.9 14.3z"/><path class="k" d="m433.5 85.7l-10.9-11.9 2.3-1.8z"/><path class="k" d="m432.9 58.5q0.1 0.1 0.2 0.1 0 0.1 0.1 0.1 0.2 0.1 0.4 0.2 0.4 0.1 0.8 0.3 0.8 0.3 1.7 0.5 1.7 0.4 3.4 0.6c1.2 0 2.4 0 3.6-0.1 1.2-0.1 2.4-0.4 3.6-0.7-1.1 0.6-2.2 1.1-3.4 1.4q-1.8 0.6-3.7 0.8-1.9 0.3-3.8 0.2-1-0.1-2-0.2-0.5-0.1-1-0.2-0.2 0-0.5-0.1l-0.2-0.1q-0.1 0-0.3-0.1z"/><path class="p" d="m562.1 51c-8.7 0-15.7-3.6-15.7-8 0-4.5 7-8 15.7-8 8.6 0 15.6 3.5 15.6 8 0 4.4-7 8-15.6 8z"/><path class="q" d="m535.2 48.9c1.2-0.3 2.3-0.8 3.4-1.4q1.6-0.9 3-2c0.5-0.4 0.9-0.8 1.3-1.2 0.4-0.5 0.8-0.9 1.1-1.4 0.7-0.9 1.3-1.9 1.8-3l2.5 1.5c-0.8 1.1-1.6 2.1-2.6 3-0.5 0.5-1 0.9-1.5 1.3-0.6 0.4-1.1 0.8-1.7 1.1q-1.7 1-3.5 1.6-1.9 0.6-3.8 0.8z"/><path class="q" d="m544.1 57.4q0.9-1.1 1.6-2.2 0.8-1.2 1.4-2.4c0.4-0.9 0.7-1.7 0.9-2.5q0.4-1.3 0.5-2.6l2.9 0.6q-0.6 1.5-1.3 2.8-0.8 1.3-1.8 2.5-0.9 1.1-2 2-1.1 1-2.2 1.8z"/><path class="r" d="m564.2 36.2c0 0-16.3 2.7-7.4 13.1l-6.9-0.8-2.9-3.6v-3.8l3.3-4c0 0 3.6-1.4 3.8-1.4 0.2 0 8.9-0.5 8.9-0.5z"/><path class="s" d="m648.1 416.4c-8-6.5-10.8-4.4-10.8-4.4v0.1c2.1-0.1 6 1.1 11.8 7.3 0 0 5.5 4.8 19.9-4.6-7.1 3.3-10.8 3.9-12.6 3.5-1.3-0.2-2-1.7-1.4-2.9 2.5-5.2 8.4-8.6 8.4-8.6 8.9-6 13.3-3.4 15.3-0.4 1.8-2.2 2.7-4.2 1.3-5.3 0 0-0.3-0.4-0.6-1-26.2-4.4-31.3 16.3-31.3 16.3z"/><path class="g" d="m538.8 159.9c0.5 0.9-0.4 2.5-2.1 3.5-1.8 1-3.6 1-4.2 0.1-0.5-1 0.4-2.6 2.1-3.6 1.8-1 3.6-1 4.2 0z"/><path class="t" d="m506.1 101.1c0.5 0.7-0.3 2-1.6 3-1.4 0.9-2.9 1-3.4 0.3-0.5-0.7 0.2-2.1 1.6-3 1.3-0.9 2.9-1.1 3.4-0.3z"/><path class="u" d="m564.6 36.2c0 0 8.5 2.2 9.4 6.8 0 0 0.9 3.2-6.5 6.1l2.9 0.2 5.4-2.5 1.7-5.1-3.3-3.8-6.7-2.4z"/><path class="t" d="m461.7 79.2c1.5 0.3 2.5 1.4 2.3 2.6-0.2 1.1-1.5 1.9-3 1.7-1.5-0.3-2.5-1.4-2.3-2.6 0.2-1.2 1.5-1.9 3-1.7z"/><path class="p" d="m663.1 87.9c-1.2 3.2-9.1 3.2-17.6-0.2-8.5-3.3-14.4-8.6-13.1-11.8 1.2-3.3 9.1-3.2 17.6 0.1 8.5 3.3 14.4 8.6 13.1 11.9z"/><path class="r" d="m652.2 88.7c0 0-5-1.7-9.4-4.2-4.1-2.5-1.8-8.8 2.9-8.1 1.4 0.2 2.9 0.6 4.5 1.2 0.4 0.1 5.2 2.3 5.5 2.4l0.9-0.6-12.1-5.1-9.8-0.3-2.6 2.5c0 0 1.4 3.4 1.6 3.7 0.2 0.3 4.5 3.8 4.5 3.8l7.2 3.8 3 0.9z"/><path class="u" d="m655.1 79.4c0 0 8.5 8.2-2.2 9.3l2.6 1.6 5.2-0.5 3.4-2.2c0 0-1.3-4.4-1.7-4.8-0.5-0.4-6.5-3.9-6.5-3.9z"/><path fill-rule="evenodd" class="q" d="m562.1 52.5c-9.6 0-17.2-4.2-17.2-9.5 0-5.4 7.6-9.5 17.2-9.5 9.6 0 17.1 4.1 17.1 9.5 0 5.3-7.5 9.5-17.1 9.5zm0-16.1c-8.4 0-14.2 3.5-14.2 6.6 0 3.1 5.8 6.5 14.2 6.5 8.4 0 14.2-3.4 14.2-6.5 0-3.1-5.9-6.6-14.2-6.6z"/><path fill-rule="evenodd" class="q" d="m657.1 91.6q-0.1 0-0.1 0c-3.5-0.1-7.8-1-12-2.6-8.1-3.2-15.6-9-13.9-13.5 1.8-4.6 11.3-3.8 19.4-0.7 4.2 1.7 8 3.9 10.6 6.2 2.9 2.7 4 5.3 3.2 7.4-0.8 2-3.3 3.2-7.2 3.2zm-18.8-16.8c-2.7 0-4.4 0.6-4.8 1.6-0.7 1.9 3.6 6.7 12.4 10.2 4 1.5 7.9 2.4 11.1 2.4 2.6 0 4.5-0.6 4.9-1.6 0.4-1-0.6-2.7-2.5-4.5-2.4-2.1-5.9-4.1-9.9-5.7-4.5-1.7-8.3-2.4-11.2-2.4z"/><path class="q" d="m618.6 99.3q2.3-1.1 4.5-2.1 2.2-1 4.3-2.2c1.3-0.7 2.7-1.6 4-2.4 1.3-0.9 2.5-1.9 3.9-2.9q-0.2 0.6-0.5 1.1-0.2 0.3-0.3 0.6l-0.4 0.5c-0.3 0.4-0.5 0.7-0.8 1q-0.4 0.5-0.9 1c-1.2 1.1-2.6 2.2-4.1 2.9q-2.2 1.2-4.7 1.9-1.2 0.3-2.5 0.4c-0.8 0.1-1.6 0.2-2.5 0.2z"/><path class="q" d="m612.8 78.9c1.8 0.2 3.5 0.2 5.3 0.1q2.6-0.1 5.2-0.7c1.7-0.4 3.3-1 4.8-1.7l1.2-0.6c0.3-0.2 0.7-0.4 1-0.6l0.5-0.4q0.3-0.1 0.5-0.4l1-0.7 1.6 2-1.2 0.7q-0.3 0.2-0.6 0.4l-0.7 0.3c-0.4 0.2-0.8 0.4-1.2 0.6l-1.3 0.5c-1.8 0.6-3.6 1-5.4 1.2q-2.7 0.2-5.4 0.1c-1.8-0.1-3.6-0.4-5.3-0.8z"/><path class="q" d="m661.1 106.3q-1.7-3.8-3.1-7.7-0.7-2-1.3-4.1c-0.3-1.3-0.6-2.7-0.6-4.3l2.5 0.2c-0.2 1.1-0.1 2.5 0 3.8q0.2 2 0.6 4 0.8 4.1 1.9 8.1z"/><path class="f" d="m611.1 405.7c-5 5-11.4 6.7-14.4 3.8-2.9-3-1.2-9.4 3.8-14.4 5-5 11.4-6.7 14.4-3.8 2.9 3 1.2 9.4-3.8 14.4z"/><path class="q" d="m664.4 85.8c0.1 0.8 0.3 1.8 0.5 2.7q0.3 1.3 0.7 2.6 0.3 1.4 0.9 2.7c0.3 0.8 0.7 1.6 1.3 2.4-0.7-0.6-1.3-1.4-1.9-2.1q-0.8-1.2-1.5-2.5-0.7-1.2-1.3-2.5c-0.4-0.9-0.8-1.7-1.2-2.7z"/><path class="q" d="m636.7 83.9q-0.6 0.6-1.4 1.2-0.7 0.5-1.5 1-0.8 0.4-1.6 0.8-0.9 0.4-1.8 0.7c0.2-0.6 0.6-1.1 0.9-1.7q0.6-0.7 1.1-1.4 0.6-0.8 1.3-1.4 0.6-0.7 1.4-1.2z"/><path class="q" d="m643.8 87.5c-0.4 0.6-0.9 1.2-1.4 1.8q-0.8 0.8-1.6 1.6c-1 1-2.1 2.1-3.3 3 0.5-1.4 1.2-2.7 1.9-4.1q0.5-1 1-2 0.6-0.9 1.3-1.8z"/><path fill-rule="evenodd" class="s" d="m534.2 418.4c-2.5 0-5-0.1-7.6-0.5-10.3-1.3-20.4-5.3-19.8-10.3 0.3-1.6 1.7-3.8 7.4-4.9 4-0.7 9.1-0.7 14.4 0 10.4 1.3 20.5 5.3 19.8 10.3-0.5 3.8-6.8 5.4-14.2 5.4zm-13.1-13.4c-2.3 0-4.5 0.1-6.4 0.5-3.8 0.7-5 1.9-5.1 2.5-0.2 1.9 6.6 5.7 17.4 7.1 10.8 1.5 18.4-0.5 18.6-2.5 0.3-1.9-6.5-5.7-17.3-7.1-2.5-0.4-5-0.5-7.2-0.5z"/><path class="s" d="m557 409.3c-2.6 0.9-5.1 2.3-7.4 3.9-1 0.7-1.9 1.6-3.1 2.1l-1.2-1.7c0.8-0.7 1.7-1.3 2.6-1.8 2.9-1.3 6-2.4 9.1-2.5z"/><path class="s" d="m546.8 402.5c-1.5 1.7-2.5 3.7-3.1 5.9l-2.7-1c1.1-2.4 3.3-4.5 5.8-4.9z"/><path class="v" d="m479.3 362.1c-0.5 0.8-1.9 0.8-3-0.1-1.2-0.8-1.7-2-1.1-2.8 0.5-0.8 1.9-0.7 3 0.1 1.2 0.8 1.7 2.1 1.1 2.8z"/><path class="s" d="m504.1 400.4c2.6 1.7 4.4 4.3 5.5 7.1l-2.7 0.6c-0.1-2.8-1.1-5.5-2.8-7.7z"/><path class="s" d="m651.3 412.8c-0.9-1.8-2.1-3.6-3.9-4.7 1.1 0.1 2.1 0.6 3.1 1.2 1 0.6 1.9 1.3 2.8 2.1z"/><path class="w" d="m492.6 353.5c-0.9 1.3-3.2 1.3-5.2-0.1-1.9-1.4-2.7-3.6-1.8-4.9 0.9-1.3 3.2-1.2 5.1 0.2 2 1.4 2.8 3.5 1.9 4.8z"/><path class="v" d="m449.5 350.3c-1.5 2-5.2 1.6-8.2-0.7-3-2.3-4.3-5.8-2.8-7.7 1.5-1.9 5.1-1.6 8.2 0.7 3 2.4 4.2 5.8 2.8 7.7z"/><path class="x" d="m497 354.8c0 0 16.8 2.2 27.8 1.1 0 0-12.6 4.5-27.8-1.1z"/><path class="f" d="m681.7 359.5c-3.9 3-8.8 3.1-10.8 0.4-2.1-2.8-0.5-7.4 3.5-10.3 3.9-2.9 8.8-3.1 10.8-0.3 2 2.7 0.5 7.3-3.5 10.2z"/><path class="q" d="m513.7 75.3c-2.4 2.9-6.1 3.8-8.2 2-2.1-1.8-1.8-5.6 0.7-8.5 2.5-2.9 6.2-3.7 8.3-1.9 2 1.8 1.7 5.5-0.8 8.4z"/><path class="y" d="m498.3 62.7c-3.7 1-7.3-0.3-8-2.9-0.7-2.7 1.7-5.6 5.3-6.6 3.7-1 7.3 0.3 8 2.9 0.7 2.7-1.7 5.6-5.3 6.6z"/><path class="y" d="m516.5 42.6c-3.1 1.2-6.3 0.6-7-1.2-0.7-1.9 1.3-4.4 4.5-5.6 3.1-1.2 6.3-0.7 7 1.2 0.7 1.8-1.3 4.3-4.5 5.6z"/><path class="h" d="m475.1 66.6c0.4 1.3-1.5 2.8-4.1 3.5-2.6 0.7-5 0.2-5.3-1.1-0.3-1.3 1.5-2.8 4.1-3.5 2.7-0.6 5-0.1 5.3 1.1z"/><path class="h" d="m493 75.9c0.7 1.1-0.9 3.2-3.5 4.7-2.7 1.6-5.3 1.9-6 0.8-0.6-1.2 1-3.3 3.6-4.8 2.6-1.5 5.3-1.9 5.9-0.7z"/><path class="h" d="m704.5 135.9c-0.7 1.1-3.3 0.8-5.9-0.8-2.6-1.6-4.2-3.7-3.5-4.8 0.7-1.1 3.3-0.8 5.9 0.8 2.6 1.5 4.2 3.7 3.5 4.8z"/><path class="h" d="m466 127.5c0.9 1.5-1.3 4.5-4.9 6.6-3.6 2.1-7.3 2.5-8.2 1-0.9-1.6 1.3-4.5 5-6.6 3.6-2.1 7.2-2.6 8.1-1z"/><path class="h" d="m528.1 71.6c-0.4 1.5-1.7 2.4-2.9 2.1-1.3-0.3-2-1.8-1.6-3.3 0.4-1.4 1.7-2.4 3-2 1.2 0.3 1.9 1.8 1.5 3.2z"/><path class="h" d="m484.1 117c-0.4 1.5-1.7 2.4-3 2.1-1.2-0.4-1.9-1.8-1.5-3.3 0.3-1.5 1.7-2.4 2.9-2.1 1.3 0.4 2 1.8 1.6 3.3z"/><path class="h" d="m480.7 52.9c0.4 0.8-0.2 2-1.4 2.5-1.2 0.5-2.4 0.3-2.8-0.6-0.4-0.8 0.2-2 1.4-2.5 1.1-0.5 2.4-0.3 2.8 0.6z"/><path class="z" d="m529.5 84.4c-1.3 1.3-3.4 1.3-4.7 0-1.3-1.3-1.3-3.4 0-4.7 1.3-1.3 3.4-1.3 4.7 0 1.3 1.3 1.3 3.4 0 4.7z"/><path class="A" d="m690.2 144.5c-1.3 1.3-3.4 1.3-4.7 0-1.3-1.3-1.3-3.4 0-4.7 1.3-1.3 3.4-1.3 4.7 0 1.3 1.3 1.3 3.4 0 4.7z"/><path class="B" d="m602 44.5c-0.3 1.7-3.4 2.4-6.8 1.7-3.4-0.7-5.8-2.6-5.5-4.2 0.3-1.7 3.4-2.5 6.8-1.8 3.4 0.7 5.8 2.6 5.5 4.3z"/><path class="C" d="m632.1 52.1c-0.7 1.6-3.5 1.9-6.5 0.8-2.9-1.2-4.7-3.4-4.1-5 0.6-1.6 3.5-2 6.4-0.8 2.9 1.1 4.8 3.3 4.2 5z"/><path class="D" d="m653 58.3c-0.8 1.3-3.3 1.4-5.8 0.1-2.5-1.3-3.9-3.5-3.2-4.8 0.7-1.4 3.3-1.4 5.8-0.1 2.4 1.3 3.9 3.4 3.2 4.8z"/><path class="E" d="m622.3 55.5c-0.8 1.1-2.7 1-4.2-0.2-1.6-1.1-2.1-2.9-1.3-4 0.8-1.1 2.7-1 4.2 0.2 1.6 1.1 2.2 2.9 1.3 4z"/><path class="F" d="m640.1 57.7c-0.8 1.1-2.7 1-4.3-0.2-1.5-1.1-2.1-2.9-1.3-4 0.9-1.1 2.8-1 4.3 0.2 1.5 1.1 2.1 2.9 1.3 4z"/><path class="k" d="m555.3 23.2c-38.1-0.1-73.8 10.4-104.3 28.6-3.5 2.1-9.7 0.1-13.1-1.3-1.2-0.5-2.4-1.2-3.5-1.9q-1.3-1-2.5-1.4-1.6-0.7-3.3-0.8l8 7 6.9 1.3c4.2 0.8 8.5-0.1 12-2.4 13.1-8.3 50.9-28.4 113.1-28.7q-6.6-0.4-13.3-0.4z"/><path class="G" d="m392.7 347.9c-4-8.1-8.9-13.8-10.6-15.6q5 8.1 10.6 15.6z"/><path fill-rule="evenodd" class="G" d="m380 325.3c0 0.9-0.6 1.8-0.6 1.8 2.2 1.3 3.7 4.7 3.7 4.7-1.3-1.5-2.3-2.4-3-2.8q-0.2-0.3-0.4-0.6l-0.5 0.1q0-0.1 0-0.1l-0.4 0.1-1.2 0.3c-2 0.4-4.1-0.5-5.1-2.3l-3.5-5.6c-1.3-2-1.8-4.3-1.6-6.6q0.1-0.4 0.1-0.9c0.3-5.5-0.8-10.9-1.2-12.7q-1.8-4.5-3.4-9.2c7.1 12.9 4.7 21.3 4.7 21.5l0.2-0.8c0.3-1 0.9-2 1.8-2.7l1-1c-0.5 1.5 0.2 2.1 0.6 2.4q0.2 0.1 0.4 0.3c0.3 0.5 1.2 0.5 1.2 0.5 1.3-0.5 1.3-1.7 1.3-1.7 0.4 1.3-0.1 2.5-0.1 2.5l2.6 2.5c1.5 0.1 2.1-1 2.1-1 0 1.3-0.8 3.2-0.8 3.2l1.4 2.5c0.6 1.3 1 2.7 1.1 4.1 1 1 3.6 2.2 3.6 2.2-1.1 0.1-4-0.8-4-0.7zm-12.4-12.3q0 0 0 0zm3.9 0.1c-0.6-0.5-1.3-0.9-2.1-1l-1 3.2q-0.2 0.5 0 1.1l0.1 0.8q0.4 1.4 1.1 2.7l3.4 5.8c0.4 0.7 1.1 1.3 1.9 1.5 0.7 0.2 1.6 0.4 2.9 0.3 0 0 3.6-5.9-6.3-14.4z"/><g style="opacity:.8"><path class="H" d="m442.8 195.4h30.8v28.9h-30.8z"/><path class="H" d="m478.8 149.8h-81.6v122.4h81.6v-30.6h-43.3v-17.3h2.8v-28.9h-2.8v-15h43.3z"/></g><path class="I" d="m572.6 226.2c17.5-5.7 26.5-19.4 26.5-35.6 0-22.6-15.8-40.3-46.7-40.3h-57.2v122.9h38.5v-44.1h0.3v-25.7h-0.3v-20.8h15.3c7.3 0 11.1 4.2 11.1 10.4 0 7.3-3.8 10.5-11.1 10.5h-10.5v26.2l22.8 43.6h38z"/><path class="J" d="m683 383.7l-3.4 3.4c-3.3 6.1-1.3 11-0.2 13 0.3 0.6 0.6 1 0.6 1q0.1 0 0.2 0.2 0 0 0 0 0.1 0.1 0.2 0.2 0 0 0 0 0.1 0.1 0.1 0.3 0 0 0.1 0 0 0.1 0 0.2 0 0.1 0 0.1 0.1 0.1 0.1 0.2 0 0.1 0 0.1 0 0.1 0 0.2 0 0.1 0 0.1 0 0.1-0.1 0.3 0 0 0 0 0 0.2 0 0.3-0.1 0-0.1 0.1 0 0.1-0.1 0.3 0 0.1-0.1 0.3 0 0 0 0.1-0.2 0.3-0.4 0.7 0 0-0.1 0-0.2 0.4-0.5 0.8 0 0 0 0-0.1 0.2-0.3 0.4-0.1 0.2-0.3 0.4c-3.1 3.7-8.8 7.8-8.8 7.8q-0.5 0.3-0.9 0.6-0.1 0-0.2 0.1-0.4 0.3-0.8 0.5-0.3 0.2-0.6 0.3-0.3 0.3-0.7 0.5-0.3 0.1-0.5 0.3-0.4 0.2-0.8 0.4-0.2 0.1-0.4 0.3-0.4 0.2-0.8 0.3-0.2 0.2-0.4 0.3-0.4 0.1-0.7 0.3-0.2 0.1-0.4 0.2-0.4 0.2-0.7 0.3-0.2 0.1-0.4 0.2-0.3 0.1-0.6 0.2-0.2 0.1-0.4 0.2-0.3 0.1-0.6 0.2-0.2 0-0.4 0.1-0.3 0.1-0.6 0.2-0.2 0.1-0.3 0.1-0.3 0.1-0.6 0.2-0.1 0-0.3 0-0.3 0.1-0.5 0.2-0.2 0-0.3 0-0.3 0.1-0.5 0.1-0.2 0.1-0.3 0.1-0.2 0-0.5 0.1-0.1 0-0.2 0-0.3 0-0.5 0-0.1 0-0.2 0.1-0.2 0-0.5 0-0.1 0-0.2 0-0.2 0-0.4 0-0.1 0-0.2 0-0.2 0-0.4 0-0.1 0-0.2 0-0.1 0-0.3 0-0.1-0.1-0.2-0.1-0.1 0-0.3 0-0.1 0-0.2 0-0.1-0.1-0.3-0.1 0 0-0.1 0-0.1 0-0.3-0.1 0 0-0.1 0-0.1 0-0.3-0.1 0 0-0.1 0-0.1-0.1-0.2-0.1 0 0-0.1 0-0.1-0.1-0.2-0.1 0 0-0.1 0-0.1-0.1-0.1-0.1-0.1-0.1-0.1-0.1-0.1 0-0.2 0 0-0.1 0-0.1-0.1 0-0.2-0.1 0 0 0 0-0.1 0-0.1 0 0-0.1-0.1-0.1 0 0 0 0 0 0-0.1 0 0-0.1 0-0.1 0 0 0 0-0.1 0-0.1 0-0.3-0.4-0.6-0.7-0.1-0.1-0.2-0.1-0.2-0.3-0.4-0.5-0.1-0.1-0.2-0.2-0.2-0.2-0.3-0.3-0.1-0.1-0.2-0.2-0.2-0.2-0.4-0.4-0.1-0.1-0.2-0.1-0.3-0.3-0.5-0.5-0.1 0-0.1-0.1-0.2-0.2-0.5-0.4 0 0-0.1-0.1-0.2-0.2-0.4-0.3-0.1-0.1-0.2-0.1-0.1-0.2-0.3-0.3-0.1-0.1-0.2-0.1-0.1-0.2-0.3-0.3-0.1 0-0.2-0.1-0.2-0.1-0.4-0.3-0.1 0-0.1 0-0.2-0.2-0.4-0.3-0.1 0-0.1-0.1-0.2-0.1-0.3-0.1-0.1-0.1-0.2-0.1-0.1-0.1-0.3-0.2 0 0-0.1-0.1-0.2-0.1-0.3-0.1-0.1-0.1-0.1-0.1-0.2-0.1-0.4-0.2-0.1 0-0.1 0-0.2-0.1-0.3-0.1-0.1-0.1-0.2-0.1-0.1-0.1-0.2-0.1-0.1 0-0.1-0.1-0.1 0-0.2 0-0.1 0-0.2-0.1-0.1 0-0.1 0-0.1-0.1-0.2-0.1 0 0-0.1 0-0.2-0.1-0.4-0.1-0.1 0-0.1 0-0.1 0-0.2-0.1 0 0-0.1 0-0.1 0-0.2 0 0 0-0.1 0-0.1 0-0.2 0 0 0 0 0-0.5-0.1-0.8-0.1-0.7 0.1-1.2 0.2-0.4 0.2-0.8 0.4 0 0 0 0c-24.6 10.6-51.7 16.4-80.2 16.4-13.5 0-26.7-1.3-39.5-3.8 11 7.7 22.6 14.6 34.7 20.5 13.2 6.3 27.4 10.6 41.8 12.9 16.6 2.6 34 2 49.6-4.5 15.7-6.5 27.9-19 35.9-33.9 0.9-1.5 2.1-4.1 2.9-5.7 0.5-1 1.5-3.4 2-4.4 0.9-2.3 2.1-5.1 2.9-7.5l0.5-1.5 0.3-0.8 0.2-0.7 1-3.1c0.5-1.7 1.3-4.5 1.8-6.3 0.4-1.6 1.1-4.5 1.5-6.3 0.5-2 1.2-5.4 1.7-8.4q-4.5 4.2-9.4 8.1z"/><path class="J" d="m352.7 194.3q0.4 1.3 0.8 2.7 0.1-1.4 0.3-2.7 0.3-2.2 0.6-4.5 0.5-3.5 1.1-6.9 0.2-0.9 0.4-1.9c1.3-6.8 3.1-13.3 5.3-19.7q0.6-1.5 1.1-3 0.3-0.8 0.6-1.5 1.2-3.1 2.6-6.2c4.1-9.3 9.4-18.6 16.1-28.2 2.8-2.7 5-5.8 6.6-9.3q0.1-0.3 0.2-0.6 0.2-0.3 0.3-0.6 0.6-1.3 1.1-2.7 0.1-0.4 0.3-0.7c1.9-5.1 3.7-11.3 3.7-17q0-1.7-0.2-3.2l-0.9-5.3q0 0 0-0.1-0.1-0.4-0.1-0.8c-0.4-3 0.1-6.2 1.5-8.9q0-0.1 0-0.1 0 0 0 0 0.1-0.2 0.2-0.4 0.1-0.2 0.2-0.3 0.1-0.3 0.2-0.5 0.1-0.1 0.2-0.3 0.1-0.2 0.2-0.4 0.1-0.2 0.2-0.3 0.1-0.3 0.2-0.5 0.1-0.1 0.2-0.3 0.1-0.2 0.3-0.4 0.1-0.2 0.2-0.4 0.1-0.2 0.3-0.4 0.1-0.2 0.2-0.4 0.2-0.3 0.3-0.5 0.1-0.2 0.3-0.4 0.1-0.2 0.3-0.4 0.1-0.2 0.2-0.4 0.2-0.3 0.4-0.5 0.1-0.2 0.3-0.4 0.1-0.3 0.3-0.5 0.2-0.2 0.3-0.4 0.2-0.3 0.4-0.5 0.1-0.2 0.3-0.4 0.2-0.2 0.4-0.5 0.2-0.2 0.4-0.4 0.2-0.2 0.3-0.5 0.2-0.2 0.4-0.4 0.2-0.3 0.4-0.5 0.2-0.2 0.4-0.4 0.3-0.3 0.5-0.5 0.2-0.2 0.4-0.5 0.2-0.2 0.5-0.4 0.2-0.3 0.4-0.5 0.2-0.2 0.5-0.4 0.2-0.3 0.4-0.5 0.3-0.2 0.6-0.5 0.2-0.2 0.4-0.4 0.3-0.2 0.5-0.4 0.3-0.3 0.6-0.5 0.2-0.2 0.5-0.4 0.3-0.2 0.5-0.5 0.3-0.2 0.6-0.4 0.3-0.2 0.6-0.4 0.2-0.2 0.5-0.5 0.3-0.2 0.6-0.4 0.3-0.2 0.6-0.4 0.3-0.2 0.6-0.4 0.3-0.2 0.7-0.4 0.3-0.2 0.6-0.4 0.3-0.3 0.6-0.4 0.4-0.2 0.7-0.4 0.3-0.2 0.7-0.4 0.3-0.2 0.7-0.4 0.3-0.2 0.7-0.4 0.3-0.2 0.7-0.4 0.3-0.1 0.7-0.3 0.4-0.2 0.8-0.4 0.3-0.2 0.7-0.3 0.4-0.2 0.8-0.4 0.4-0.1 0.7-0.3 0.4-0.2 0.9-0.3 0.4-0.2 0.8-0.3 0.4-0.2 0.8-0.3 0.4-0.2 0.8-0.3 0.4-0.2 0.8-0.3 0.1 0 0.1 0 0 0 0 0 0.1 0 0.3-0.1 0.2-0.1 0.5-0.1 0.2-0.1 0.5-0.1 0.2-0.1 0.3-0.1 0.3 0 0.6-0.1 0.1 0 0.2 0 0.3 0 0.6 0 0.1 0 0.3 0 0.3-0.1 0.5 0 0.1 0 0.1 0 0.2 0 0.3 0 0 0 0.1 0 0.1 0 0.2 0 0.1 0 0.1 0 0.1 0 0.1 0 0.2 0.1 0.4 0.1 0.1 0 0.3 0 0 0.1 0.1 0.1 0 0 0 0 0.2 0 0.4 0.1 0.2 0 0.4 0.1 0 0 0 0 0.3 0.1 0.5 0.2 0.2 0 0.3 0.1 0 0 0 0 0 0 0.1 0 0.1 0 0.2 0.1 0.2 0.1 0.3 0.1 0.2 0.1 0.4 0.2 0.1 0.1 0.3 0.2 0.2 0.1 0.3 0.2 0.2 0 0.3 0.1 0.2 0.1 0.4 0.3 0.2 0.1 0.3 0.2 0.7 0.4 1.5 0.9 0.1 0 0.2 0.1 0.2 0.1 0.4 0.2 0.2 0.1 0.5 0.3 0.1 0 0.2 0.1 0.4 0.1 0.7 0.3 0.3 0.1 0.7 0.3c1.8 0.7 4.3 1.5 6.7 1.8q0.7 0.1 1.3 0.1 0.2 0 0.5 0 0.6 0 1.2 0 0.3 0 0.5-0.1 0.8-0.1 1.5-0.4 0.4-0.1 0.7-0.3 7.2-4.3 14.7-8 7.5-3.7 15.3-6.8 5.7-2.2 11.5-4.1c-20.8-12.3-46.4-20.1-70.5-17.9-13.4 1.2-26.4 5.5-37.9 12.4-22.3 14.9-35 40.8-39.9 66.5-3.1 16.8-3.3 34.2-1.5 51.1q0.3 2.8 0.6 5.5c1.8 13.3 4.5 26.4 8.1 39.3q0.7 2.2 1.3 4.4z"/><path class="J" d="m351.4 189.9h-10.8q0.6 2.2 1.2 4.4h10.9q-0.6-2.2-1.2-4.4z"/><path class="J" d="m758.1 224.8q0-1.3 0-2.5c-2-106.6-86.8-193.6-192.7-198.9q-0.2 0-0.4 0-1.3-0.1-2.7-0.1-0.4 0-0.8-0.1-1.1 0-2.3 0-0.4 0-0.8 0-1.6-0.1-3.1-0.1-7.2 0-14.2 0.5-1.7 0.1-3.5 0.3c-11.6 1-23 3-34 5.8q-1.7 0.5-3.3 0.9-0.3 0.1-0.7 0.2c-1-0.7-2.2-1.5-2.2-1.5-3.4-2.4-7.1-4.5-10.8-6.5-29.9-16.1-66.8-21.4-98.3-6.7-2.7 1.2-5.4 2.6-8 4.1-3.5 2-6.6 4.4-9.7 7-20.8 18.1-32.7 44.7-36.8 71.6-2.2 13.4-2.5 27.1-1.6 40.6q0.3 5.6 1 11.2h10.2q-0.4-2.8-0.7-5.5c-1.7-17-1.6-34.3 1.6-51.1 4.9-25.8 17.6-51.7 39.8-66.5 11.5-7 24.5-11.3 37.9-12.5 24.2-2.1 49.7 5.7 70.6 18q-5.9 1.8-11.5 4.1-7.9 3.1-15.4 6.7-7.5 3.7-14.7 8-0.3 0.2-0.7 0.4-0.7 0.3-1.5 0.4-0.2 0-0.4 0-0.7 0.1-1.3 0.1-0.2 0-0.5 0-0.6 0-1.2-0.1c-2.4-0.3-4.9-1.1-6.8-1.9q-0.3-0.1-0.7-0.3-0.3-0.1-0.6-0.3-0.2 0-0.3-0.1-0.2-0.1-0.5-0.2-0.2-0.1-0.4-0.2-0.1-0.1-0.2-0.2-0.7-0.4-1.5-0.9-0.1-0.1-0.3-0.2-0.1-0.1-0.3-0.2-0.2-0.1-0.3-0.2-0.2-0.1-0.4-0.2-0.1-0.1-0.3-0.1-0.1-0.1-0.3-0.2-0.2-0.1-0.3-0.1-0.2-0.1-0.3-0.2 0 0 0 0 0 0-0.1 0-0.1 0-0.2-0.1-0.3-0.1-0.5-0.2-0.1 0-0.1 0-0.2 0-0.4-0.1-0.1 0-0.3-0.1-0.1 0-0.1 0 0 0-0.1 0-0.2 0-0.3-0.1-0.2 0-0.3 0-0.1 0-0.1 0-0.1 0-0.2 0-0.1-0.1-0.2-0.1 0 0.1-0.1 0-0.1 0-0.2 0-0.1 0-0.1 0-0.3 0-0.6 0-0.1 0-0.3 0-0.3 0-0.5 0-0.2 0.1-0.3 0.1-0.3 0-0.6 0.1-0.1 0-0.3 0-0.2 0.1-0.5 0.1-0.2 0.1-0.5 0.2-0.1 0-0.3 0 0 0.1 0 0.1 0 0 0 0-0.4 0.1-0.8 0.2-0.5 0.2-0.9 0.3-0.4 0.2-0.8 0.3-0.4 0.2-0.8 0.3-0.4 0.2-0.8 0.4-0.4 0.1-0.8 0.3-0.4 0.2-0.8 0.3-0.3 0.2-0.7 0.4-0.4 0.2-0.8 0.3-0.3 0.2-0.7 0.4-0.4 0.2-0.7 0.4-0.4 0.2-0.7 0.3-0.3 0.2-0.7 0.4-0.3 0.2-0.7 0.4-0.3 0.2-0.6 0.4-0.3 0.2-0.7 0.4-0.3 0.2-0.6 0.4-0.3 0.2-0.6 0.4-0.3 0.2-0.6 0.4-0.3 0.3-0.6 0.5-0.4 0.2-0.6 0.4-0.3 0.2-0.6 0.4-0.3 0.2-0.6 0.5-0.3 0.2-0.5 0.4-0.3 0.2-0.6 0.4-0.2 0.2-0.5 0.5-0.3 0.2-0.5 0.4-0.3 0.2-0.5 0.5-0.3 0.2-0.5 0.4-0.3 0.2-0.5 0.5-0.3 0.2-0.5 0.4-0.2 0.2-0.5 0.5-0.2 0.2-0.4 0.4-0.2 0.3-0.5 0.5-0.2 0.2-0.4 0.4-0.2 0.3-0.4 0.5-0.2 0.2-0.4 0.5-0.2 0.2-0.4 0.4-0.2 0.3-0.4 0.5-0.2 0.2-0.4 0.4-0.2 0.3-0.4 0.5-0.2 0.2-0.3 0.4-0.2 0.2-0.4 0.5-0.2 0.2-0.3 0.4-0.2 0.2-0.4 0.5-0.1 0.2-0.3 0.4-0.2 0.2-0.3 0.4-0.2 0.3-0.3 0.5-0.2 0.2-0.3 0.4-0.1 0.2-0.3 0.5-0.1 0.2-0.3 0.4-0.1 0.2-0.2 0.4-0.2 0.2-0.3 0.4-0.1 0.2-0.3 0.4-0.1 0.2-0.2 0.4-0.1 0.2-0.2 0.4-0.2 0.2-0.2 0.4-0.2 0.2-0.3 0.4-0.1 0.2-0.1 0.3-0.2 0.2-0.3 0.5-0.1 0.1-0.1 0.3-0.2 0.2-0.3 0.4-0.1 0.2-0.1 0.3-0.1 0.2-0.2 0.4 0 0 0 0-0.1 0.1-0.1 0.1c-1.3 2.8-1.8 5.9-1.5 9q0.1 0.4 0.1 0.8 0 0 0 0.1l1 5.2q0.1 1.6 0.1 3.2c0 5.7-1.8 11.9-3.7 17q-0.1 0.4-0.3 0.7-0.5 1.4-1 2.7-0.2 0.3-0.3 0.6-0.2 0.3-0.3 0.6c-1.5 3.5-3.8 6.7-6.6 9.3-6.6 9.7-11.9 18.9-16.1 28.2h22.5v30.5h-32.1q-0.2 0.9-0.4 1.9v6.9h-1.1q-0.3 2.2-0.6 4.5h1.7v68.8q0.3 1.3 0.5 2.5 0 0.1 0.1 0.3 0.2 1.4 0.5 2.8 0.7 2.9 1.4 5.8 2.7 11 6.5 21.5 0 0.1 0.1 0.1 0.3 1 0.7 2 0.1 0.2 0.1 0.3 0.5 1.2 0.9 2.3 0 0.2 0.1 0.3 0 0.1 0 0.1 0 0.2 0.1 0.4 0 0 0 0 0 0.3 0.1 0.5 0 0 0 0.1 0.1 0.2 0.1 0.5 0 0.1 0 0.1 0.1 0.3 0.1 0.6 0 0 0 0c0.5 2.6 0.9 6.3 0.7 10q0 0.5-0.1 0.9 0 0.1 0 0.1c-0.2 2.3 0.4 4.6 1.6 6.5q0 0.1 0 0.1l1.9 3 1.6 2.6q0.1 0.2 0.2 0.3 0 0 0 0.1 0.2 0.3 0.5 0.5 0.2 0.2 0.4 0.4 0.3 0.2 0.6 0.4c0.7 0.4 1.5 0.6 2.3 0.6q0 0 0 0 0.2 0 0.4 0 0.2 0 0.4 0 0.2 0 0.4-0.1l1.6-0.3 0.5-0.1q0.1 0.3 0.3 0.6 1 1.7 2.1 3.4 2.4 4 5 7.9 0.1 0 0.1 0 1.3 1.9 2.6 3.7 0 0.1 0.1 0.2 1.3 1.9 2.7 3.7 2.2 2.9 4.5 5.8 2.1 2.5 4.2 5 2.1 2.5 4.3 4.8 0 0.1 0.1 0.1 2.1 2.4 4.4 4.7 0 0 0.1 0 2.2 2.3 4.5 4.5 0.1 0.1 0.1 0.1 2.3 2.2 4.7 4.3 0 0.1 0.1 0.1 2.4 2.1 4.8 4.2 0.1 0.1 0.2 0.1 2.3 2 4.8 4 0.1 0.1 0.3 0.2 2.4 1.9 4.9 3.7 0.1 0.1 0.3 0.3 2.4 1.8 4.9 3.5 0.2 0.1 0.4 0.3 2.5 1.7 5 3.3 0.3 0.2 0.5 0.3 2.5 1.6 5.1 3.1 0.2 0.2 0.5 0.4 2.5 1.5 5.1 2.9 0.3 0.2 0.6 0.4 2.6 1.4 5.2 2.7 0.3 0.2 0.7 0.4 2.5 1.3 5.1 2.5 0.4 0.2 0.8 0.4 2.6 1.2 5.2 2.3 0.4 0.2 0.8 0.4 1.8 0.8 3.5 1.5 0.1 0 0.1 0 0.8 0.4 1.7 0.7 0.4 0.2 0.9 0.3 1.6 0.7 3.3 1.3 0.1 0.1 0.3 0.1 0.8 0.3 1.6 0.6 0.5 0.2 1 0.4 0.8 0.3 1.7 0.6c16.7 13.6 34.5 25.4 53.3 34.6 11.2 5.6 23.1 9.6 35.2 12.5 32.1 7.5 67.6 4.5 91.2-20.9 5.8-6.2 10.7-13.4 14.6-21 0.8-1.7 2.1-4.5 2.9-6.2l1.2-3.1 0.7-1.5c0.9-2.6 2-5.4 2.7-8l0.5-1.6 0.3-0.8 0.2-0.8 0.9-3.3q0.2-0.8 0.4-1.6l0.4-1.6 0.8-3.3c0.4-1.7 0.9-4.9 1.3-6.5 0.6-3.2 1.6-10 2-13.2 0 0-0.4-0.1-0.9-0.1q2.4-2.4 4.7-4.8 0.8-0.9 1.7-1.8 0.3-0.3 0.7-0.7 0.5-0.6 1-1.1 0.4-0.5 0.8-0.9 0.5-0.5 1-1 0.4-0.5 0.8-0.9 0.4-0.6 0.9-1.1 0.4-0.4 0.8-0.9 0.4-0.5 0.9-1.1 0.3-0.4 0.7-0.8 0.5-0.7 1-1.3 0.3-0.3 0.7-0.7 0.7-1 1.5-1.9 0.3-0.4 0.6-0.8 0.5-0.6 1-1.3 0.3-0.4 0.7-0.9 0.4-0.5 0.9-1.1 0.3-0.5 0.7-0.9 0.4-0.6 0.8-1.2 0.3-0.4 0.7-0.9 0.4-0.6 0.8-1.2 0.4-0.4 0.7-0.9 0.5-0.7 0.9-1.3 0.3-0.4 0.6-0.8 0.7-1 1.4-2 0.2-0.5 0.5-0.9 0.5-0.6 0.9-1.3 0.3-0.5 0.6-0.9 0.4-0.6 0.8-1.3 0.3-0.4 0.6-0.9 0.4-0.6 0.8-1.3 0.3-0.4 0.6-0.9 0.4-0.7 0.8-1.3 0.2-0.5 0.5-1 0.4-0.7 0.9-1.4 0.2-0.4 0.4-0.8 0.7-1.1 1.3-2.2 0.2-0.4 0.4-0.8 0.4-0.7 0.8-1.4 0.3-0.5 0.5-1 0.4-0.6 0.8-1.3 0.2-0.5 0.5-1 0.3-0.7 0.7-1.3 0.2-0.5 0.5-1 0.3-0.7 0.7-1.4 0.2-0.5 0.4-1 0.4-0.7 0.8-1.5 0.2-0.4 0.4-0.8 0.5-1.2 1-2.3 0.2-0.4 0.3-0.7 0.4-0.9 0.8-1.7 0.2-0.5 0.4-1 0.3-0.7 0.6-1.4 0.2-0.5 0.5-1 0.2-0.7 0.5-1.4 0.3-0.5 0.5-1 0.3-0.8 0.5-1.5 0.2-0.5 0.4-1 0.3-0.8 0.7-1.6 0.1-0.4 0.3-0.8 0.4-1.2 0.9-2.4 0.1-0.3 0.2-0.7 0.3-0.9 0.6-1.8 0.2-0.5 0.3-1 0.3-0.7 0.6-1.5 0.1-0.5 0.3-1 0.2-0.8 0.5-1.6 0.1-0.5 0.3-1 0.2-0.8 0.5-1.5 0.1-0.5 0.3-1 0.2-0.9 0.5-1.8 0.1-0.4 0.2-0.8 0.3-1.2 0.7-2.5 0-0.2 0.1-0.5 0.3-1 0.6-2.1 0.1-0.4 0.2-0.9 0.2-0.8 0.4-1.6 0.1-0.6 0.2-1.1 0.2-0.8 0.4-1.6 0.1-0.5 0.2-1 0.2-0.8 0.4-1.6 0.1-0.5 0.2-1 0.2-0.9 0.4-1.8 0-0.4 0.1-0.9 0.3-1.3 0.5-2.6 0-0.2 0.1-0.3 0.2-1.2 0.4-2.3 0-0.5 0.1-0.9 0.1-0.9 0.3-1.8 0.1-0.5 0.1-1 0.2-0.8 0.3-1.7 0-0.5 0.1-1 0.1-0.9 0.2-1.7 0.1-0.5 0.2-1 0.1-1 0.2-1.9 0-0.4 0.1-0.8 0.1-1.4 0.2-2.7 0-0.1 0-0.2 0.2-1.3 0.2-2.5 0.1-0.5 0.1-0.9 0.1-1 0.1-1.9 0.1-0.5 0.1-1 0.1-0.9 0.1-1.7 0-0.6 0.1-1.1 0-0.9 0-1.7 0-0.6 0.1-1.1 0-0.9 0-1.9 0-0.4 0-0.9 0.1-1.3 0.1-2.7c-0.1-0.8-0.1-1.7-0.1-2.5zm-65.7 150.8c-0.5 3-1.2 6.4-1.7 8.4-0.4 1.8-1.1 4.7-1.5 6.3-0.5 1.8-1.3 4.6-1.8 6.3l-0.9 3.1-0.3 0.7-0.3 0.8-0.5 1.5c-0.8 2.4-2 5.2-2.9 7.5-0.4 1-1.5 3.4-2 4.4-0.8 1.6-2 4.2-2.9 5.7-8 14.9-20.2 27.4-35.9 33.9-15.6 6.5-33 7.1-49.6 4.5-14.4-2.3-28.6-6.6-41.8-12.9-12.1-5.9-23.7-12.8-34.7-20.5 12.8 2.5 26 3.8 39.5 3.8 28.5 0 55.6-5.8 80.2-16.4q0 0 0 0 0.4-0.2 0.9-0.4 0.4-0.1 1.1-0.2 0.4 0 0.8 0.1 0 0 0 0 0.1 0 0.2 0 0.1 0 0.1 0 0.1 0 0.2 0 0.1 0 0.1 0 0.1 0.1 0.2 0.1 0 0 0.1 0 0.2 0.1 0.5 0.1 0 0 0 0 0.1 0.1 0.2 0.1 0.1 0 0.1 0 0.1 0.1 0.2 0.1 0.1 0 0.2 0 0.1 0.1 0.1 0.1 0.2 0 0.3 0.1 0 0 0.1 0.1 0.1 0 0.3 0.1 0 0 0.1 0 0.2 0.1 0.4 0.2 0 0 0.1 0.1 0.2 0 0.3 0.1 0.1 0.1 0.1 0.1 0.2 0.1 0.3 0.2 0.1 0 0.2 0.1 0.1 0 0.3 0.1 0 0.1 0.1 0.1 0.2 0.1 0.4 0.3 0 0 0.1 0 0.2 0.2 0.4 0.3 0.1 0.1 0.2 0.1 0.2 0.2 0.3 0.3 0.1 0.1 0.2 0.1 0.2 0.1 0.3 0.3 0.1 0 0.2 0.1 0.2 0.1 0.4 0.3 0.1 0.1 0.1 0.1 0.3 0.2 0.5 0.4 0.1 0.1 0.1 0.1 0.2 0.2 0.5 0.5 0.1 0 0.2 0.1 0.2 0.2 0.4 0.4 0.1 0.1 0.2 0.2 0.2 0.2 0.3 0.3 0.1 0.1 0.2 0.2 0.2 0.2 0.4 0.5 0.1 0.1 0.2 0.1 0.3 0.4 0.6 0.7 0 0 0.1 0 0 0 0 0.1 0.1 0 0.1 0 0 0 0.1 0 0 0.1 0 0.1 0 0 0.1 0 0 0 0 0.1 0.1 0 0.2 0 0 0 0 0.1 0.1 0 0.2 0 0 0.1 0.1 0.1 0 0 0.1 0.1 0.1 0 0.1 0 0.1 0 0.2 0.1 0.1 0 0.1 0 0.1 0.1 0.2 0.1 0.1 0 0.2 0 0.1 0.1 0.2 0.1 0.1 0 0.1 0 0.2 0.1 0.3 0.1 0.1 0 0.2 0 0.1 0.1 0.2 0.1 0.1 0 0.2 0 0.2 0 0.3 0 0.1 0.1 0.2 0.1 0.2 0 0.4 0 0.1 0 0.1 0 0.2 0 0.4 0 0.1 0 0.2 0 0.2 0 0.4 0 0.1 0 0.3 0 0.2 0 0.4 0 0.1 0 0.2-0.1 0.2 0 0.5 0 0.1 0 0.2 0 0.3-0.1 0.5-0.1 0.1 0 0.3-0.1 0.2 0 0.5-0.1 0.1 0 0.3 0 0.2-0.1 0.5-0.1 0.2-0.1 0.3-0.1 0.3-0.1 0.6-0.2 0.2 0 0.3-0.1 0.3-0.1 0.6-0.2 0.2 0 0.4-0.1 0.3-0.1 0.6-0.2 0.2-0.1 0.4-0.2 0.3-0.1 0.6-0.2 0.2-0.1 0.4-0.2 0.3-0.1 0.7-0.3 0.2-0.1 0.4-0.2 0.3-0.2 0.7-0.3 0.2-0.1 0.5-0.3 0.3-0.1 0.7-0.3 0.2-0.2 0.4-0.3 0.4-0.2 0.8-0.4 0.2-0.1 0.5-0.3 0.4-0.2 0.8-0.5 0.2-0.1 0.5-0.3 0.4-0.2 0.8-0.5 0.1-0.1 0.2-0.1 0.4-0.3 0.9-0.6c0 0 5.7-4.1 8.8-7.8q0.2-0.2 0.3-0.4 0.2-0.2 0.3-0.4 0.1 0 0.1 0 0.2-0.4 0.5-0.8 0 0 0 0 0.2-0.4 0.4-0.7 0-0.1 0-0.1 0.1-0.1 0.1-0.3 0.1-0.2 0.1-0.3 0.1-0.1 0.1-0.1 0-0.1 0-0.3 0 0 0 0 0.1-0.2 0.1-0.3 0 0 0-0.1 0-0.1 0-0.2 0 0 0-0.1 0-0.1-0.1-0.2 0 0 0-0.1 0-0.1 0-0.2 0 0-0.1 0 0-0.2-0.1-0.3 0 0 0 0-0.1-0.1-0.2-0.2 0 0 0 0-0.1-0.1-0.2-0.2c0 0-0.3-0.4-0.6-1-1.1-2-3.1-6.9 0.2-13l3.5-3.4q4.8-3.9 9.4-8.1-0.1 0-0.1 0z"/><path class="I" d="m343.4 150.6h-10.2c1.5 13.2 4.1 26.3 7.4 39.2h10.8c-3.5-12.9-6.3-26-8-39.2z"/><path class="I" d="m726.4 227.1c17.5-5.7 26.5-19.5 26.5-35.6 0-22.6-15.8-40.3-46.7-40.3h-57.3v122.9h38.6v-44.1h0.3v-25.7h-0.3v-20.8h15.3c7.3 0 11.1 4.2 11.1 10.4 0 7.3-3.8 10.5-11.1 10.5h-10.5v26.2l22.8 43.5h38z"/><g style="opacity:.8"><path class="H" d="m313.2 194.3h38.7v79.3h-38.7z"/><path class="H" d="m280.8 150.2v30.7h32.4v8.9h38.7v-8.9h32.8v-30.7z"/></g><path class="I" d="m96 148.5c-31.7 0-57.7 24.4-59.3 59.4h35.9c1.2-15.8 11.3-28.2 23.6-28.2 13.2 0 23.8 14 23.8 31.3 0 17.2-10.6 31.2-23.8 31.2-12.7 0-23.1-13.2-23.7-29.8h-35.8c0.5 36.2 27 61.8 59.3 61.8 32.5 0 59-26.1 59-63 0-36.8-26.2-62.7-59-62.7z"/><path class="I" d="m766.5 151.2h38.6v27.3h-38.6z"/><path class="I" d="m765.3 182.9h38.6v91.3h-38.6z"/><g style="opacity:.8"><path class="H" d="m899 182.9v31.2l-40.8-62.9h-38.6v123h38.6v-61.8l40.8 61.8h38.6v-91.3z"/><path class="H" d="m899 151.2h38.6v27.3h-38.6z"/></g><path class="H" d="m1003 203.2v27.3h30.8c-5.7 7.6-12.9 10.7-21.6 10.7-9 0-15.8-2.2-20.3-6.6l-22.1 29.4c10 7.1 23 11.1 38.3 11.1 31.8 0 49.2-18.6 57.7-33.4v-38.5h-62.8z"/><path class="H" d="m989 231.1c-3-4.7-4.4-10.8-4.4-18.5 0-16.4 8.4-27 23.3-27 8 0 13.6 3 16.5 7.7l35.2-16.9v-0.1c-8.8-16.4-26.9-26.3-51.9-26.3-38.5 0-62.2 25.9-62.2 62.6 0 20.4 7.4 37.5 20.7 48.6z"/><g style="opacity:.8"><path class="H" d="m215.3 237.8c-10-0.9-13.7-8.3-13.7-18.2v-69h-38.2v69c0 35.6 21.9 54.1 51.9 54.6z"/><path class="H" d="m233.6 150.6v69c0 9.7-4 17.1-13.8 18.2v36.3c29.1-1.3 52-19.7 52-54.5v-69z"/></g><path class="K" d="m568.9 226.2c17.5-5.7 26.6-19.4 26.6-35.6 0-22.6-15.8-40.3-46.7-40.3h-57.3v122.9h38.5v-44.1h0.4v-25.7h-0.4v-20.8h15.3c7.3 0 11.1 4.2 11.1 10.4 0 7.3-3.8 10.5-11.1 10.5h-10.5v26.2l22.9 43.6h38z"/><path class="K" d="m437.7 196.2h30.8v28.9h-30.8z"/><path class="K" d="m473.7 150.6h-81.6v122.4h81.6v-30.6h-43.2v-17.3h2.7v-28.9h-2.7v-15h43.2z"/><path class="K" d="m309.5 194.3h38.4v78.7h-38.4z"/><path class="K" d="m277.4 150.6v30.4h32.1v8.9h38.4v-8.9h32.5v-30.4z"/><path class="K" d="m210.9 237.8c-10.1-0.9-13.7-8.3-13.7-18.2v-69h-38.2v69c0 35.6 21.9 54.1 51.9 54.6z"/><path class="K" d="m229.1 150.6v69c0 9.7-4 17.1-13.7 18.2v36.3c29-1.3 52-19.7 52-54.5v-69z"/><path class="K" d="m89.8 148.5c-31.7 0-57.7 24.4-59.2 59.4h35.8c1.2-15.8 11.3-28.2 23.7-28.2 13.1 0 23.7 14 23.7 31.3 0 17.2-10.6 31.2-23.7 31.2-12.8 0-23.2-13.2-23.8-29.8h-35.8c0.5 36.2 27 61.8 59.3 61.8 32.5 0 59-26.1 59-63 0-36.8-26.2-62.7-59-62.7z"/><path class="L" d="m1007.5 203.2v27.3h30.7c-5.7 7.6-12.8 10.7-21.5 10.7-9.1 0-15.8-2.2-20.4-6.6l-22.1 29.4c10.1 7.1 23 11.1 38.3 11.1 31.8 0 49.2-18.6 57.7-33.4v-38.5h-62.7z"/><path class="L" d="m993.4 231.1c-2.9-4.7-4.4-10.8-4.4-18.5 0-16.4 8.4-27 23.3-27 8 0 13.6 3 16.5 7.7l35.2-16.9v-0.1c-8.8-16.4-26.9-26.3-51.9-26.3-38.5 0-62.2 25.9-62.2 62.6 0 20.4 7.5 37.5 20.7 48.6z"/><path class="L" d="m771 151.2h38.5v27.3h-38.5z"/><path class="L" d="m769.7 182.9h38.6v91.3h-38.6z"/><path class="L" d="m730 227.1c17.6-5.7 26.6-19.5 26.6-35.6 0-22.6-15.8-40.3-46.7-40.3h-57.3v122.9h38.5v-44.1h0.4v-25.7h-0.4v-20.8h15.3c7.3 0 11.1 4.2 11.1 10.4 0 7.3-3.8 10.5-11.1 10.5h-10.4v26.2l22.8 43.5h38z"/><path class="M" d="m778.7 151.2h38.5v27.3h-38.5z"/><path fill-rule="evenodd" class="b" d="m817.7 178.9h-39.4v-28.1h39.4zm-38.6-0.8h37.7v-26.4h-37.7z"/><path class="M" d="m778.7 182.9h38.5v91.3h-38.5z"/><path fill-rule="evenodd" class="b" d="m817.7 274.6h-39.4v-92.1h39.4zm-38.6-0.8h37.7v-90.5h-37.7z"/><path class="L" d="m903.4 182.9v31.2l-40.8-62.9h-38.6v123h38.6v-61.8l40.8 61.8h38.6v-91.3z"/><path class="L" d="m903.4 151.2h38.6v27.3h-38.6z"/><path class="M" d="m915.2 182.9v31.2l-40.8-62.9h-38.6v123h38.6v-61.8l40.8 61.8h38.6v-91.3z"/><path fill-rule="evenodd" class="b" d="m954.2 274.6h-39.2l-40.2-60.9v60.9h-39.4v-123.8h39.2l40.2 61.9v-30.2h39.4zm-38.7-0.8h37.9v-90.5h-37.8v32.2l-41.4-63.9h-38v122.2h37.8v-62.8z"/><path class="M" d="m915.2 151.2h38.6v27.3h-38.6z"/><path fill-rule="evenodd" class="b" d="m954.2 178.9h-39.4v-28.1h39.4zm-38.5-0.8h37.7v-26.4h-37.7z"/><path class="M" d="m1021.7 203.2v27.3h30.8c-5.8 7.6-12.9 10.7-21.6 10.7-9.1 0-15.8-2.2-20.3-6.6l-22.2 29.4c10.1 7.1 23.1 11.1 38.3 11.1 31.8 0 49.2-18.6 57.7-33.4v-38.5h-62.7z"/><path fill-rule="evenodd" class="b" d="m1026.7 275.5c-14.8 0-28.1-3.9-38.5-11.2l-0.4-0.3 22.7-30 0.3 0.3c4.5 4.4 11.1 6.5 20.1 6.5 8.8 0 15.4-3.2 20.7-10h-30.3v-28h63.5v39 0.1c-5.3 9.1-12.3 16.8-20.3 22.4-10.7 7.4-23.4 11.2-37.8 11.2zm-37.7-11.6c10.2 7 23.2 10.8 37.7 10.8 33.2 0 50.1-20.7 57.3-33.1v-38h-61.9v26.4h31.2l-0.5 0.7c-5.6 7.4-12.7 10.9-21.9 10.9-9 0-15.7-2.1-20.3-6.4z"/><path class="M" d="m1007.6 231.1c-2.9-4.7-4.3-10.8-4.3-18.5 0-16.4 8.3-27 23.3-27 8 0 13.5 3 16.5 7.7l35.2-16.9v-0.1c-8.8-16.4-27-26.3-51.9-26.3-38.6 0-62.2 25.9-62.2 62.6 0 20.4 7.4 37.5 20.7 48.6z"/><path fill-rule="evenodd" class="b" d="m984.9 261.8l-0.3-0.3c-13.4-11.2-20.8-28.6-20.8-48.9 0-18.4 5.8-34 16.7-45.3 11.2-11.6 27.1-17.7 45.9-17.7 12.3 0 23.1 2.4 32.2 7.1 8.8 4.5 15.5 11.1 20 19.4l0.1 0.1-0.1 0.5-0.2 0.1-35.5 17-0.2-0.3c-3-4.8-8.8-7.5-16.2-7.5-14.3 0-22.8 10-22.8 26.6 0 7.6 1.4 13.8 4.3 18.2l0.1 0.3zm41.5-111.4c-37.5 0-61.8 24.4-61.8 62.1 0 19.9 7.2 37 20.2 48.1l22.4-29.6c-2.9-4.6-4.3-10.7-4.3-18.5 0-17.1 8.8-27.3 23.7-27.3 7.5 0 13.4 2.7 16.6 7.5l34.6-16.6c-9.1-16.6-27.4-25.7-51.4-25.7z"/><path class="L" d="m993.3 184.7l-5.5-4.8c3.5-6.9 10.7-10 10.7-10l5.2 4.8c-4.6 3-10.4 10-10.4 10z"/><path class="M" d="m737.3 227.1c17.5-5.7 26.5-19.5 26.5-35.6 0-22.6-15.8-40.3-46.7-40.3h-57.3v122.9h38.6v-44.1h0.3v-25.7h-0.3v-20.8h15.3c7.2 0 11.1 4.2 11.1 10.4 0 7.3-3.9 10.5-11.1 10.5h-10.5v26.2l22.8 43.5h38z"/><path fill-rule="evenodd" class="b" d="m764.7 274.5h-39l-22.9-43.8v-26.7h10.8c7.3 0 10.7-3.2 10.7-10.1 0-6.3-3.9-10-10.7-10h-14.8v20.1h0.3v26.5h-0.3v44.1h-39.4v-123.8h57.7c14.7 0 26.9 4.1 35.2 11.8 7.8 7.2 11.9 17.2 11.9 28.9 0 8.2-2.3 15.8-6.8 21.9-4.6 6.4-11.2 11.1-19.6 13.9zm-38.4-0.8h37l-26.6-46.9 0.5-0.1c16.4-5.4 26.3-18.5 26.3-35.2 0-24.6-17.8-39.9-46.3-39.9h-56.9v122.1h37.7v-44.1h0.3v-24.9h-0.3v-21.6h15.7c7.2 0 11.5 4.1 11.5 10.8 0 7.3-3.8 10.8-11.5 10.8h-10.1v25.7z"/><path class="L" d="m668.3 161.3h9.1v12.2h-9.1z"/><path class="L" d="m728.5 267l-5.8-10.9h9.6l5.9 10.9z"/><path class="L" d="m788.6 251.6h18.8v9.5h-18.8z"/><path class="L" d="m844.8 160.4h18.8v9.5h-18.8z"/><path class="L" d="m916.7 243.8h11.1v17.1h-11.1z"/><path class="L" d="m1065 223.8h8.2v14.4h-8.2z"/><path class="N" d="m565 226.2c17.5-5.7 26.5-19.4 26.5-35.6 0-22.6-15.8-40.3-46.7-40.3h-57.2v122.9h38.5v-44.1h0.3v-25.7h-0.3v-20.8h15.3c7.3 0 11.1 4.2 11.1 10.4 0 7.3-3.8 10.5-11.1 10.5h-10.5v26.2l22.8 43.6h38z"/><path fill-rule="evenodd" class="b" d="m592.4 273.6h-38.9l-23-43.9v-26.7h10.9c7.3 0 10.7-3.1 10.7-10 0-6.3-3.9-10-10.7-10h-14.9v20h0.3v26.5h-0.3v44.1h-39.3v-123.7h57.6c14.8 0 26.9 4.1 35.3 11.8 7.7 7.2 11.8 17.2 11.8 28.9 0 8.2-2.3 15.8-6.7 21.9-4.6 6.4-11.2 11.1-19.6 13.9zm-38.5-0.8h37.1l-26.6-46.9 0.4-0.1c16.5-5.4 26.3-18.5 26.3-35.2 0-24.6-17.7-39.9-46.3-39.9h-56.9v122.1h37.8v-44.1h0.3v-24.9h-0.3v-21.6h15.6c7.3 0 11.6 4.1 11.6 10.8 0 7.3-3.8 10.8-11.6 10.8h-10v25.7z"/><path class="O" d="m496.8 160.3l9-0.1v12.2h-9z"/><path class="O" d="m557 265.9l-5.9-10.8h9.7l5.8 10.8z"/><path class="N" d="m432.4 196.2h30.8v28.9h-30.8z"/><path fill-rule="evenodd" class="b" d="m463.6 225.5h-31.6v-29.7h31.6zm-30.8-0.8h30v-28.1h-30z"/><path class="N" d="m468.4 150.6h-81.6v122.4h81.6v-30.6h-43.2v-17.3h2.7v-28.9h-2.7v-15h43.2z"/><path fill-rule="evenodd" class="b" d="m468.8 273.4h-82.4v-123.2h82.4v31.4h-43.2v14.2h2.7v29.7h-2.7v16.5h43.2zm-81.6-0.8h80.8v-29.8h-43.3v-18.1h2.8v-28.1h-2.8v-15.8h43.3v-29.8h-80.8z"/><path class="O" d="m397.7 243.5h9.5v14.2h-9.5z"/><path class="O" d="m437.6 159.3h11.9v6.5h-11.9z"/><path class="N" d="m199.5 237.8c-10.1-0.9-13.7-8.3-13.7-18.2v-69h-38.2v69c0 35.6 21.9 54.1 51.9 54.6z"/><path fill-rule="evenodd" class="b" d="m199.9 274.6h-0.4c-15.4-0.3-28.3-5.2-37.5-14.2-9.7-9.6-14.8-23.8-14.8-40.9v-69.3h39v69.3c0 11.1 4.5 17.1 13.4 17.9h0.3zm-51.9-123.6v68.6c0 33.3 19.1 53.5 51.1 54.2v-35.6c-9-0.9-13.7-7.4-13.7-18.6v-68.6z"/><path class="N" d="m217.8 150.6v69c0 9.7-4 17.1-13.8 18.2v36.3c29-1.3 52-19.7 52-54.5v-69z"/><path fill-rule="evenodd" class="b" d="m203.6 274.5v-37.1h0.4c11-1.2 13.4-10.4 13.4-17.8v-69.4h39v69.4c0 16.5-5.3 30.4-15.3 40.1-9.2 9-22.1 14.1-37.1 14.8zm0.8-36.4v35.6c31.6-1.6 51.2-22.3 51.2-54.2v-68.5h-37.4v68.5c0 10.9-4.9 17.5-13.8 18.6z"/><path class="N" d="m301.9 194.3h38.4v78.7h-38.4z"/><path fill-rule="evenodd" class="b" d="m340.6 273.4h-39.1v-79.5h39.1zm-38.3-0.8h37.5v-77.8h-37.5z"/><path class="N" d="m269.7 150.6v30.4h32.2v8.9h38.4v-8.9h32.5v-30.4z"/><path fill-rule="evenodd" class="b" d="m340.6 190.3h-39.1v-8.9h-32.2v-31.2h103.9v31.2h-32.5c0 0 0 8.9-0.1 8.9zm-38.3-0.9h37.5v-8.8h32.5v-29.6h-102.2v29.6h32.2c0 0 0 8.8 0 8.8z"/><path class="N" d="m75.3 148.5c-31.7 0-57.7 24.4-59.3 59.4h35.9c1.2-15.8 11.3-28.2 23.6-28.2 13.2 0 23.8 14 23.8 31.3 0 17.2-10.6 31.2-23.8 31.2-12.7 0-23.1-13.2-23.7-29.8h-35.8c0.5 36.2 27 61.8 59.3 61.8 32.5 0 59-26.1 59-63 0-36.8-26.2-62.7-59-62.7z"/><path fill-rule="evenodd" class="b" d="m75.3 274.6c-33.5 0-59.2-26.8-59.7-62.2v-0.4h36.6v0.4c0.6 16.5 10.8 29.4 23.3 29.4 12.9 0 23.4-13.8 23.4-30.8 0-17-10.5-30.9-23.4-30.9-5.8 0-11.4 2.9-15.7 8-4.3 5.2-6.9 12.2-7.5 19.8v0.4h-36.7v-0.4c0.8-16.9 7.3-32.2 18.5-43.1 10.9-10.8 25.6-16.7 41.2-16.7 16.2 0 31.1 6.3 42.1 17.7 11.1 11.6 17.3 27.8 17.3 45.5 0 17.6-6.2 33.8-17.4 45.5-11 11.5-26 17.8-42 17.8zm-58.9-61.8c0.7 34.8 25.9 61 58.9 61 33.4 0 58.6-26.9 58.6-62.5 0-35.6-25.2-62.4-58.6-62.4-32.4 0-57.1 24.6-58.8 58.6h35c1.4-16.1 11.6-28.2 24.1-28.2 13.3 0 24.1 14.2 24.1 31.7 0 17.4-10.8 31.6-24.1 31.6-12.9 0-23.5-13.1-24.2-29.8z"/><path class="O" d="m316 207.8h10.5v18.2h-10.5z"/><path class="O" d="m153.7 195.1h12.2v18.8h-12.2z"/><path class="O" d="m230.5 160.2h13.6v8.7h-13.6z"/><path class="O" d="m40.7 185.9l-5.5-4.8c3.5-6.9 10.7-9.9 10.7-9.9l5.2 4.7c-4.6 3-10.4 10-10.4 10zm71.7 58.5l-10.8-5.5c2.1-2.5 6.8-13.1 6.8-13.1l11 3.9c-1.1 9.6-7 14.7-7 14.7z"/><path class="P" d="m691.7 384.2c-0.4 1.7-1.1 4.7-1.5 6.4l-0.2 0.5c-0.4 1.7-1.2 4.2-1.6 5.8l-1.2 3.8-0.9 2.3c-0.6 1.9-1.4 4-2.2 6q-0.4 0.8-0.7 1.6v0.1c-0.2 0.4-0.6 1.2-0.9 2-0.4 0.9-0.8 1.8-1.1 2.4l-0.4 0.8c-0.8 1.6-1.8 3.6-2.6 4.9-8.5 15.9-21.4 28.1-36.3 34.3-14.3 6-31.2 7.5-50.1 4.6-14.7-2.4-28.9-6.7-42.1-13-30.4-14.8-60-37.4-88-67.2-37.1-39.8-68.8-87.1-94.2-140.6-0.4-1-1-2.2-1.3-2.9-13.6-33.3-21.7-63-24.6-90.8-2-18.4-1.4-35.7 1.5-51.4 2.6-13.6 7.3-26.6 13.5-37.6 7.1-12.4 16.1-22.4 26.8-29.5 11.7-7 25-11.4 38.3-12.6 22.7-2 48.9 4.8 72.1 18.6q1-0.3 2-0.7 1.2-0.4 2.4-0.8c-0.8-0.5-1.5-1-1.5-1.1-3.2-2.2-6.7-4.3-10.8-6.4-32.4-17.5-68.8-20-97.4-6.7-2.4 1.2-5.1 2.5-7.9 4.1-2.9 1.7-6 3.9-9.5 6.9-19.1 16.6-32.1 41.8-36.6 71-1.9 12.4-2.5 25.9-1.5 40.3 2 29.8 9.8 61.5 23.9 96.9l1.3 3.3q0 0.1 0 0.2l0.1 0.1c0.1 0.3 0.4 0.9 0.6 1.4 0.3 0.5 0.5 1 0.6 1.3 46.6 98.7 113.3 175 183.1 209.4 10.5 5.2 22.2 9.4 34.9 12.3 21.8 5.1 62.6 9.2 90.2-20.5 5.7-6 10.5-13 14.4-20.8 0.7-1.2 1.5-3.1 2.2-4.6q0.4-0.8 0.7-1.5l1.9-4.7q0.3-0.8 0.7-1.8c0.7-2 1.5-4.1 2-6l0.8-2.5 1.1-4q0.1-0.3 0.1-0.6 0.2-0.5 0.3-1l0.4-1.6c0 0 0.4-1.9 0.7-2.8l0.1-0.5c0.2-0.9 0.5-2.3 0.7-3.7 0.2-1.1 0.4-2.1 0.6-2.8 0.4-2.4 1.2-7.6 1.7-11.5q-1.5 1.4-3 2.8c-0.4 2.2-1.1 5.8-1.6 8.1z"/><path class="Q" d="m697.6 370.6c-0.4 3.6-1.5 11.3-2.1 14.4-0.3 1.6-0.9 4.9-1.3 6.5l-0.8 3.3-0.3 1.6q-0.2 0.8-0.5 1.7l-0.9 3.2-0.2 0.8-0.2 0.8-0.6 1.6c-0.7 2.6-1.8 5.5-2.7 8l-0.6 1.5-1.3 3.1c-0.8 1.7-2 4.5-2.9 6.2-3.8 7.6-8.8 14.8-14.6 21-23.6 25.4-59 28.4-91.2 20.9-12.1-2.8-24-6.9-35.1-12.5-82.1-40.4-145.3-128.7-183.6-209.8-0.2-0.6-0.9-2.2-1.2-2.8 0 0-0.1-0.2-0.1-0.2l-0.1-0.2-1.2-3.1c-12.3-31.1-21.7-63.7-24-97.2-0.8-13.5-0.5-27.2 1.6-40.5 4.1-27 16-53.5 36.9-71.7 3-2.6 6.2-5 9.7-7 2.5-1.4 5.3-2.9 8-4.1 31.5-14.7 68.4-9.4 98.2 6.7 3.8 2 7.4 4.1 10.9 6.5 0 0 2.1 1.5 3.2 2.2-2.3 0.7-4.5 1.5-6.8 2.2-21.1-12.7-47.2-20.8-71.8-18.7-13.4 1.3-26.4 5.6-38 12.5-22.2 14.9-34.9 40.7-39.8 66.5-3.2 16.8-3.3 34.1-1.5 51.1 3.3 31.1 12.7 61.5 24.5 90.5 0.3 0.7 0.9 2.1 1.3 2.8 24.2 51 55.5 99.1 94 140.4 25.3 27 54.4 50.8 87.8 67 13.2 6.3 27.4 10.6 41.8 12.9 16.5 2.6 34 2 49.5-4.5 15.7-6.5 28-19 35.9-33.9 0.9-1.5 2.2-4.1 3-5.7 0.5-1 1.5-3.4 2-4.4 0.9-2.3 2.1-5.1 2.8-7.5l0.6-1.5 0.3-0.8 0.2-0.7 1-3.1c0.5-1.7 1.3-4.5 1.7-6.3 0.5-1.6 1.2-4.5 1.6-6.3 0.5-2 1.1-5.4 1.7-8.4q0.2-0.2 0.4-0.4-0.8 0.8-1.6 1.5c-0.4 2.2-1 5.1-1.5 7.1-0.3 1.6-1.1 4.6-1.5 6.3l-0.1 0.4c-0.5 1.7-1.2 4.3-1.7 5.8l-1.2 3.8-0.8 2.3c-0.6 1.9-1.4 3.9-2.2 5.9q-0.3 0.8-0.6 1.6c-0.3 0.4-0.6 1.2-1 2-0.3 0.9-0.8 1.8-1 2.3l-0.4 0.9c-0.8 1.5-1.8 3.5-2.5 4.8-8.4 15.5-21 27.4-35.5 33.4-13.9 5.9-30.4 7.4-49 4.5-14.5-2.3-28.5-6.7-41.5-12.9-30.2-14.7-59.6-37.1-87.5-66.7-36.9-39.6-68.5-86.8-93.8-140.2-0.4-0.9-1-2.1-1.3-2.8-13.5-33.1-21.5-62.6-24.5-90.2-1.9-18.2-1.4-35.3 1.6-50.8 3.2-16.9 12.6-47.9 39.4-65.8 11.4-6.9 24.4-11.2 37.4-12.4 22.4-1.9 48.4 4.8 71.3 18.6l0.4 0.2 0.4-0.1q1.2-0.4 2.4-0.8c1.5-0.5 2.9-1 4.4-1.4l2.1-0.6-1.9-1.2c-1.1-0.6-3.1-2.1-3.2-2.2-3.2-2.2-6.8-4.4-10.9-6.6-15.5-8.3-32.4-13.5-48.9-15-18.1-1.6-35 1.2-50.3 8.3-2.5 1.2-5.2 2.6-8 4.2-3.1 1.7-6.2 4-9.9 7.1-19.4 16.9-32.6 42.5-37.2 72.2-2 12.5-2.5 26.2-1.6 40.7 2.1 30 9.9 61.9 24.1 97.5l1.3 3.3c0 0.1 0 0.2 0.1 0.3 0.1 0.4 0.4 1 0.7 1.5 0.2 0.5 0.4 1 0.5 1.2v0.1c21 44.4 47.1 86.1 75.5 120.4 33.8 40.8 70.3 71.1 108.5 89.9 10.7 5.3 22.6 9.5 35.4 12.5 10.3 2.4 20.5 3.6 30.2 3.6 6.6 0 13-0.5 19-1.7 17.3-3.2 31.7-11 42.9-23 5.8-6.1 10.7-13.3 14.7-21.2 0.7-1.3 1.5-3.1 2.2-4.7q0.4-0.9 0.7-1.5l2-4.8q0.3-0.9 0.6-1.8c0.8-2.1 1.6-4.2 2.1-6.2l0.8-2.4 1.1-4.1q0.1-0.3 0.2-0.5 0.1-0.6 0.3-1.1l0.7-3.3c0.2-0.8 0.3-1.3 0.4-1.6 0.3-1 0.5-2.5 0.8-3.9 0.2-1 0.4-2 0.5-2.7 0.7-3.4 1.9-11.8 2.2-15l0.1-0.7q-0.5 0.6-1.1 1.1z"/><path class="Q" d="m696.6 371.7q-0.1 0.1-0.2 0.2 0.1-0.1 0.2-0.2 0 0 0 0z"/><path class="Q" d="m694.3 373.9q0.4-0.4 0.7-0.7-0.3 0.3-0.7 0.7z"/><path fill-rule="evenodd" class="Q" d="m696.7 371.7q0.5-0.6 1-1.1c-0.4 3.6-1.5 11.3-2.1 14.4-0.4 1.6-0.9 4.8-1.3 6.5l-0.8 3.3-0.4 1.6q-0.2 0.8-0.4 1.6l-0.9 3.3-0.2 0.8-0.3 0.8-0.5 1.6c-0.7 2.6-1.8 5.4-2.7 8l-0.7 1.5-1.3 3.1c-0.7 1.7-2 4.5-2.9 6.2-3.8 7.5-8.7 14.8-14.5 21-23.6 25.4-59.1 28.3-91.2 20.8-12.1-2.8-24-6.8-35.2-12.4-82-40.4-145.2-128.7-183.5-209.8-0.2-0.6-1-2.2-1.2-2.8 0 0-0.1-0.2-0.1-0.2l-0.1-0.2-1.2-3.1c-12.4-31.1-21.7-63.7-24-97.2-0.9-13.5-0.5-27.2 1.6-40.6 4.1-26.9 16-53.5 36.9-71.6 3-2.6 6.2-5 9.6-7 2.6-1.5 5.3-2.9 8-4.1 31.5-14.7 68.4-9.4 98.3 6.7 3.7 2 7.4 4.1 10.9 6.5 0 0 2.1 1.5 3.2 2.2-2.3 0.7-4.6 1.5-6.8 2.2-21.2-12.7-47.2-20.8-71.9-18.7-13.4 1.2-26.4 5.6-37.9 12.5-22.2 14.9-34.9 40.7-39.8 66.5-3.2 16.8-3.3 34.1-1.6 51.1 3.4 31.1 12.7 61.5 24.6 90.5 0.3 0.7 0.9 2.1 1.3 2.8 24.2 51 55.4 99.1 94 140.4 25.3 26.9 54.4 50.8 87.7 67 13.2 6.3 27.4 10.6 41.8 12.9 16.6 2.6 34 2 49.6-4.5 15.7-6.5 27.9-19 35.9-33.9 0.9-1.5 2.1-4.1 2.9-5.7 0.5-1 1.6-3.4 2-4.4 0.9-2.3 2.1-5.1 2.9-7.5l0.8-2.3 0.3-0.7 0.9-3.1c0.5-1.7 1.3-4.5 1.8-6.3 0.4-1.6 1.1-4.5 1.5-6.3 0.5-2 1.2-5.4 1.7-8.4q0.2-0.2 0.5-0.4 0.7-0.7 1.4-1.3 0.4-0.4 0.7-0.7 0.7-0.7 1.4-1.3 0.1-0.1 0.2-0.2 0 0 0.1 0zm-0.4 1.6q-1.4 1.4-2.9 2.8c-0.4 2.2-1.1 5.8-1.7 8.1-0.4 1.7-1.1 4.7-1.5 6.4l-0.2 0.4c-0.4 1.7-1.1 4.3-1.6 5.8l-1.2 3.9-0.9 2.3c-0.6 1.9-1.4 4-2.2 6q-0.4 0.8-0.7 1.6c-0.2 0.5-0.5 1.3-0.9 2-0.4 0.9-0.8 1.9-1.1 2.4l-0.4 0.9c-0.8 1.6-1.8 3.6-2.5 4.9-8.6 15.9-21.5 28.1-36.4 34.3-14.3 6-31.2 7.5-50.1 4.6-14.7-2.4-28.9-6.8-42.1-13-30.4-14.8-60-37.4-88-67.2-37.1-39.8-68.8-87.1-94.2-140.7-0.4-0.9-1-2.2-1.3-2.9-13.6-33.2-21.7-62.9-24.6-90.7-2-18.4-1.4-35.7 1.5-51.4 2.6-13.6 7.3-26.6 13.6-37.6 7-12.5 16-22.4 26.7-29.5 11.7-7.1 25-11.4 38.3-12.6 22.7-2 48.9 4.7 72.1 18.6q1-0.4 2-0.7 1.2-0.4 2.4-0.8c-0.8-0.6-1.5-1.1-1.5-1.1-3.2-2.2-6.7-4.3-10.8-6.5-32.4-17.4-68.8-19.9-97.4-6.6q-3.7 1.7-7.9 4c-2.9 1.7-6 3.9-9.5 7-19.1 16.5-32.1 41.8-36.6 71-1.9 12.4-2.4 25.9-1.5 40.3 2 29.8 9.8 61.5 23.9 96.9l1.3 3.3q0 0.1 0.1 0.2v0.1c0.1 0.3 0.4 0.9 0.6 1.4 0.3 0.5 0.5 1 0.6 1.3 46.6 98.7 113.3 175 183.1 209.4 10.5 5.2 22.2 9.4 34.9 12.3 21.8 5.1 62.6 9.2 90.2-20.6 5.7-6 10.5-13 14.5-20.8 0.6-1.2 1.4-3 2.1-4.5q0.4-0.9 0.7-1.5l1.9-4.7q0.3-0.9 0.7-1.8c0.7-2 1.5-4.1 2-6.1l0.8-2.4 1.1-4q0.1-0.3 0.2-0.6 0.1-0.5 0.2-1l0.4-1.6c0 0 0.5-1.9 0.7-2.8l0.1-0.5c0.2-0.9 0.5-2.3 0.7-3.7 0.2-1.1 0.4-2.1 0.6-2.8 0.4-2.4 1.2-7.7 1.7-11.5z"/><path class="Q" d="m692.9 375.2q0.7-0.7 1.4-1.3-0.7 0.6-1.4 1.3z"/><path class="R" d="m692.9 375.2q0.7-0.7 1.4-1.3-0.7 0.6-1.4 1.3z"/><path class="Q" d="m695 373.2q0.7-0.7 1.4-1.3-0.7 0.6-1.4 1.3z"/><path class="S" d="m695 373.2q0.7-0.7 1.4-1.3-0.7 0.6-1.4 1.3z"/><path class="T" d="m787.4 367.3h-470.2c-1.4 0-2.6-1.2-2.6-2.6v-54.5c0-1.4 1.2-2.5 2.6-2.5h470.2c1.4 0 2.5 1.1 2.5 2.5v54.5c0.1 1.4-1.1 2.6-2.5 2.6z"/><path class="U" d="m369.3 307.5h250.8v10.1h-250.8z"/><path class="U" d="m397 357.2h329.1v10.1h-329.1z"/><path class="U" d="m624.4 317.6h153.7c0.9 0 1.7 0.7 1.7 1.6v6.2h10.2v-16.1c0-1-0.9-1.8-1.9-1.8h-163.7z"/><path class="U" d="m779.8 329.7v25.9c0 0.9-0.8 1.6-1.7 1.6h-47.7v10.1h57.7c1 0 1.9-0.8 1.9-1.8v-35.8z"/><path class="U" d="m324.6 327.7v-8.5c0-0.9 0.7-1.6 1.6-1.6h38.8v-10.1h-48.7c-1 0-1.9 0.8-1.9 1.8v18.4z"/><path class="U" d="m392.7 357.2h-66.5c-0.9 0-1.6-0.7-1.6-1.6v-23.6h-10.2v33.5c0 1 0.9 1.8 1.9 1.8h76.4z"/><path fill-rule="evenodd" class="V" d="m375.3 343.4h-8.3l-1.6 4.4h-5.6l8.6-22.7h5.5l8.7 22.7h-5.8zm-1.6-4.8l-2.5-7.2-2.5 7.2z"/><path fill-rule="evenodd" class="V" d="m402.7 325.1h9.3c6.5 0 10.9 4.4 10.9 11.3 0 7-4.4 11.4-10.9 11.4h-9.3zm9.1 17.5c3.3 0 5.5-2.3 5.5-6.2 0-3.9-2.2-6.2-5.5-6.2h-3.5v12.4h3.5z"/><path class="V" d="m445.9 342.8v5h-15.8l0.1-22.7h15.3v5h-9.9v3.8h8.7v4.8h-8.7v4.1h10.3z"/><path class="V" d="m468.8 342.8v5h-15.7v-22.7h15.4v5h-9.9v3.8h8.7v4.8h-8.7v4.1h10.2z"/><path fill-rule="evenodd" class="V" d="m494.4 333.5c0 5.1-3.4 8.3-8.7 8.3h-3.4v6h-5.5v-22.7h8.9c5.3 0 8.7 3.2 8.7 8.4zm-5.6 0c0-2.1-1.2-3.3-3.4-3.3h-3.1v6.6h3.1c2.3 0 3.4-1.2 3.4-3.3z"/><path class="V" d="m514.1 345.7l1.8-4.7c1.7 1.3 4.2 2.2 6.5 2.2 2.2 0 3.1-0.7 3.1-1.8 0-3.6-11.1-1-11.1-9.4 0-4 2.9-7.3 8.7-7.3 2.5 0 5.2 0.7 7.1 2l-1.7 4.7c-1.9-1.1-3.7-1.7-5.5-1.7-2.3 0-3.1 0.9-3.1 2 0 3.5 11.1 0.9 11.1 9.2 0 4-2.9 7.3-8.7 7.3-3.2 0-6.4-1-8.2-2.5z"/><path fill-rule="evenodd" class="V" d="m556.5 333.5c0 5.1-3.4 8.3-8.7 8.3h-3.4v6h-5.6v-22.7h9c5.3 0 8.7 3.2 8.7 8.4zm-5.6 0c0-2.1-1.2-3.3-3.4-3.3h-3.1v6.6h3.1c2.2 0 3.4-1.2 3.4-3.3z"/><path fill-rule="evenodd" class="V" d="m575.9 343.4h-8.3l-1.5 4.4h-5.7l8.7-22.7h5.5l8.6 22.7h-5.7zm-1.7-4.8l-2.5-7.2-2.5 7.2z"/><path class="V" d="m588.5 336.4c0-6.8 4.5-11.7 10.8-11.7 3.6 0 6.5 1.5 8.4 4.3l-3.6 3.6c-1.2-1.7-2.7-2.6-4.6-2.6-3.2 0-5.4 2.6-5.4 6.4 0 3.9 2.2 6.5 5.4 6.5 1.9 0 3.4-0.9 4.6-2.6l3.6 3.6c-1.9 2.8-4.8 4.3-8.5 4.3-6.2 0-10.7-4.9-10.7-11.7z"/><path class="V" d="m632.2 342.8v5h-15.8v-22.7h15.4v5h-9.9v3.8h8.7v4.8h-8.7v4.1h10.3z"/><path class="V" d="m670.7 347.8v-12l-5.1 9.7h-2.4l-5-9.4v11.7h-5.2v-22.7h4.6l6.9 13.1 6.7-13.1h4.5l0.1 22.7z"/><path class="V" d="m703.4 347.8l-0.1-12-5 9.7h-2.5l-5-9.4v11.7h-5.1v-22.7h4.6l6.8 13.1 6.8-13.1h4.5l0.1 22.7z"/><path fill-rule="evenodd" class="V" d="m716.9 336.4c0-6.7 4.6-11.7 10.9-11.7 6.2 0 10.8 5 10.8 11.8 0 6.7-4.6 11.7-10.8 11.7-6.3 0-10.9-5-10.9-11.7zm16.1 0c0-4-2.3-6.5-5.2-6.5-3 0-5.3 2.5-5.3 6.5 0 3.9 2.3 6.4 5.3 6.4 2.9 0 5.2-2.5 5.2-6.4z"/><path class="k" d="m555.3 23.2c-38.1-0.1-73.8 10.4-104.3 28.6-3.5 2.1-9.7 0.1-13.1-1.3-1.2-0.5-2.4-1.2-3.5-1.9q-1.3-1-2.5-1.4-1.6-0.7-3.3-0.8l8 7 6.9 1.3c4.2 0.8 8.5-0.1 12-2.4 13.1-8.3 50.9-28.4 113.1-28.7q-6.6-0.4-13.3-0.4z"/></svg>