<svg xmlns="http://www.w3.org/2000/svg" xmlns:xlink="http://www.w3.org/1999/xlink" width="40.336" height="6.438" viewBox="0 0 40.336 6.438">
  <defs>
    <clipPath id="clip-path">
      <rect id="Rectángulo_30" data-name="Rectángulo 30" width="40.336" height="6.438" transform="translate(0 0)"/>
    </clipPath>
  </defs>
  <style>.a{fill:#000}</style>
  <g id="Grupo_76" data-name="Grupo 76" transform="translate(0 -0.001)">
    <g id="Enmascarar_grupo_14" data-name="Enmascarar grupo 14" transform="translate(0 0.001)" clip-path="url(#clip-path)">
      <path class="a" id="Trazado_155" data-name="Trazado 155" d="M7514.224,523.95c0-.031,0-.063-.009-.094s0-.052.033-.056.033-.025.044-.046c.031-.056.081-.059.116-.005.018.026.03.053.062.067.01,0,.012.015.014.026.006.036-.085-.006-.043.047s0,.047-.014.07a.037.037,0,0,0,.008.055c.02.013.037.029.059.046a.319.319,0,0,1-.072.028c-.022,0-.052-.02-.061.016s-.073.057-.037.108c.022.031,0,.045-.024.057a.192.192,0,0,0-.1.144.106.106,0,0,1-.022.048.461.461,0,0,0-.078.269,2.7,2.7,0,0,0,.051.734.271.271,0,0,0,.062.13.115.115,0,0,1,0,.177.339.339,0,0,0-.074.171,1.149,1.149,0,0,0-.02.136c0,.021-.01.05,0,.062a.394.394,0,0,1,.059.238.168.168,0,0,0,.132.156c.131.041.163.092.155.228,0,.041.022.085,0,.123s-.09.036-.132.063a.117.117,0,0,1-.084.007.928.928,0,0,0-.4.008.2.2,0,0,1-.053,0c-.167-.008-.333.025-.5.026a.244.244,0,0,1-.171-.072.107.107,0,0,1-.011-.153c.025-.042.044-.078.014-.125-.018-.027,0-.047.024-.06a.243.243,0,0,1,.059-.025.279.279,0,0,0,.207-.262,2.255,2.255,0,0,0,0-.452.251.251,0,0,1,.012-.113.082.082,0,0,0-.08-.115.644.644,0,0,1-.269-.056.467.467,0,0,0-.149,0c-.125-.005-.25-.007-.375-.01a.4.4,0,0,0-.221.1.075.075,0,0,0-.021.087,2.839,2.839,0,0,1,.022.546.723.723,0,0,0,.026.155c.013.046.031.079.088.054.009,0,.029,0,.03,0,.024.07.129.084.124.172a.12.12,0,0,0,.052.116c.078.061.063.141-.029.179a.32.32,0,0,1-.25.016.224.224,0,0,0-.094-.014c-.232,0-.464,0-.7.017a1.251,1.251,0,0,1-.224-.007.115.115,0,0,1-.087-.178.189.189,0,0,0,.037-.106.216.216,0,0,1,.1-.187c.018-.012.031-.029.05-.04a.382.382,0,0,0,.17-.333c.006-.119,0-.238,0-.357a.8.8,0,0,0-.067-.244.245.245,0,0,1,.012-.232.324.324,0,0,0,.043-.162,2.424,2.424,0,0,0-.037-.494.164.164,0,0,0-.141-.149.129.129,0,0,1-.1-.1c-.023-.064-.031-.138-.1-.175-.021-.01-.018-.032-.016-.056.015-.132.071-.176.21-.177.114,0,.227-.014.34-.015.239,0,.479,0,.718,0,.062,0,.121.006.153.072a.1.1,0,0,1,0,.107.186.186,0,0,0-.042.1.161.161,0,0,1-.126.153c-.056.017-.087.069-.144.084-.028.008-.036.043-.042.07a1.241,1.241,0,0,0-.01.449c0,.036.031.053.06.069a.113.113,0,0,0,.073.012,1.429,1.429,0,0,1,.441.04.148.148,0,0,0,.159-.061c.049-.075.1-.086.163-.03a.661.661,0,0,0,.207.1c.033-.023.029-.057.031-.087a1.76,1.76,0,0,0-.016-.421.784.784,0,0,0-.1-.252.165.165,0,0,0-.1-.063c-.034-.013-.055-.033-.048-.071a.145.145,0,0,0-.011-.072.131.131,0,0,1,.153-.179c.06.007.118.024.178.033s.076-.008.085-.075c0-.022-.012-.051.01-.067.064-.047.037-.1,0-.154a.218.218,0,0,1,.2.08c.031-.034.075-.042.11-.064.023.02,0,.047.015.069,0,0,.008.005.016,0,.058-.048.026-.125.062-.18-.032-.038.009-.054.021-.082s0-.077.028-.111c.046,0,.025.032.022.054a.054.054,0,0,1,0,.05.148.148,0,0,0,.038.169c.018.024.042.042.06.067,0,.041.01.081.014.122s.038.047.072.048a.066.066,0,0,0,.021.006.114.114,0,0,0-.022,0" transform="translate(-7474.228 -520.86)"/>
      <path class="a" id="Trazado_156" data-name="Trazado 156" d="M645.032,569.771a.9.9,0,0,0,.2.253c.006,0,.014.009.015.014.023.122.113.217.153.347-.048-.009-.071-.053-.118-.038-.012.073.043.119.079.171a.047.047,0,0,0,.049.015c.112-.029.185.042.259.1a.881.881,0,0,1,.167.192q.195.278.391.555c.02.028.042.054.064.082a.094.094,0,0,0,.046-.1c0-.042-.011-.084-.01-.126a2.833,2.833,0,0,0-.054-.583.188.188,0,0,0-.047-.115.155.155,0,0,1-.045-.135c.005-.115.013-.23.021-.346a.12.12,0,0,0-.1-.128c-.082-.013-.111-.078-.144-.136-.016-.029.008-.06.027-.086a.331.331,0,0,1,.19-.111.162.162,0,0,0,.123-.089c.013-.03.05-.05.072-.077a.1.1,0,0,1,.114-.031,1.429,1.429,0,0,0,.488.048.369.369,0,0,1,.352.266.111.111,0,0,1-.037.121.234.234,0,0,1-.1.063.236.236,0,0,0-.189.227,1.256,1.256,0,0,1-.1.29.608.608,0,0,0-.061.407.472.472,0,0,1-.008.146c-.006.127.014.252.018.378,0,.01,0,.026,0,.031.08.065.028.138.017.21a1,1,0,0,0,.011.326c.02.114.051.226.079.339a.464.464,0,0,0,.119.2c.042.046.088.1.06.159a.181.181,0,0,1-.163.083h-.1a4.2,4.2,0,0,0-.429,0,.248.248,0,0,1-.1-.009c-.155-.048-.164-.05-.195-.213a.906.906,0,0,0-.355-.556c-.014-.011-.034-.02-.04-.034-.077-.171-.231-.29-.313-.457a.236.236,0,0,0-.059-.072.678.678,0,0,1-.134-.15.174.174,0,0,0-.112-.089.078.078,0,0,1-.064-.062.685.685,0,0,0-.149-.247c-.014,0-.021,0-.02.008a1.722,1.722,0,0,1-.045.4.529.529,0,0,0,.031.258.111.111,0,0,1-.026.143.125.125,0,0,0-.043.114.806.806,0,0,0,.054.277.234.234,0,0,1,.024.123.824.824,0,0,0,.023.272c.023.077-.032.141-.045.213,0,.026-.048.04-.081.042a.226.226,0,0,1-.126-.016c-.024-.012-.06-.022-.071.017s-.047.043-.083.042a.515.515,0,0,1-.266-.066.179.179,0,0,0-.07-.018c-.045-.009-.06-.034-.043-.075a.507.507,0,0,1,.043-.073,1.513,1.513,0,0,0,.159-.367.268.268,0,0,0,0-.094,1.129,1.129,0,0,1,.05-.4.737.737,0,0,0,.032-.362c-.033-.173-.058-.346-.1-.517a.646.646,0,0,0-.12-.264c.013-.021.032-.021.049-.025s.045-.015.039-.056a.179.179,0,0,1,.09-.162.067.067,0,0,0-.01-.121.58.58,0,0,0-.125-.029.823.823,0,0,1-.223-.071.125.125,0,0,1-.082-.134.753.753,0,0,1,.044-.2.109.109,0,0,1,.052-.065,2.535,2.535,0,0,0,.389-.246.223.223,0,0,1,.318.058c.036.052.069.107.1.159a.373.373,0,0,0,.161.15c.018.019-.019.04,0,.06" transform="translate(-640.789 -566.497)"/>
      <path class="a" id="Trazado_157" data-name="Trazado 157" d="M5695.9,618.029c0-.016,0-.032,0-.048l.057.005c-.006-.151.093-.223.215-.274a.291.291,0,0,0,.119-.075c.025-.029.08-.035.1-.082a.06.06,0,0,1,.061-.036l.082,0a.2.2,0,0,0,.009-.108c-.02-.2,0-.4-.038-.6a.879.879,0,0,1,.022-.3,1.036,1.036,0,0,0,0-.376.51.51,0,0,1-.007-.136,1.467,1.467,0,0,0-.052-.417c0-.025-.014-.042-.049-.04a.291.291,0,0,1-.083-.018c-.051-.012-.087-.03-.1-.092a.15.15,0,0,0-.085-.115.075.075,0,0,1-.038-.08.173.173,0,0,1,.192-.188c.457-.015.913-.005,1.37-.009a1.072,1.072,0,0,1,.275.035.688.688,0,0,0,.3-.007.7.7,0,0,1,.138-.016c.053,0,.106.011.124.064a.107.107,0,0,1-.046.11.32.32,0,0,0-.1.148c-.033.1-.029.121.048.192.02.018.053.022.061.055-.02.042-.066.013-.1.036-.006.117.075.168.168.207-.007.028-.1.014-.026.07.013.009,0,.023-.018.031a.187.187,0,0,1-.1.021.419.419,0,0,0-.05.006c.017.037,0,.04-.031.03a.353.353,0,0,1-.085-.043.872.872,0,0,1-.092-.088c-.063-.065-.07-.069-.156-.033a.144.144,0,0,1-.124.013.379.379,0,0,0,.052-.037c.023-.022.042-.048.064-.07s-.017-.06-.011-.067c.02-.025.03-.044.01-.073s-.029-.057-.045-.084a.162.162,0,0,0-.072-.061.344.344,0,0,0-.144-.036c-.11,0-.222-.006-.332-.006-.029,0-.082-.019-.066.047,0,0-.009.011-.015.012-.117.034-.137.128-.145.228-.012.152.025.3.028.452a.108.108,0,0,0,.08.1.2.2,0,0,0,.041.014,1.143,1.143,0,0,0,.487-.021c.074-.021.1-.067.091-.145a.4.4,0,0,1-.009-.062c0-.09.045-.123.138-.116.133.01.159.03.149.16-.019.232-.013.463-.015.695a.208.208,0,0,1-.015.082c-.014.033-.032.055-.073.039l-.01,0c-.164-.021-.165-.021-.169-.189a.074.074,0,0,0-.049-.074.174.174,0,0,0-.112-.027,2.127,2.127,0,0,1-.37.031c-.11.009-.125.022-.14.131a2.324,2.324,0,0,0,0,.537,2.11,2.11,0,0,0,.03.24c.008.036.024.05.056.046a2.81,2.81,0,0,1,.326.024c.108,0,.209-.044.316-.048a.087.087,0,0,0,.07-.043c.021-.032.034-.07.057-.1.035-.046-.021-.1,0-.126.054-.054,0-.086-.01-.125a.182.182,0,0,0-.066-.076.133.133,0,0,1,.131.044c.083.066.083.066.176.006a.45.45,0,0,1,.227-.085c.018,0,.036-.005.047.013-.011.024-.035.012-.052.017.019,0,.04-.008.055.011.054.028.127.026.148.1,0,.023-.055,0-.038.044.009,0,.021.008.027.015s0,.027-.015.028a.254.254,0,0,0-.14.046c-.059.045-.063.091-.013.15.011.012.033.015.031.038s-.036.019-.054.027a.089.089,0,0,0-.036.151c.058.05.064.126.117.179s.021.079-.031.1a.265.265,0,0,1-.176.022.466.466,0,0,0-.2-.01,2.07,2.07,0,0,1-.277.012c-.218,0-.434.032-.652.037-.121,0-.242.008-.363,0a.511.511,0,0,0-.26.014.077.077,0,0,1-.05-.006.8.8,0,0,0-.431-.041.135.135,0,0,1-.063,0,.433.433,0,0,0-.2,0" transform="translate(-5667.85 -612.005)"/>
      <path class="a" id="Trazado_158" data-name="Trazado 158" d="M1341.592,633.543c.041.027.1.022.133.062.012.014.026.024.017.044s-.031.009-.044.02-.021.011-.034.011a.068.068,0,0,1,.036.008c.016.006.036.007.046.033a.124.124,0,0,1-.073.023.207.207,0,0,0-.105.048c-.021.019-.023.034.007.045s.04.008.009.028c-.077.05,0,.067.031.1l-.029.016c-.068.039-.081.077-.027.128.071.067.033.16.072.233.009.017-.008.041-.03.05a.316.316,0,0,1-.09.031c-.292.014-.583.033-.876.034-.134,0-.27,0-.405.008a4.231,4.231,0,0,1-.438-.012c-.173,0-.344-.023-.516-.038a.908.908,0,0,0-.223.022c-.034.006-.057,0-.07-.028s-.03-.051-.006-.087a.4.4,0,0,1,.26-.192c.027-.005.047-.043.058-.047.088-.031.112-.158.227-.144.027,0,.033-.022.036-.044a1.145,1.145,0,0,0,.013-.115,1.635,1.635,0,0,0-.03-.41,1.45,1.45,0,0,1,0-.439c0-.028.009-.056.012-.083a.089.089,0,0,0-.03-.093.077.077,0,0,1,0-.128.08.08,0,0,0,.019-.095.27.27,0,0,1,.005-.146.922.922,0,0,0-.04-.425c0-.026-.027-.028-.05-.027a.538.538,0,0,1-.106,0c-.042-.008-.079-.021-.077-.081a.122.122,0,0,0-.081-.125c-.068-.024-.062-.066-.042-.117.005-.013.011-.026.015-.039.029-.083.048-.1.138-.1.353-.027.707-.01,1.06-.008.25,0,.5.009.75.011a1.039,1.039,0,0,0,.234-.014.227.227,0,0,1,.153.036.065.065,0,0,1,.03.1c-.012.021-.02.05-.039.061-.08.045-.091.131-.129.2a.071.071,0,0,0,.032.107c.037.02.07.047.1.07-.005.011-.006.019-.01.023-.025.021-.079-.012-.085.042a.134.134,0,0,0,.052.121c.033.028.081.03.113.071s-.112.006-.029.062c.014.01.006.025-.009.032l-.049.021c-.037.015-.1-.028-.113.04a.167.167,0,0,1-.116-.046c-.045-.039-.086-.083-.129-.125-.065,0-.12.048-.186.048-.025,0-.055,0-.067-.023s.017-.042.035-.055a.216.216,0,0,0,.071-.228c-.012-.085-.085-.124-.168-.141a1.142,1.142,0,0,0-.363-.008.252.252,0,0,0-.214.207,2.475,2.475,0,0,0,.026.484c.007.078.114.139.22.128.089-.009.175-.022.265-.022a.134.134,0,0,0,.146-.146c0-.179.067-.216.234-.134.029,0,.066-.024.068.032a.554.554,0,0,1,.01.094,2.357,2.357,0,0,0,0,.5,1.83,1.83,0,0,0,0,.273c0,.006,0,.017,0,.019a.313.313,0,0,1-.181.05c-.056,0-.061-.051-.067-.093s-.007-.077-.014-.115a.138.138,0,0,0-.146-.126,2.759,2.759,0,0,0-.457.04c-.037.007-.074.02-.083.07a1.946,1.946,0,0,0,.035.834c.006.024.005.051.041.047a1.116,1.116,0,0,1,.261.019,1.55,1.55,0,0,0,.348-.042.19.19,0,0,0,.158-.116c.007-.012.005-.029.013-.039.027-.037-.048-.068-.009-.1s.015-.061,0-.088a.954.954,0,0,0-.061-.1c.057-.017.089.023.125.053.071.059.07.059.145.011a1.111,1.111,0,0,1,.125-.08c.051-.024.105-.06.161-.007a.042.042,0,0,1-.026.011.03.03,0,0,1,.026.009" transform="translate(-1332.37 -628.347)"/>
      <path class="a" id="Trazado_159" data-name="Trazado 159" d="M3735.232,565.444c-.195-.006-.431.01-.667-.012a.155.155,0,0,1-.162-.184c0-.091,0-.183,0-.274a.45.45,0,0,1,.014-.167c.008-.022-.007-.056.017-.068a.369.369,0,0,1,.111-.037.127.127,0,0,1,.126.091c.012.037.022.074.033.111s.035.041.067.035a.14.14,0,0,0,.125-.137c0-.063,0-.127,0-.19,0-.194-.006-.387-.007-.581a.224.224,0,0,0-.069-.181.122.122,0,0,1-.028-.154,1.6,1.6,0,0,0,.064-.623.306.306,0,0,0-.043-.14.158.158,0,0,0-.178-.1,1.161,1.161,0,0,1-.15,0,.345.345,0,0,0-.209.094.086.086,0,0,0-.027.066,1.179,1.179,0,0,0-.021.241c0,.048-.01.086-.059.1s-.075.071-.119.062-.081-.038-.127-.049a.113.113,0,0,1-.083-.132,1.767,1.767,0,0,0-.017-.361.109.109,0,0,1,.009-.051.731.731,0,0,0,.016-.41.308.308,0,0,1,.01-.166.066.066,0,0,1,.081-.052.251.251,0,0,1,.176.09.2.2,0,0,0,.172.088,1.9,1.9,0,0,0,.278,0,2.408,2.408,0,0,1,.417,0,4.679,4.679,0,0,0,.769-.007.413.413,0,0,0,.2-.067c.009-.006.017-.016.027-.017.118-.016.189-.106.278-.167a.146.146,0,0,1,.143-.013.121.121,0,0,1,.07.118c.013.214-.03.425-.028.638,0,.1,0,.2,0,.306a.53.53,0,0,1,0,.095c-.016.083-.053.108-.136.093-.021,0-.04-.014-.061-.016-.122-.01-.146-.027-.169-.143-.012-.062-.016-.125-.025-.188a.224.224,0,0,0-.223-.2.714.714,0,0,0-.2.019.186.186,0,0,0-.152.278.448.448,0,0,1-.005.372.684.684,0,0,0-.03.3c.009.2.006.408.011.612,0,.173.036.34.056.51a.241.241,0,0,0,.019.071.1.1,0,0,0,.1.053c.045,0,.059-.033.065-.07,0-.014.01-.029.007-.041-.019-.075.026-.105.085-.135.1-.048.176-.015.194.09a1.814,1.814,0,0,1,.021.2c.005.088.01.175.022.263s-.027.125-.11.133a.719.719,0,0,1-.075,0h-.588" transform="translate(-3715.435 -559.304)"/>
      <path class="a" id="Trazado_160" data-name="Trazado 160" d="M3261.681,616.1c.071-.035.121-.029.145.018s-.006.093-.062.13c-.1.064-.316-.053-.326-.184a.361.361,0,0,1,.3-.413c.035-.008.07-.015.105-.02a.065.065,0,0,0,.063-.088.6.6,0,0,0-.028-.123,2.4,2.4,0,0,1-.1-.441.293.293,0,0,1,.017-.2.243.243,0,0,1,.282-.139.2.2,0,0,1,.145.247c-.023.071-.092.094-.183.061,0-.019.016-.019.028-.023.09-.032.108-.056.09-.123a.15.15,0,0,0-.169-.113.188.188,0,0,0-.149.183.448.448,0,0,0,.03.176,1.422,1.422,0,0,0,.16.32.757.757,0,0,0,.258.2c.023.014.05.011.047-.029s0-.053.045-.053.021-.037.023-.058a.076.076,0,0,1,.024-.056.7.7,0,0,0,.267.083c.056.013.079-.008.086-.044a.2.2,0,0,1,.051-.083.1.1,0,0,1,.067-.043.34.34,0,0,0,.19-.177c.017-.028,0-.047-.024-.062a.409.409,0,0,1-.163-.239.212.212,0,0,0-.13-.131c-.131-.056-.27-.092-.4-.138a1.4,1.4,0,0,1-.406-.186,1.178,1.178,0,0,1-.184-.176.251.251,0,0,1-.055-.2.415.415,0,0,0-.055-.294c-.033-.05-.029-.115-.06-.168a.074.074,0,0,1,.022-.086.2.2,0,0,0,.065-.128.09.09,0,0,1,.094-.084.186.186,0,0,0,.174-.1c.013-.027.046-.031.073-.041.043-.016.1-.024.123-.055.062-.1.179-.1.257-.159a.1.1,0,0,1,.12,0,.079.079,0,0,0,.03.012,2.254,2.254,0,0,0,.585.082.652.652,0,0,0,.164-.046c.036-.015.074-.025.111-.038a.124.124,0,0,1,.151.042.147.147,0,0,1,.035.165.485.485,0,0,1-.029.057.577.577,0,0,0-.059.447.544.544,0,0,1,.014.125.117.117,0,0,1-.176.107.108.108,0,0,0-.081-.016.168.168,0,0,1-.206-.136c-.019-.094-.061-.179-.088-.27a.173.173,0,0,0-.1-.113.358.358,0,0,0-.367.1.729.729,0,0,1-.069.093.2.2,0,0,0-.023.269.78.78,0,0,0,.145.169,2.2,2.2,0,0,0,.412.282.387.387,0,0,0,.151.05.174.174,0,0,1,.172.117.174.174,0,0,0,.053.078,1.266,1.266,0,0,1,.221.327.177.177,0,0,1,.022.112.132.132,0,0,0,.044.114.131.131,0,0,1,.044.1c.006.119.017.239.026.358,0,.055-.005.092-.074.1a.187.187,0,0,0-.129.1.251.251,0,0,1-.221.141.648.648,0,0,0-.325.123.612.612,0,0,1-.333.1.267.267,0,0,0-.24.088c-.02.028-.045.007-.071-.029s.029-.073-.021-.091c-.03-.011-.061-.018-.091-.028-.081-.027-.161-.056-.242-.081a.424.424,0,0,0-.253.006c-.135.041-.162.146-.07.259.073.039.021-.037.042-.045" transform="translate(-3245.378 -609.823)"/>
      <path class="a" id="Trazado_161" data-name="Trazado 161" d="M2112.256,644.173a.358.358,0,0,0-.066.052c-.022.028-.036.052.012.083a.421.421,0,0,1,.158.227.1.1,0,0,1-.086.137.545.545,0,0,1-.1.007c-.436-.005-.872.016-1.308.019a2.69,2.69,0,0,1-.364-.015.169.169,0,0,0-.115.012.118.118,0,0,1-.073.007,1.944,1.944,0,0,0-.267,0,.132.132,0,0,1-.151-.172c.012-.053,0-.117.064-.154.02-.011.025-.049.035-.075s0-.068.038-.08a.143.143,0,0,1,.113.014.137.137,0,0,0,.091.022.166.166,0,0,1,.036-.222.167.167,0,0,0,.032-.11.648.648,0,0,0-.031-.26.708.708,0,0,1-.038-.332,1.735,1.735,0,0,0,.006-.274,3,3,0,0,1,.014-.5,1.357,1.357,0,0,0-.056-.416.087.087,0,0,0-.08-.075.251.251,0,0,1-.14-.071.659.659,0,0,0-.1-.061c-.072-.041-.083-.077-.04-.144a.181.181,0,0,1,.2-.1,4.659,4.659,0,0,0,.824,0,3.639,3.639,0,0,1,.546,0,.2.2,0,0,1,.178.09c-.026.037-.034.092-.085.119-.015.008-.014.021-.015.036-.006.114-.015.127-.123.161a.61.61,0,0,0-.11.04.445.445,0,0,0-.254.39,5.329,5.329,0,0,1-.1.677c-.014.09-.032.18.056.251.016.013.013.053.016.081.013.122.032.244.034.366,0,.072-.013.146-.016.22a.093.093,0,0,0,.057.1c.038-.018.02-.058.036-.087.031.013.017.058.05.07s.06,0,.054-.041c.04-.029.053.014.078.027a.012.012,0,0,1,.006.016c.014,0,.005-.019.013-.026s.021-.012.028-.023h0c.013-.007.023,0,.031.008s-.01.017.007.015a.164.164,0,0,0,.007-.022.064.064,0,0,1,.025-.039h.038a.064.064,0,0,1,.035.054c0,.007,0,.014,0,.021,0-.008,0-.017,0-.025.008-.025.01-.057.051-.048a.1.1,0,0,0,.023.056c.014.015.033,0,.031-.007-.014-.051,0-.058.048-.039.01,0,.007-.022.007-.035-.015-.029-.014-.048.026-.044.022.007.042.008.054-.016s.026-.055.039-.083c.108.076.109.076.171-.043a.942.942,0,0,0,.11-.336c.006-.058.022-.127-.04-.162a.148.148,0,0,0-.175.037l-.016.014c-.021,0-.032,0-.023-.025a.182.182,0,0,1,.19-.123.214.214,0,0,1,.2.156,1.478,1.478,0,0,1,.032.542c0,.022-.023.047.006.066s.006.032.023.039l.041,0a.027.027,0,0,1,0,.041" transform="translate(-2099.428 -638.533)"/>
      <path class="a" id="Trazado_162" data-name="Trazado 162" d="M8061.249,408.141a.061.061,0,0,0-.023-.054c0-.041-.026-.062-.049-.089-.075-.09-.058-.145.054-.191a.268.268,0,0,1,.109-.02c-.018-.04-.055-.047-.084-.062a.132.132,0,0,1-.07-.076.056.056,0,0,1,.007-.06.337.337,0,0,1,.147-.069c.042-.015.092.03.121.072a.447.447,0,0,1,.056.139c.024.015.034,0,.046-.006.1-.044.111-.04.164.053a.028.028,0,0,0,0,.009c.034.031.062.069.032.11s-.081.034-.127.017c-.009,0-.021-.012-.027,0a.852.852,0,0,1,.048.147c0,.034-.009.055-.043.058a.49.49,0,0,1-.187-.02c-.031-.009-.032-.033-.028-.058a.133.133,0,0,1,.008-.03c.009-.009.007-.012,0,0s.012.01,0,.01a.12.12,0,0,1-.025.025c-.032.044-.07,0-.105.005-.015.03,0,.066-.022.09" transform="translate(-8021.439 -405.51)"/>
      <path class="a" id="Trazado_163" data-name="Trazado 163" d="M7328.493,341.911c-.036-.062-.106-.11-.081-.2.006-.011.013-.011.019,0a.366.366,0,0,0,.072.1c.023.018.019.042.016.067Z" transform="translate(-7292.322 -340.025)"/>
      <path class="a" id="Trazado_164" data-name="Trazado 164" d="M7301.017,343.921a.069.069,0,0,1,.027.1.105.105,0,0,0-.018.025.024.024,0,0,1-.022.022.018.018,0,0,1,0-.03c-.05-.072-.049-.08.016-.119" transform="translate(-7265.016 -342.228)"/>
      <path class="a" id="Trazado_165" data-name="Trazado 165" d="M7038.316,261.842l-.047.02c-.032-.063-.082-.034-.127-.022-.017-.009-.049,0-.042-.036a.13.13,0,0,0,.041-.005.13.13,0,0,1,.175.044" transform="translate(-7003.445 -260.492)"/>
      <path class="a" id="Trazado_166" data-name="Trazado 166" d="M857.8,652.511c-.039-.019-.008-.04,0-.06a.223.223,0,0,1,.1.026c.02.006.04.023.026.047s-.029,0-.046,0-.046-.052-.08-.013" transform="translate(-853.559 -649.238)"/>
      <path class="a" id="Trazado_167" data-name="Trazado 167" d="M7365.415,368.516c-.008-.021-.029-.022-.046-.027a.162.162,0,0,0,.065-.125c.024-.013.029.007.038.021.02.06-.023.093-.057.131" transform="translate(-7329.102 -366.546)"/>
      <path class="a" id="Trazado_168" data-name="Trazado 168" d="M7022.581,264.806l.042.037a.2.2,0,0,1-.044.025c-.031.008-.075.007-.075-.029s.038-.051.078-.033" transform="translate(-6987.925 -263.494)"/>
      <path class="a" id="Trazado_169" data-name="Trazado 169" d="M6955.366,518.759c.018,0,.038,0,.042-.026a.014.014,0,0,1,0-.02l.045-.023.018.024.03.038c-.044.022-.088.041-.135.006" transform="translate(-6921.119 -516.137)"/>
      <path class="a" id="Trazado_170" data-name="Trazado 170" d="M7112.465,257.092c-.028.043-.059.085-.037.141-.039,0-.022-.048-.05-.059.02-.036.024-.082.066-.1.021-.006.028,0,.021.023" transform="translate(-7077.357 -255.802)"/>
      <path class="a" id="Trazado_171" data-name="Trazado 171" d="M7129.577,367.471h-.04c0-.028,0-.056,0-.083a.028.028,0,0,1,.034-.03.028.028,0,0,1,.023.039c-.013.024-.033.045-.014.074" transform="translate(-7094.428 -365.549)"/>
      <path class="a" id="Trazado_172" data-name="Trazado 172" d="M7420.634,504.838c-.046.035,0,.093-.037.14a1.36,1.36,0,0,1-.009-.2.013.013,0,0,1,0-.021v-.01a.35.35,0,0,1,.042.091" transform="translate(-7384.046 -502.262)"/>
      <path class="a" id="Trazado_173" data-name="Trazado 173" d="M6968.821,442.374c-.019.008-.02.025-.022.041-.027-.023-.044-.06-.086-.064-.016-.007-.026-.016-.02-.034l.04,0c.013.01.032.007.045.017s.039.019.043.043" transform="translate(-6934.378 -440.136)"/>
      <path class="a" id="Trazado_174" data-name="Trazado 174" d="M3302.409,1273.887c0,.033.015.052.053.042.016,0,.028,0,.021.022s-.02.018-.023.016c-.029-.019-.073,0-.093-.035.028,0,.022-.035.043-.045" transform="translate(-3286.106 -1267.615)"/>
      <path class="a" id="Trazado_175" data-name="Trazado 175" d="M7237.655,294.57l-.022.025a.084.084,0,0,1-.086-.045.047.047,0,0,1,0-.028.057.057,0,0,1,.021-.02l.014,0a.157.157,0,0,1,.074.059.025.025,0,0,1,0,.014" transform="translate(-7201.908 -293.048)"/>
      <path class="a" id="Trazado_176" data-name="Trazado 176" d="M2434.522,1133.576c-.033.008-.019.046-.041.061s-.015.008-.021,0-.03-.035-.027-.06c.029.011.06-.046.088,0" transform="translate(-2422.447 -1127.975)"/>
      <path class="a" id="Trazado_177" data-name="Trazado 177" d="M2387.445,1135.79c-.016,0-.042.027-.042-.015s-.017-.033-.041-.026c-.013-.042.041-.02.044-.046a.017.017,0,0,1,.023,0c.006.022.025.038.026.062a.032.032,0,0,1-.011.024" transform="translate(-2375.605 -1130.108)"/>
      <path class="a" id="Trazado_178" data-name="Trazado 178" d="M7060.432,278.389l.045.042c-.034.005-.07,0-.106.039a.076.076,0,0,1,.061-.082" transform="translate(-7025.606 -277.018)"/>
      <path class="a" id="Trazado_179" data-name="Trazado 179" d="M7207.123,274.617l.079.044a.017.017,0,0,1,.014.02.049.049,0,0,1-.032.027.1.1,0,0,1-.088-.062c0-.016.015-.022.027-.029" transform="translate(-7171.609 -273.265)"/>
      <path class="a" id="Trazado_180" data-name="Trazado 180" d="M7321.7,324.043h-.02c-.006-.015,0-.034-.022-.043a.049.049,0,0,1,.037-.052.242.242,0,0,1,0,.1" transform="translate(-7285.609 -322.353)"/>
      <path class="a" id="Trazado_181" data-name="Trazado 181" d="M2465.521,1116.714a.048.048,0,0,0-.026.044c-.01-.01-.02-.019-.028-.029s-.029-.032,0-.037.059-.033.058.022" transform="translate(-2453.31 -1111.183)"/>
      <path class="a" id="Trazado_182" data-name="Trazado 182" d="M7378.581,358.157l-.038-.021c0-.023,0-.041.033-.055a.126.126,0,0,1,0,.076" transform="translate(-7342.211 -356.318)"/>
      <path class="a" id="Trazado_183" data-name="Trazado 183" d="M7186.211,253.229v-.047l.064.063,0,.013a.047.047,0,0,1-.022.015l-.014,0c-.017-.009-.03-.021-.024-.042" transform="translate(-7150.825 -251.935)"/>
      <path class="a" id="Trazado_184" data-name="Trazado 184" d="M7195.288,265.924l-.025.022c-.034,0-.063,0-.061-.044l.009-.006.007-.007.006-.008Z" transform="translate(-7159.774 -264.572)"/>
      <path class="a" id="Trazado_185" data-name="Trazado 185" d="M2604.885,1136.364l0-.041a.129.129,0,0,1,.078,0,.1.1,0,0,1-.076.037" transform="translate(-2592.057 -1130.724)"/>
      <path class="a" id="Trazado_186" data-name="Trazado 186" d="M71.319,1128.183c-.018.007-.04.005-.049.027-.017-.009-.018-.026-.021-.042a.017.017,0,0,1,0-.025Z" transform="translate(-70.894 -1122.588)"/>
      <path class="a" id="Trazado_187" data-name="Trazado 187" d="M2412.722,1136.274l-.027-.027c.008-.023.014-.047.048-.04a.06.06,0,0,1,0,.066v0a.012.012,0,0,1-.021,0" transform="translate(-2400.815 -1130.611)"/>
      <path class="a" id="Trazado_188" data-name="Trazado 188" d="M7125.754,249.726l-.021-.023c.008-.028.037-.027.057-.038.019.037-.016.044-.035.061" transform="translate(-7090.646 -248.436)"/>
      <path class="a" id="Trazado_189" data-name="Trazado 189" d="M6254.987,1058.661c-.014,0-.032.006-.037-.007s.012-.022.024-.026.034-.008.051-.011c0,.024-.028.027-.038.044" transform="translate(-6224.15 -1053.404)"/>
      <path class="a" id="Trazado_190" data-name="Trazado 190" d="M2400.242,1135.58l-.023-.063a.014.014,0,0,1,.023,0c.013.013.019.034.04.04a.033.033,0,0,1-.025.026c-.006.008-.011.007-.015,0" transform="translate(-2388.401 -1129.92)"/>
      <path class="a" id="Trazado_191" data-name="Trazado 191" d="M7294.773,368.03c0,.01,0,.02,0,.03a.052.052,0,0,1-.045.035l-.024-.021a.181.181,0,0,1,.066-.043" transform="translate(-7258.789 -366.218)"/>
      <path class="a" id="Trazado_192" data-name="Trazado 192" d="M6942.863,534.863c0-.016-.021-.026-.019-.045l.021-.022c.008-.008.014-.006.017,0a.068.068,0,0,0,.007.019c.006.023.013.047-.026.044" transform="translate(-6908.658 -532.158)"/>
      <path class="a" id="Trazado_193" data-name="Trazado 193" d="M2590.939,1127.606c-.048.01-.018-.025-.023-.039.014,0,.031-.01.038,0s-.009.024-.015.036" transform="translate(-2578.155 -1122.01)"/>
      <path class="a" id="Trazado_194" data-name="Trazado 194" d="M5631.729,1149.814a.018.018,0,0,1-.031.012c-.013-.009,0-.018.005-.026a.265.265,0,0,1,.026-.032c0,.015,0,.031,0,.046" transform="translate(-5603.963 -1144.107)"/>
      <path class="a" id="Trazado_195" data-name="Trazado 195" d="M6928.793,631.3a.083.083,0,0,1,.02.006c.011.007.029.014.021.029s-.025.007-.038,0a.115.115,0,0,1-.024-.017Z" transform="translate(-6894.655 -628.195)"/>
      <path class="a" id="Trazado_196" data-name="Trazado 196" d="M2498.8,998.451l.023.025a.061.061,0,0,1-.041.045.023.023,0,0,1-.007-.028c0-.016,0-.034.024-.042" transform="translate(-2486.47 -993.535)"/>
      <path class="a" id="Trazado_197" data-name="Trazado 197" d="M7525.362,553.909c.053.014.03.037.007.061" transform="translate(-7488.308 -551.182)"/>
      <path class="a" id="Trazado_198" data-name="Trazado 198" d="M6965.866,442.764l.02.034c-.015,0-.028,0-.034-.013a.016.016,0,0,1,.015-.022" transform="translate(-6931.551 -440.584)"/>
      <path class="a" id="Trazado_199" data-name="Trazado 199" d="M7212.867,192.25v-.025c.017,0,.047-.007.047.006s-.028.016-.045.019" transform="translate(-7177.35 -191.276)"/>
      <path class="a" id="Trazado_200" data-name="Trazado 200" d="M2422.173,1136.547c0-.022,0-.044,0-.066l.021,0c0,.023.005.05-.023.064" transform="translate(-2410.247 -1130.885)"/>
      <path class="a" id="Trazado_201" data-name="Trazado 201" d="M7232.332,290.192a.042.042,0,0,0,.01.016l-.007.007-.01.009-.007.007c-.017,0-.025-.005-.031-.02a.047.047,0,0,1,.006-.027.02.02,0,0,1,.025,0,.009.009,0,0,0,.013.006" transform="translate(-7196.677 -288.752)"/>
      <path class="a" id="Trazado_202" data-name="Trazado 202" d="M7503.486,618.4l.019-.021c.014,0,.026.008.022.023s-.024.016-.039.02a.015.015,0,0,1-.007-.015c0-.005,0-.008,0-.008" transform="translate(-7466.535 -615.331)"/>
      <path class="a" id="Trazado_203" data-name="Trazado 203" d="M7496.819,621.911c0,.008,0,.016,0,.023a.013.013,0,0,1,0,.014c-.021,0-.044-.009-.04-.033s.024-.007.038,0" transform="translate(-7459.868 -618.846)"/>
      <line class="a" id="Línea_2" data-name="Línea 2" x1="0.016" y2="0.016" transform="translate(34.101 2.727)" fill="#fff"/>
      <path class="a" id="Trazado_204" data-name="Trazado 204" d="M6925.111,685.7l.024,0,.035.007c0,.038-.022.025-.042.022l-.018,0V685.7" transform="translate(-6891.013 -682.317)"/>
      <path class="a" id="Trazado_205" data-name="Trazado 205" d="M6946.715,523.3a.1.1,0,0,1,.041.044l-.012,0c-.008.009-.016.008-.023,0Z" transform="translate(-6912.51 -520.727)"/>
      <path class="a" id="Trazado_206" data-name="Trazado 206" d="M8110.88,504.964c0,.016,0,.036-.019.042h-.023l.021-.042c.007-.009.013-.009.021,0" transform="translate(-8070.901 -502.471)"/>
      <path class="a" id="Trazado_207" data-name="Trazado 207" d="M6228.7,1032.8a.066.066,0,0,1-.058-.01c.014-.023.035-.018.055-.018,0,.009,0,.019,0,.028" transform="translate(-6197.97 -1027.687)"/>
      <path class="a" id="Trazado_208" data-name="Trazado 208" d="M2396.174,1129.775h-.04c0-.013-.006-.033.008-.034a.032.032,0,0,1,.031.034" transform="translate(-2384.332 -1124.178)"/>
      <path class="a" id="Trazado_209" data-name="Trazado 209" d="M7189.856,157.915l.021,0a.038.038,0,0,1-.047.02Z" transform="translate(-7154.428 -157.137)"/>
      <path class="a" id="Trazado_210" data-name="Trazado 210" d="M1889.13,1080.416c-.013,0-.029.008-.029-.011s.015-.013.026-.008a.021.021,0,0,1,0,.019" transform="translate(-1879.799 -1075.075)"/>
      <path class="a" id="Trazado_211" data-name="Trazado 211" d="M2496.257,1007.018l.007.028c0,.011-.012.015-.019,0a.023.023,0,0,1,.012-.032" transform="translate(-2483.951 -1002.06)"/>
      <path class="a" id="Trazado_212" data-name="Trazado 212" d="M8156.081,484.654c-.014-.005-.014-.013,0-.019a.019.019,0,0,1,.029.014Z" transform="translate(-8115.911 -482.246)"/>
      <path class="a" id="Trazado_213" data-name="Trazado 213" d="M1865.514,1050.881c-.013,0-.035.008-.036-.005s.022-.013.036-.015a.055.055,0,0,1,0,.021" transform="translate(-1856.292 -1045.685)"/>
      <path class="a" id="Trazado_214" data-name="Trazado 214" d="M1894.42,1076.766c.008-.02.026-.019.044-.02a.032.032,0,0,1-.044.02" transform="translate(-1885.092 -1071.444)"/>
      <path class="a" id="Trazado_215" data-name="Trazado 215" d="M68.446,1125.669l0,.025c-.014-.006-.023-.018-.015-.031s.014,0,.018.006" transform="translate(-68.088 -1120.114)"/>
      <path class="a" id="Trazado_216" data-name="Trazado 216" d="M6977.249,442.049a.045.045,0,0,1-.045-.017.043.043,0,0,1,.045.017" transform="translate(-6942.848 -439.854)"/>
      <path class="a" id="Trazado_217" data-name="Trazado 217" d="M7199.361,154.534a.026.026,0,0,1,.022-.02.024.024,0,0,1-.022.02" transform="translate(-7163.913 -153.753)"/>
      <path class="a" id="Trazado_218" data-name="Trazado 218" d="M7204.654,55.464a.021.021,0,0,1-.012-.028.021.021,0,0,1,.012.028" transform="translate(-7169.165 -55.163)"/>
      <path class="a" id="Trazado_219" data-name="Trazado 219" d="M7228.544,283.606h-.011l-.008-.007c0-.007,0-.013-.006-.019" transform="translate(-7192.927 -282.184)"/>
      <path class="a" id="Trazado_220" data-name="Trazado 220" d="M6973.141,518.736c-.012,0-.02-.01-.017-.024a.019.019,0,0,1,.017.024" transform="translate(-6938.789 -516.158)"/>
      <path class="a" id="Trazado_221" data-name="Trazado 221" d="M7260.37,309.449a.02.02,0,0,1-.023-.018.021.021,0,0,1,.023.018" transform="translate(-7224.598 -307.907)"/>
      <path class="a" id="Trazado_222" data-name="Trazado 222" d="M6947.126,531.479h.023l-.01.024-.017,0,0-.021" transform="translate(-6912.916 -528.862)"/>
      <path class="a" id="Trazado_223" data-name="Trazado 223" d="M6998.883,513.148c.034.018.008.064.041.082,0,.014-.012.032-.013.03-.016-.03-.071,0-.072-.049v-.04l.024-.024c.008-.008.015-.008.02,0" transform="translate(-6964.377 -510.613)"/>
      <path class="a" id="Trazado_224" data-name="Trazado 224" d="M7043.9,536.318c-.032-.026-.039-.049-.025-.077a.02.02,0,0,1,.019,0c.032.021.014.048.007.08" transform="translate(-7009.185 -533.596)"/>
      <path class="a" id="Trazado_225" data-name="Trazado 225" d="M6928.783,687.141c.015-.006.033,0,.042-.022a.055.055,0,0,1,.054.033.093.093,0,0,1-.1-.011" transform="translate(-6894.667 -683.736)"/>
      <path class="a" id="Trazado_226" data-name="Trazado 226" d="M7067.913,544.643c.028.03.017.052.013.078a.063.063,0,0,1-.013-.078" transform="translate(-7033.103 -541.961)"/>
      <path class="a" id="Trazado_227" data-name="Trazado 227" d="M7081.885,546.63c0-.016,0-.034.026-.033a.016.016,0,0,1,.01.013c0,.025-.021.018-.036.02Z" transform="translate(-7047.014 -543.905)"/>
      <path class="a" id="Trazado_228" data-name="Trazado 228" d="M6946.679,540.529c.032,0,.021-.027.026-.044.017.016.025.034.007.052s-.024,0-.033-.008" transform="translate(-6912.475 -537.824)"/>
      <path class="a" id="Trazado_229" data-name="Trazado 229" d="M7413.373,518.556a.108.108,0,0,1,.014-.089.1.1,0,0,1-.014.089" transform="translate(-7376.867 -515.914)"/>
      <path class="a" id="Trazado_230" data-name="Trazado 230" d="M6970.291,542.069s.011.008.011.012a.012.012,0,0,1-.019.011.016.016,0,0,1-.006-.015s.009-.006.014-.009" transform="translate(-6935.956 -539.4)"/>
      <path class="a" id="Trazado_231" data-name="Trazado 231" d="M7491.394,564.928a.012.012,0,0,1,.021,0h.011" transform="translate(-7454.507 -562.14)"/>
      <path class="a" id="Trazado_232" data-name="Trazado 232" d="M7407.849,540.415h.02c0,.021.008.042-.01.059a.052.052,0,0,1-.01-.058" transform="translate(-7371.369 -537.754)"/>
      <path class="a" id="Trazado_233" data-name="Trazado 233" d="M6941.285,665.645l.018-.007s.006,0,.006.007,0,.007-.006.007l-.018-.007" transform="translate(-6907.107 -662.361)"/>
      <path class="a" id="Trazado_234" data-name="Trazado 234" d="M6913.273,2.82c-.019-.01-.04-.013-.059-.024a.074.074,0,0,0-.031-.012l-.008,0-.007-.006a.061.061,0,0,1,.01-.015l.022-.027a.1.1,0,0,0,.013-.021l0-.013c0-.035,0-.065-.045-.072-.017,0-.017-.019-.017-.032,0-.053-.035-.034-.063-.023s-.035.056-.081.037c0-.043.021-.089-.022-.142-.011.053-.019.092-.027.131,0,.012-.006.038-.019.031-.052-.028-.047.026-.062.052a.2.2,0,0,1-.028-.11.057.057,0,0,0-.032.024.44.44,0,0,0,0-.076.022.022,0,0,0-.024-.017.055.055,0,0,0-.027.038.552.552,0,0,0-.006.085.142.142,0,0,0,0,.025c0,.008,0,.012-.005.013s.007-.01,0-.016,0-.027-.009-.027c-.13,0-.062-.048-.021-.089l.02-.019.01-.009.021-.017a.164.164,0,0,0,.032-.041l.02-.024c.029-.031.086-.021.107-.064s-.051-.059-.054-.1c0-.082-.079-.091-.134-.116-.027-.013-.061-.016-.09-.028-.082-.033-.09-.048-.08-.144,0-.038-.016-.042-.046-.027-.054,0-.059-.056-.086-.085-.019-.007-.029,0-.037.018-.032.1-.091.119-.263.061.023-.022.062-.028.069-.062,0-.017-.012-.028-.032-.019-.107-.031-.109-.034-.083-.134,0-.013.006-.027.009-.041.016-.073,0-.094-.071-.139a.1.1,0,0,0-.023-.018h0c-.019,0-.027.007-.033.022a.356.356,0,0,1-.031.206c0,.007,0,.022-.013.019s0-.016,0-.024c-.014-.029-.031-.063-.065-.061-.154.009-.217-.115-.3-.2a.162.162,0,0,1-.026-.177c.024-.072.081.008.118-.019a.034.034,0,0,0-.006-.042.173.173,0,0,0-.04-.059c-.018-.023-.012-.056.009-.063.079-.026.1-.111.163-.151.011-.009.01-.017,0-.025a.243.243,0,0,1-.055-.063c-.015-.037-.03-.058-.073-.044a.014.014,0,0,1-.017-.018.036.036,0,0,1,.031-.024c.014-.005.028-.01.033-.027a.043.043,0,0,0-.03-.03c-.083-.063-.079-.148.012-.237.022-.016.018-.044.031-.064.033-.027.094-.044.043-.1a.035.035,0,0,0-.017,0c0-.011,0-.022,0-.033s-.01-.018-.013-.028c-.009-.026-.04-.057.021-.066a.073.073,0,0,0,.055-.032c-.016-.012-.045-.011-.043-.038,0-.044-.026-.07-.049-.1-.036-.05-.06-.047-.093,0s-.024.122-.083.162c.031.012.06.005.077.027l-.03.027c-.068.066-.067.066-.029.156.006.012.008.027.022.032s0-.018.006-.026a.025.025,0,0,0,.011.026c.007.016.017.031,0,.046a.473.473,0,0,1-.135.083.589.589,0,0,0-.158.09.253.253,0,0,0,.141.144c.014,0,.029.016.025.03a.253.253,0,0,0,.035.2.158.158,0,0,1-.036.174.234.234,0,0,0-.049.121c0,.035-.012.069-.057.074-.027,0-.035-.042-.067-.027a.313.313,0,0,1-.148-.022c-.024-.013-.034.007-.047.02h0c-.012.041.031.026.045.042a.267.267,0,0,1,.187.063.158.158,0,0,0,.1.042.139.139,0,0,1,.112.071.92.92,0,0,0,.1.117c.02.022.056.039.03.078s-.053.064-.1.046c-.06-.025-.069,0-.068.049a.042.042,0,0,1-.021.044.055.055,0,0,0-.018.045.067.067,0,0,0,.007.023l.015.032.009.021c0,.011.007.022.01.033s0,.015,0,.022a.036.036,0,0,1-.007.031l-.02.013a.1.1,0,0,1-.06,0s-.006-.008-.007-.008a.031.031,0,0,1,.007-.017l.007-.007a.107.107,0,0,0,.014-.017.116.116,0,0,0,.012-.02.1.1,0,0,0,.01-.036.4.4,0,0,0-.011-.064.058.058,0,0,0-.019-.034l-.022-.021a.027.027,0,0,0-.041,0,.545.545,0,0,1-.194.172,1.393,1.393,0,0,0-.282.185c-.086.079-.1.078-.167-.02a.235.235,0,0,0-.022-.022c-.038,0-.039.015-.022.041,0,.071.057.112.086.167,0,.05.045.1.021.149-.055.03-.037-.036-.062-.046-.032.011-.027-.055-.065-.031-.011.032.012.069-.018.1-.04-.015-.082,0-.123-.007h-.014l-.013,0a.03.03,0,0,0-.015.02.209.209,0,0,0,0,.025.015.015,0,0,1-.009.018l-.021-.013-.035-.044a.118.118,0,0,0-.009.093c.007.017-.011.02-.025.018s-.011-.007-.015,0-.006.013,0,.021l.06.081c-.1-.027-.1-.027-.085.049l0,0c-.008.011-.038.013-.018.036a.172.172,0,0,0,.034.023c.05.033.048.06,0,.1l-.038.025c.035.018.069.026.088.057s0,.026-.022.02c-.036,0-.037.014-.018.038.039.057-.025.074-.043.109s-.06.019-.042.061c.031.021.068.006.1.015s-.009.016,0,.024a.057.057,0,0,0,.027.021c.011.005.012.006,0,0l-.021-.005a.019.019,0,0,0-.023.008c0,.016-.04.025-.025.038.053.046.075.124.125.158.068.046.055.1.056.153,0,.021,0,.042,0,.063a.125.125,0,0,0,.171.126.19.19,0,0,1,.093-.006.1.1,0,0,0,.122-.1c0-.082.022-.16.022-.241a.107.107,0,0,1,.05-.089.278.278,0,0,1,.174-.066,1.046,1.046,0,0,0,.225-.006.086.086,0,0,1,.09.042.38.38,0,0,1,.077.237,1.556,1.556,0,0,1-.072.581.122.122,0,0,0,.045.166.171.171,0,0,1,.063.141c.007.239.009.478.015.717a.366.366,0,0,1-.025.134.14.14,0,0,1-.124.085c-.059,0-.062-.048-.074-.088,0-.017-.011-.033-.016-.05a.15.15,0,0,0-.229-.068.055.055,0,0,0-.028.042,1.49,1.49,0,0,0-.018.2,1.257,1.257,0,0,1,0,.326c-.009.072.037.116.111.122a.637.637,0,0,1,.116.013,1.588,1.588,0,0,0,.361.031c.153,0,.307,0,.461,0a3.91,3.91,0,0,0,.471-.013c.078-.011.107-.045.095-.121a3.758,3.758,0,0,1-.043-.4.6.6,0,0,0-.017-.115.108.108,0,0,0-.169-.073.488.488,0,0,1-.058.028.073.073,0,0,0-.051.083.545.545,0,0,1,0,.063c0,.038-.016.073-.057.079a.105.105,0,0,1-.11-.05.145.145,0,0,1-.016-.05,3.8,3.8,0,0,1-.052-.481c-.008-.214-.008-.429-.006-.644a.862.862,0,0,1,.047-.371.288.288,0,0,0,.008-.216.5.5,0,0,1-.042-.193.161.161,0,0,1,.108-.154.728.728,0,0,1,.23-.048.23.23,0,0,1,.254.222,1.031,1.031,0,0,0,.034.208.133.133,0,0,0,.169.106.575.575,0,0,1,.083-.013c.082,0,.09,0,.1-.074a.407.407,0,0,0,0-.094c-.015-.169.012-.337.006-.506,0-.042,0-.076.059-.082.021,0,.053-.01.037-.047-.015-.015-.013-.026.008-.032s.022-.012.009-.026-.053-.023-.036-.032c.052-.029.053-.094.1-.12.009-.032-.011-.052-.029-.073M6911.591.4a.122.122,0,0,1,.04-.15c.018-.006.039-.021.048.01s.016.065.024.1c-.054.081-.054.081-.112.042Zm-.181.309c-.026-.022-.039-.05,0-.077s.061-.029.089.008a.183.183,0,0,1,.031.149.322.322,0,0,1-.119-.081Zm.108.2c.021-.014.039,0,.054.017s.021.02.009.03a.033.033,0,0,1-.052-.009c-.014-.011-.032-.024-.011-.039Zm-1.051,2.546a.031.031,0,0,1-.019.022.024.024,0,0,1-.026-.024s.015-.01.021-.013.025,0,.024.016Zm.414-.756a.027.027,0,0,1-.016-.031s.006-.008.01-.012l.011.026c0,.006,0,.012,0,.017Zm.232.05s-.011-.006-.011-.009.007-.016.018-.017h0c0,.009-.006.017-.008.026Zm.078-.03a.062.062,0,0,1,0-.017s0,0,.007-.006l.007.016Zm.048.044s0,0-.006-.007-.007-.018,0-.025.015,0,.016.008,0,.018-.014.024Zm.126.011a.1.1,0,0,1-.005-.016s0,0,.007-.006,0,.011.005.016,0,0-.007.006Zm.066-.294a.3.3,0,0,1-.286-.013c-.034-.014-.036-.039-.024-.069a.2.2,0,0,1,.2-.117.291.291,0,0,0,.229-.064.26.26,0,0,1-.115.263Zm.306-.231a.039.039,0,0,1-.038.031.573.573,0,0,1-.012-.291.422.422,0,0,1,.015-.05c.007-.016.019-.031.041-.025s.016.021.018.034a.633.633,0,0,1-.024.3Zm.479.15c-.105,0-.159-.064-.18-.213a.863.863,0,0,0,.315.094c.022,0,.045.009.051.031s-.021.041-.043.051a.293.293,0,0,1-.143.038Zm.091.411s-.009-.018-.006-.026.012-.012.02-.017v0h0a.046.046,0,0,1,0,.018c0,.01.008.029-.015.025Zm.1-.09h0c.025.033.036.06-.023.062-.026.009-.044-.01-.066-.017h0c0-.028.009-.056.044-.062l.059-.019,0,0,0,0-.007,0a.049.049,0,0,0-.015.035Zm.073.016c-.013,0-.014-.02-.013-.034h.022c0,.014,0,.034-.009.034Zm.086.048c-.019-.046-.034-.083-.049-.122s0-.046.032-.053.029.022.037.038a.143.143,0,0,1-.021.137Zm.253-.1a.405.405,0,0,1,0-.042.15.15,0,0,1,.006.04s0,.006.009,0-.008.011-.012,0Z" transform="translate(-6876.249 0)"/>
      <path class="a" id="Trazado_235" data-name="Trazado 235" d="M7156.238,411.23a.039.039,0,0,1-.017-.045c.02.01.021.027.017.045" transform="translate(-7120.983 -409.16)"/>
      <path class="a" id="Trazado_236" data-name="Trazado 236" d="M6920.337,583.048c.008,0,.015,0,.016,0s-.006.01-.009.009-.009-.008,0-.016Z" transform="translate(-6886.261 -580.174)"/>
      <path class="a" id="Trazado_237" data-name="Trazado 237" d="M7499.681,548.582l-.01,0-.007.008c.005-.012.007-.028.026-.023l-.01.02" transform="translate(-7462.737 -545.86)"/>
      <path class="a" id="Trazado_238" data-name="Trazado 238" d="M7418.013,506.624a.042.042,0,0,1,0,.021l-.008,0h-.008c0-.015,0-.023.019-.02" transform="translate(-7381.468 -504.129)"/>
      <path class="a" id="Trazado_239" data-name="Trazado 239" d="M7404.318,506.288a.022.022,0,0,1-.023.019.024.024,0,0,1,.023-.019" transform="translate(-7367.837 -503.795)"/>
      <path class="a" id="Trazado_240" data-name="Trazado 240" d="M7409,502.358a.023.023,0,0,1-.023.019.026.026,0,0,1,.023-.019" transform="translate(-7372.497 -499.884)"/>
      <path class="a" id="Trazado_241" data-name="Trazado 241" d="M8122.875,625.011a.048.048,0,0,1,.066,0s0,.016,0,.017a.048.048,0,0,1-.063-.02Z" transform="translate(-8082.879 -621.92)"/>
      <path class="a" id="Trazado_242" data-name="Trazado 242" d="M8042.512,610.281l0,.006h-.005Z" transform="translate(-8002.908 -607.277)"/>
      <path class="a" id="Trazado_243" data-name="Trazado 243" d="M5092.5,606.807a1.465,1.465,0,0,1-.211-.119c-.033-.027-.052-.046-.013-.081a.1.1,0,0,0,.021-.115l-.077.047c-.019-.016-.012-.031,0-.046l.018-.026c.009-.015.024-.032.012-.048s-.037-.01-.057,0a.757.757,0,0,1-.1.044c-.06.021-.09-.027-.128-.057s.041-.049.016-.087a.255.255,0,0,1-.238-.127,2.089,2.089,0,0,0-.264-.316c-.047-.048-.088-.1-.13-.154s-.047-.084,0-.137a.4.4,0,0,1,.134-.1.127.127,0,0,0,.085-.075.541.541,0,0,1,.121-.185.881.881,0,0,0,.16-.245.523.523,0,0,0,.027-.359,2.882,2.882,0,0,0-.16-.379.224.224,0,0,0-.088-.1c-.081-.048-.147-.121-.225-.176a.428.428,0,0,0-.339-.119,2.232,2.232,0,0,1-.32.015c-.09,0-.178-.036-.265-.029-.172.013-.342-.006-.513,0a.693.693,0,0,1-.187-.012.649.649,0,0,0-.191-.007.056.056,0,0,0-.048.019c-.044.064.029.135-.014.2-.013.02.02.049.043.066a.192.192,0,0,0,.046.026.4.4,0,0,0,.063.013.163.163,0,0,1,.134.108.963.963,0,0,1,.034.276c-.007.031-.011.063-.021.093a.387.387,0,0,0,.007.249,1.031,1.031,0,0,1,.036.132.41.41,0,0,1,0,.209,1.207,1.207,0,0,0-.054.488c.01.109.027.216.048.323a1.741,1.741,0,0,1,.026.188c.009.124-.072.18-.188.13a.678.678,0,0,1-.136-.053c-.064.15-.066.151-.035.263a.285.285,0,0,1,0,.142c-.021.1.024.158.133.173.014,0,.028,0,.042,0a2.326,2.326,0,0,0,.349-.019,2.9,2.9,0,0,1,.493.009.659.659,0,0,0,.306-.017c.076-.031.092-.058.071-.135a.12.12,0,0,1,0-.08c.024-.068.009-.095-.061-.121a.456.456,0,0,0-.219-.032.124.124,0,0,1-.151-.11c-.006-.031-.01-.062-.015-.094a3.043,3.043,0,0,1,.025-.5c0-.032-.006-.081.038-.089s.105-.041.156-.006a2.557,2.557,0,0,0,.279.173.1.1,0,0,1,.048.054,1.789,1.789,0,0,0,.111.216.617.617,0,0,1,.1.244.305.305,0,0,0,.1.2.575.575,0,0,1,.164.336c.006.037-.009.076.006.113.173-.035.173-.035.225-.162a.054.054,0,0,1,.049.012c.053.052.108.1.077.19a.031.031,0,0,0,.013.037c.013.01.025,0,.038-.007a.251.251,0,0,0,.08-.1.593.593,0,0,0,.165.049c.029.007.076,0,.077-.019,0-.065.049-.05.083-.065a.631.631,0,0,0,.185-.077.035.035,0,0,0,0-.048m-1.352-1.816a.216.216,0,0,1-.089.1,1.016,1.016,0,0,1-.476.142c-.021,0-.031-.011-.035-.03a.208.208,0,0,1,0-.134.26.26,0,0,0,0-.185,1.229,1.229,0,0,1-.022-.511c.021-.136.026-.142.168-.148h.046c.157-.027.25.086.335.2a.793.793,0,0,1,.09.154.581.581,0,0,1-.013.412" transform="translate(-5064.458 -600.832)"/>
      <path class="a" id="Trazado_244" data-name="Trazado 244" d="M4526.263,604.913a.652.652,0,0,0-.16-.246c-.1-.088-.111-.137-.048-.257.011-.022.025-.042.038-.063a.681.681,0,0,0,.1-.351,1.286,1.286,0,0,0-.068-.414.118.118,0,0,1-.006-.1c.029-.063.019-.077-.049-.116-.024-.014-.047-.02-.057-.055-.023-.081-.044-.09-.13-.089a.687.687,0,0,1-.075,0,5.421,5.421,0,0,0-.824-.029c-.038,0-.086.009-.111-.024-.056-.076-.124-.056-.191-.032a.571.571,0,0,1-.231.029,1.819,1.819,0,0,0-.26-.018.477.477,0,0,0-.237.029c-.074.032-.09.059-.067.136a.131.131,0,0,1,0,.061c-.016.089-.012.1.071.131a.815.815,0,0,0,.283.041c.045,0,.067.016.074.055a1.163,1.163,0,0,1,.033.365.912.912,0,0,0,0,.376.667.667,0,0,1,.02.23c-.01.172,0,.345-.008.517a3.483,3.483,0,0,1-.031.473.315.315,0,0,1-.332.3c-.084.006-.114.045-.1.126a.329.329,0,0,1,.007.122c-.015.079.017.1.1.1a2.084,2.084,0,0,1,.661.029.869.869,0,0,0,.383,0,2.867,2.867,0,0,1,.293-.036,2.519,2.519,0,0,0,.484-.075.552.552,0,0,0,.448-.463.819.819,0,0,1,.023-.1.916.916,0,0,0-.035-.656m-1.4-.57c.011-.176-.025-.351-.02-.527a.34.34,0,0,1,0-.063c.029-.119.022-.148.165-.168.024-.007.029,0,.025.025v0a.012.012,0,0,0,0,.017.015.015,0,0,0,.024,0,.19.19,0,0,1,.166-.025.647.647,0,0,1,.268.1.226.226,0,0,1,.106.151c0,.021.013.04.017.061a.291.291,0,0,1-.155.353.912.912,0,0,1-.518.146c-.053,0-.082-.013-.078-.07Zm.884,1a.619.619,0,0,1-.26.348c-.038.028-.083.007-.124.019-.088.026-.18.043-.271.061a.111.111,0,0,1-.142-.078.691.691,0,0,1-.042-.206c-.01-.158-.016-.315-.022-.449v-.067c0-.124.006-.138.129-.157a.828.828,0,0,1,.614.112.188.188,0,0,1,.089.137.694.694,0,0,1,.028.28Z" transform="translate(-4501.603 -600.146)"/>
      <path class="a" id="Trazado_245" data-name="Trazado 245" d="M4753.4,694.442l-.025-.025a.084.084,0,0,1,.016-.012c.016-.006.042-.014.046,0s-.016.031-.037.037" transform="translate(-4729.974 -690.978)"/>
      <path class="a" id="Trazado_246" data-name="Trazado 246" d="M4750.757,703.837l-.006.008c-.017.013-.044.025-.053.006s.019-.029.039-.034Z" transform="translate(-4727.305 -700.351)"/>
      <path class="a" id="Trazado_247" data-name="Trazado 247" d="M6337.542,592.376c-.118-.225-.226-.454-.333-.684-.009-.019-.023-.038-.019-.059a.2.2,0,0,0-.043-.148,5.487,5.487,0,0,1-.46-1.053c-.04-.128-.063-.261-.115-.384a.852.852,0,0,1-.045-.348.591.591,0,0,1,.021-.157c0-.09-.038-.127-.116-.108-.017,0-.032.017-.049,0-.1-.071-.172,0-.241.062a.832.832,0,0,0-.21.386.728.728,0,0,1-.234.381.11.11,0,0,0-.045.121.119.119,0,0,1-.016.091,1.081,1.081,0,0,0-.086.237,1.457,1.457,0,0,1-.1.276,1.477,1.477,0,0,0-.134.321.5.5,0,0,1-.077.183,1.366,1.366,0,0,0-.167.341.966.966,0,0,1-.157.3,1.174,1.174,0,0,0-.187.331c-.032.082-.007.128.071.14a3.142,3.142,0,0,1,.319.023c.106-.053.211,0,.315.008s.142-.008.167-.106a1.821,1.821,0,0,0,.05-.333,1.973,1.973,0,0,1,.079-.445.15.15,0,0,1,.144-.117,2.578,2.578,0,0,1,.461,0,.285.285,0,0,1,.234.21,5.2,5.2,0,0,0,.232.677c0,.012,0,.027.021.032a.448.448,0,0,0,.32.023c.035-.016.082-.054.118-.027.075.057.144.021.212,0,.09-.029.11-.093.066-.178m-1.113-1.245a.594.594,0,0,1-.137.015,3.949,3.949,0,0,0-.429-.017.571.571,0,0,1,.1-.255.26.26,0,0,0,.055-.145.462.462,0,0,1,.071-.218c.033-.047.061-.052.106-.019a.233.233,0,0,1,.088.141,1.076,1.076,0,0,0,.167.359.16.16,0,0,1,.022.09A.043.043,0,0,1,6336.429,591.131Z" transform="translate(-6303.525 -586.506)"/>
      <path class="a" id="Trazado_248" data-name="Trazado 248" d="M2659.226,608.145q-.123-.257-.249-.513a.73.73,0,0,0-.1-.2,1.028,1.028,0,0,1-.255-.559,1.87,1.87,0,0,0-.09-.314c-.093-.254-.195-.505-.275-.765a.847.847,0,0,1-.013-.435.756.756,0,0,0,.021-.081c.007-.079-.042-.122-.119-.1a.349.349,0,0,1-.114.018.159.159,0,0,0-.154.053.8.8,0,0,0-.238.4.756.756,0,0,1-.245.4.087.087,0,0,0-.038.1.211.211,0,0,1-.012.114c-.022.1-.086.178-.109.273a1.534,1.534,0,0,1-.13.311c-.026.054-.051.108-.076.163a.106.106,0,0,0-.018.07.166.166,0,0,1-.027.12,1.3,1.3,0,0,0-.074.186,1.244,1.244,0,0,1-.292.509,1.385,1.385,0,0,0-.191.328c-.043.092,0,.188.125.174a1.21,1.21,0,0,1,.181-.016c.137.006.273.019.41.029.1.007.135-.02.155-.116a3.634,3.634,0,0,0,.061-.417,1.431,1.431,0,0,1,.078-.37.157.157,0,0,1,.163-.11c.025,0,.05,0,.075,0,.128,0,.257.01.385.008.094,0,.1-.008.112.08a.263.263,0,0,0,.053.124.761.761,0,0,1,.123.255c.04.128.088.252.128.38a.173.173,0,0,0,.095.1.217.217,0,0,0,.135.016,1.942,1.942,0,0,1,.242-.029c.057,0,.112,0,.168,0,.144-.005.149-.11.107-.2m-1.192-1.222a.907.907,0,0,1-.347-.011c-.017,0-.04.012-.061.016-.06.012-.085-.011-.067-.066a.8.8,0,0,1,.087-.2.358.358,0,0,0,.062-.166.61.61,0,0,1,.056-.191.083.083,0,0,1,.151-.02.215.215,0,0,1,.053.1l.174.38.006.009C2658.213,606.886,2658.189,606.925,2658.035,606.923Z" transform="translate(-2643.333 -602.197)"/>
      <path class="a" id="Trazado_249" data-name="Trazado 249" d="M2404.691,1149.5a.035.035,0,0,0,.015,0c0,.011.009.023,0,.032s-.007-.007-.011-.011Z" transform="translate(-2392.85 -1143.843)"/>
      <path class="a" id="Trazado_250" data-name="Trazado 250" d="M2417.6,1149.6l.021,0c0,.016.006.041-.01.041s-.012-.023-.011-.038" transform="translate(-2405.698 -1143.932)"/>
      <path class="a" id="Trazado_251" data-name="Trazado 251" d="M2439.638,1149.392l.021,0c0,.013,0,.031-.012.031s-.011-.02-.009-.033" transform="translate(-2427.625 -1143.733)"/>
      <path class="a" id="Trazado_252" data-name="Trazado 252" d="M8115.2,499.9h-.02c0-.016.014-.038.031-.03s0,.022-.011.029" transform="translate(-8075.218 -497.41)"/>
      <path class="a" id="Trazado_253" data-name="Trazado 253" d="M7313.289,364.606a.026.026,0,0,1,.018-.025.027.027,0,0,1-.018.025" transform="translate(-7277.279 -362.786)"/>
      <path class="a" id="Trazado_254" data-name="Trazado 254" d="M7189.681,90a.151.151,0,0,1-.12-.126l-.044.044a.648.648,0,0,1,0,.269l.027.022q.01.016.022,0h0c.008-.006.014-.014.022-.02.046-.065.124-.089.187-.136a.162.162,0,0,0-.09-.056m-.065.094c0-.008-.013-.017-.012-.025s.009-.016.014-.024l.016.023Z" transform="translate(-7154.112 -89.429)"/>
      <path class="a" id="Trazado_255" data-name="Trazado 255" d="M7003.828,508.686l-.02,0,.011-.028Z" transform="translate(-6969.322 -506.151)"/>
      <path class="a" id="Trazado_256" data-name="Trazado 256" d="M6962.1,523.3a.046.046,0,0,1,0,.02c-.009,0-.011-.008-.007-.014a.031.031,0,0,1,.008-.006" transform="translate(-6927.81 -520.722)"/>
      <path class="a" id="Trazado_257" data-name="Trazado 257" d="M7240.007,297.159c0-.006,0-.01.01-.009s0,.01-.01.009" transform="translate(-7204.358 -295.687)"/>
      <path class="a" id="Trazado_258" data-name="Trazado 258" d="M7226.021,287.247l-.041-.027.019-.018a.017.017,0,0,1,.022.008.014.014,0,0,1,0,.012Z" transform="translate(-7190.4 -285.787)"/>
      <path class="a" id="Trazado_259" data-name="Trazado 259" d="M7196.941,267.534a.006.006,0,0,1-.006.007h0v-.006Z" transform="translate(-7161.498 -266.217)"/>
      <path class="a" id="Trazado_260" data-name="Trazado 260" d="M3.18,562.372a.222.222,0,0,1-.039-.116.369.369,0,0,0-.094-.262.286.286,0,0,1-.032-.054.47.47,0,0,1-.039-.277.291.291,0,0,0-.081-.232.715.715,0,0,0-.092-.072c-.083-.059-.183-.1-.213-.212,0-.014-.024-.024-.038-.034a.354.354,0,0,0-.221-.066.185.185,0,0,1-.154-.067.317.317,0,0,0-.283-.094.257.257,0,0,1-.153-.017.753.753,0,0,0-.387-.052,1.1,1.1,0,0,0-.286.124c-.05.021-.1.055-.149.08-.119.059-.261.08-.346.2-.013.018-.047.036-.064.01s-.071-.02-.077-.065a.027.027,0,0,0-.031-.022c-.055,0-.146.149-.117.2.015.026.038.045.011.071s-.044-.009-.068-.01a.133.133,0,0,1-.041-.01c-.073-.026-.071-.026-.085.044a.26.26,0,0,0,0,.1.371.371,0,0,1,0,.178.959.959,0,0,0-.038.351.777.777,0,0,1-.039.269,1.455,1.455,0,0,0-.01.409.99.99,0,0,0,.057.32,1,1,0,0,1,.042.447c-.011.09-.009.093.091.109.023-.027.01-.061.02-.091.025-.079.064-.1.146-.078a.268.268,0,0,1,.158.148c.014.024,0,.043-.024.046a.41.41,0,0,1-.074,0c-.027-.01-.05-.013-.05.027a2.065,2.065,0,0,0,.084.226c.008.025.019.059.054.058.134,0,.239.1.371.1.01,0,.023.016.03.027a.311.311,0,0,0,.3.134.233.233,0,0,1,.158.044.142.142,0,0,0,.13.031.089.089,0,0,1,.052,0,.283.283,0,0,0,.207-.025.073.073,0,0,1,.068-.008.358.358,0,0,0,.308-.036.222.222,0,0,1,.088-.036c.111,0,.2-.091.319-.069a.033.033,0,0,0,.027-.015c.024-.044.07-.042.11-.055.085-.028.171-.056.157-.173a.038.038,0,0,1,.02-.035c.045-.03.027-.057.008-.1a.31.31,0,0,1-.023-.261.633.633,0,0,1,.15-.229c.022-.019.045-.037.036-.07-.017-.06.025-.1.053-.141A.4.4,0,0,1,3.131,563c.012-.013.023-.029.01-.047a.035.035,0,0,0-.037-.016c-.081.026-.113-.041-.15-.084a.161.161,0,0,0-.083-.057c.026-.035.014-.1.067-.11a.349.349,0,0,1,.229-.013c.054.024.079.005.086-.051a.38.38,0,0,0-.074-.246m-.723.442a1.864,1.864,0,0,0-.087.319.5.5,0,0,1-.092.218.071.071,0,0,0-.026.056c.008.052-.028.077-.066.1s-.091.066-.139.1c-.028.017-.066.061-.1.006.021-.012.034-.035.016-.048s-.029.014-.036.03,0,.013,0,.02h0a.088.088,0,0,1-.039.057c0-.013,0-.026-.006-.039s0-.038-.024-.031-.013.022-.011.034a.229.229,0,0,0,.011.038h0c-.03.034-.052.019-.059-.015a2.066,2.066,0,0,1-.036-.216.153.153,0,0,1,.107-.149.323.323,0,0,0,.186-.132c.014-.021.032-.043.018-.067s-.045-.013-.069-.011a.247.247,0,0,0-.031.006c-.027.041-.045,0-.067-.007h0a.041.041,0,0,1,.04-.021h0a.392.392,0,0,0,.036-.343c-.014-.06-.042-.063-.088-.018a.539.539,0,0,0-.1.148l.009.019c.007.015.02.034-.005.041s-.02-.016-.021-.03a.268.268,0,0,1,0-.031l-.051-.142h0c0-.013,0-.02-.016-.021a.027.027,0,0,0-.018-.026.061.061,0,0,0-.04-.068.256.256,0,0,0-.071.134.035.035,0,0,0,.009.026c-.015.028-.026.061-.073.042a.179.179,0,0,0-.025-.019c-.046-.024-.1-.078-.14-.057s-.027.1-.03.153l-.063.006-.053,0c-.091-.01-.091-.01-.073.086-.018.039-.054.016-.081.024s-.044.021-.01.044a.091.091,0,0,0,.041.04l0,.036a.317.317,0,0,0-.105.019c.006.048.044.072.073.1s.052.033.046.074c0,.021.022.033.043.04l.135.047c-.019.036-.066.041-.079.076a.025.025,0,0,0,.03.022.309.309,0,0,1,.183.022c.058.024.11-.012.158-.042.081-.05.12-.035.141.057a.518.518,0,0,1,.022.155h0a.061.061,0,0,0-.022.041.115.115,0,0,0-.1.015l-.013-.051c0-.025,0-.047-.032-.055a.06.06,0,0,0,.009.076l0,.081c-.045.028-.086.029-.113-.023a.078.078,0,0,0-.079-.039h0c-.015-.024-.02-.077-.063-.022h0c-.009-.014-.017-.028-.027-.041s-.018-.022-.031-.016-.006.023-.005.035l-.024.024h0a.218.218,0,0,0-.12-.134c-.015-.009-.007-.037-.031-.037-.107,0-.137-.086-.181-.156-.022-.035-.037-.072-.087-.083s-.064-.062-.067-.1a2.357,2.357,0,0,0-.159-.511.241.241,0,0,1,0-.184,1.082,1.082,0,0,0,.053-.392c0-.056.029-.115,0-.173-.01-.018.012-.039.023-.056a5.386,5.386,0,0,1,.345-.415c.077-.018.125-.107.227-.077a.317.317,0,0,0,.214-.051.141.141,0,0,1,.164.013.368.368,0,0,0,.219.066.187.187,0,0,1,.183.1.287.287,0,0,0,.156.159.09.09,0,0,1,.057.072.178.178,0,0,0,.1.128.136.136,0,0,1,.065.1,1.089,1.089,0,0,1,.024.314.953.953,0,0,0,.02.262c0,.017,0,.039.013.05.071.073.037.146.005.22m-1.012.237a.123.123,0,0,1-.024-.016c-.01-.009-.005-.018,0-.026a.138.138,0,0,1,.176-.023c-.042.043-.114.018-.154.066Z" transform="translate(0 -558.05)"/>
    </g>
  </g>
</svg>
