<svg version="1.2" xmlns="http://www.w3.org/2000/svg" viewBox="0 0 92 109" width="92" height="109"><defs><clipPath clipPathUnits="userSpaceOnUse" id="cp1"><path d="m-178 0h415v108.06h-415z"/></clipPath></defs><style>.a{fill:#fff}</style><g clip-path="url(#cp1)"><path class="a" d="m68.7 2.6q-0.3-0.2-0.6-0.4-0.5-0.5-1.2-0.8-0.6-0.4-1.2-0.7-0.7-0.2-1.4-0.4-0.7-0.2-1.4-0.2 0 0 0 0c-3.4-0.4-7.5 0.6-12 3.4q-0.8 0.5-1.6 1-0.8 0.5-1.6 1.1-0.7 0.6-1.5 1.1-0.8 0.6-1.5 1.2l-0.1 0.1c-9.8 7.9-17.5 17.9-24.2 28.3-0.1 0.2 0.6 0.6 1.2 0.2 1.2-1.9 2.1-3.3 3.3-5.1 7.5-10 23.9-30.1 34.9-29 3.2 1 5.8 4.6 5.1 14.1-1.1 13-6.1 29.2-6.1 29.4l-6.6 21.4h34q0.7 0 1.5-0.2 0.7-0.3 1.3-0.7 0.6-0.5 1.1-1.1 0.4-0.6 0.6-1.3l1.2-4h-30.1c0 0 19.6-45.6 6.9-57.4z"/><path class="a" d="m52 72.6c-2 3-3.4 4.8-5.6 7.7 0 0-15.2 18.8-27 24.2-15.5 5.1-11.6-17.9-7.8-32.3 0.9-3 1.5-4.9 1.5-4.9l1.8-6.1h17.3l5.9 6.1h9.9l-8.4-7.9h3.5q1.3 0 2.6-0.4 1.3-0.5 2.4-1.3 1.1-0.8 1.9-1.9 0.8-1.1 1.1-2.4l4-13.1h-34.9q-1.2 0-2.4 0.4-1.1 0.3-2.1 0.9-1 0.7-1.8 1.6-0.8 0.9-1.3 2-0.1 0.1-0.2 0.3 0 0.1-0.1 0.2 0 0.2-0.1 0.3 0 0.2-0.1 0.3-0.2 0.6-0.5 1.4h33.9l-2.1 6.1h-34c-5.4 15.6-14.6 47.2-3 52.8 4.9 3.1 12.6 1.2 20.8-5.1q3.9-3 7.4-6.3 3.6-3.4 6.9-7 3.3-3.6 6.2-7.5 2.9-3.9 5.5-8.1c-0.1-0.4-1.1-0.2-1.2 0z"/><path class="a" d="m13 104.8c0 0 4.6 1.4 10.4-2.6 0 0 0.2 0.9 0.2 0.9l-2.8 1.6-5.2 1.6-3.6-0.7z"/><path class="a" d="m11.6 104.1q0.4 0.2 0.9 0.4 0.4 0.2 0.9 0.4 0.5 0.1 0.9 0.1 0.5 0.1 1 0.1l-0.7 0.6-1.8-0.2-1.2-0.8z"/><path class="a" d="m4.2 105.1q0.8 0.7 1.6 1.2 0.8 0.6 1.8 1 0.9 0.4 1.9 0.6 1 0.2 2 0.2c0 0-4.7-3.4-4.7-3.4z"/></g></svg>