<svg id="Grupo_75" data-name="Grupo 75" xmlns="http://www.w3.org/2000/svg" xmlns:xlink="http://www.w3.org/1999/xlink" width="40.369" height="10.511" viewBox="0 0 40.369 10.511">
  <defs>
    <clipPath id="clip-path">
      <rect id="Rectángulo_29" data-name="Rectángulo 29" width="40.369" height="10.511"/>
    </clipPath>
  </defs>
  <style>.a{fill:#000}</style>
  <g id="Grupo_12" data-name="Grupo 12" transform="translate(0 0)" clip-path="url(#clip-path)">
    <path class="a" id="Trazado_143" data-name="Trazado 143" d="M50.3,42.086a.818.818,0,0,0-.784.584l-.625,2.044h.374a.457.457,0,0,0,.441-.328l.082-.267h2.572l-.179.594h.374A.456.456,0,0,0,53,44.387l.707-2.3Zm2.28,1.317H50.011l.133-.436a.231.231,0,0,1,.22-.164h2.4Z" transform="translate(-44.338 -38.165)"/>
    <path class="a" id="Trazado_144" data-name="Trazado 144" d="M100.488,42.8h2.777a.452.452,0,0,0,.441-.323l.123-.394h-3.4a.822.822,0,0,0-.784.584l-.446,1.45a.462.462,0,0,0,.441.594h3.044a.457.457,0,0,0,.441-.328l.123-.389h-3.29l.313-1.03a.231.231,0,0,1,.22-.164" transform="translate(-89.937 -38.166)"/>
    <path class="a" id="Trazado_145" data-name="Trazado 145" d="M147.275,44l.111-.334h2.563c.2,0,.384-.035.441-.23l.051-.225h-2.965l.075-.25a.217.217,0,0,1,.208-.154h2.483a.452.452,0,0,0,.441-.323l.123-.395h-3.2a.615.615,0,0,0-.584.436l-.671,2.193h3.3a.456.456,0,0,0,.441-.328l.123-.389Z" transform="translate(-132.717 -38.165)"/>
    <path class="a" id="Trazado_146" data-name="Trazado 146" d="M289.746,42.086h-2.777a.813.813,0,0,0-.784.584l-.446,1.45a.46.46,0,0,0,.441.594h2.777a.815.815,0,0,0,.784-.579l.446-1.45a.464.464,0,0,0-.441-.6m-.343.82-.287.927a.231.231,0,0,1-.22.164h-2.3a.078.078,0,0,1-.077-.1l.287-.933a.231.231,0,0,1,.22-.164h2.3a.081.081,0,0,1,.077.1" transform="translate(-259.098 -38.165)"/>
    <path class="a" id="Trazado_147" data-name="Trazado 147" d="M338.31,42.086h-2.777a.813.813,0,0,0-.784.584l-.446,1.45a.46.46,0,0,0,.441.594h2.777a.815.815,0,0,0,.784-.579l.446-1.45a.464.464,0,0,0-.441-.6m-.343.82-.287.927a.231.231,0,0,1-.22.164h-2.3a.078.078,0,0,1-.077-.1l.287-.933a.231.231,0,0,1,.22-.164h2.3a.081.081,0,0,1,.077.1" transform="translate(-303.137 -38.165)"/>
    <path class="a" id="Trazado_148" data-name="Trazado 148" d="M211.789.258h0c-.017-.016-.035-.031-.053-.046a.962.962,0,0,0-.5-.2h-.009a1.91,1.91,0,0,0-1.159.329,6.6,6.6,0,0,0-.608.435l-.007,0,0,0a11.246,11.246,0,0,0-2.358,2.757c-.008.012.057.055.117.014.118-.18.206-.319.329-.5.724-.969,2.323-2.922,3.39-2.817.311.094.563.442.5,1.37a16.811,16.811,0,0,1-.6,2.856l-.642,2.09h3.31a.466.466,0,0,0,.441-.328l.118-.389H211.12s1.91-4.436.67-5.575" transform="translate(-187.794 0)"/>
    <path class="a" id="Trazado_149" data-name="Trazado 149" d="M1.409,42.087a.822.822,0,0,0-.784.584L.584,42.8H3.874l-.2.6H.4L0,44.716H.717L.9,44.121H2.578l.579.594h.963l-.82-.774h.338a.813.813,0,0,0,.784-.584l.389-1.271Z" transform="translate(0 -38.166)"/>
    <path class="a" id="Trazado_150" data-name="Trazado 150" d="M191.646,45.227c-.193.294-.329.467-.54.75v0a10.229,10.229,0,0,1-2.631,2.353c-1.5.5-1.121-1.738-.751-3.144.079-.285.138-.469.138-.469l.182-.594h1.679l.579.594h.963l-.82-.774h.338a.813.813,0,0,0,.784-.584l.389-1.271h-3.4a.82.82,0,0,0-.74.473h0v0a.842.842,0,0,0-.043.109h0l-.051.133h3.3l-.2.6H187.5c-.523,1.513-1.422,4.59-.29,5.138h0c.48.293,1.23.115,2.025-.5a10.826,10.826,0,0,0,2.531-2.806c-.009-.044-.113-.02-.122,0" transform="translate(-169.275 -38.166)"/>
    <path class="a" id="Trazado_151" data-name="Trazado 151" d="M383.105,42.087a.813.813,0,0,0-.784.584l-.041.133h3.289l-.182.6H382.1l-.4,1.314h.717l.182-.6h2.7c.6,0,.709-.313.82-.763l.384-1.271Z" transform="translate(-346.133 -38.166)"/>
    <path class="a" id="Trazado_152" data-name="Trazado 152" d="M198.432,106.993a1.264,1.264,0,0,0,1.012-.252s.015.087.015.087l-.272.156-.506.153-.35-.072Z" transform="translate(-179.851 -96.796)"/>
    <path class="a" id="Trazado_153" data-name="Trazado 153" d="M197.971,108.657a.584.584,0,0,0,.36.1l-.068.06-.175-.018-.117-.077Z" transform="translate(-179.526 -98.533)"/>
    <path class="a" id="Trazado_154" data-name="Trazado 154" d="M190.265,109.3a1,1,0,0,0,.708.289s-.462-.331-.462-.331Z" transform="translate(-172.538 -99.078)"/>
  </g>
</svg>
