<svg id="Grupo_155" data-name="Grupo 155" xmlns="http://www.w3.org/2000/svg" xmlns:xlink="http://www.w3.org/1999/xlink" width="13.027" height="13.027" viewBox="0 0 13.027 13.027">
  <defs>
    <clipPath id="clip-path">
      <rect id="Rectángulo_174" data-name="Rectángulo 174" width="13.027" height="13.027" fill="none"/>
    </clipPath>
  </defs>
  <g id="Grupo_129" data-name="Grupo 129" transform="translate(0 0)" clip-path="url(#clip-path)">
    <path id="Trazado_1873" data-name="Trazado 1873" d="M10.509,0H2.517A2.52,2.52,0,0,0,0,2.517V10.51a2.52,2.52,0,0,0,2.517,2.517h7.992a2.521,2.521,0,0,0,2.518-2.517V2.517A2.52,2.52,0,0,0,10.509,0m.723,1.5.287,0V3.708l-2.2.007L9.311,1.508ZM4.654,5.177a2.286,2.286,0,0,1,3.718,0A2.329,2.329,0,0,1,8.51,5.4a2.269,2.269,0,0,1,.3,1.118,2.293,2.293,0,0,1-4.586,0,2.27,2.27,0,0,1,.3-1.118,2.431,2.431,0,0,1,.138-.218m7.1,5.333a1.25,1.25,0,0,1-1.249,1.248H2.517A1.249,1.249,0,0,1,1.269,10.51V5.177H3.213a3.611,3.611,0,0,0-.262,1.337,3.562,3.562,0,1,0,7.124,0,3.512,3.512,0,0,0-.137-.969,3.581,3.581,0,0,0-.126-.367h1.945V10.51Z" transform="translate(0 0)" fill="#fff"/>
  </g>
</svg>
