<svg id="Grupo_156" data-name="Grupo 156" xmlns="http://www.w3.org/2000/svg" xmlns:xlink="http://www.w3.org/1999/xlink" width="13.028" height="10.422" viewBox="0 0 13.028 10.422">
  <defs>
    <clipPath id="clip-path">
      <rect id="Rectángulo_175" data-name="Rectángulo 175" width="13.028" height="10.422" fill="none"/>
    </clipPath>
  </defs>
  <g id="Grupo_131" data-name="Grupo 131" transform="translate(0 0)" clip-path="url(#clip-path)">
    <path id="Trazado_1874" data-name="Trazado 1874" d="M13.028,1.234a5.393,5.393,0,0,1-1.535.414A2.647,2.647,0,0,0,12.669.192a5.4,5.4,0,0,1-1.7.639A2.686,2.686,0,0,0,9.021,0a2.635,2.635,0,0,0-2.6,3.23A7.628,7.628,0,0,1,.908.481,2.592,2.592,0,0,0,.546,1.8a2.622,2.622,0,0,0,1.189,2.19A2.7,2.7,0,0,1,.524,3.665V3.7a2.581,2.581,0,0,0,.183.954A2.669,2.669,0,0,0,2.669,6.279a2.756,2.756,0,0,1-.7.092,2.662,2.662,0,0,1-.5-.048,2.671,2.671,0,0,0,2.5,1.827A5.413,5.413,0,0,1,.638,9.276,5.528,5.528,0,0,1,0,9.24a7.66,7.66,0,0,0,4.1,1.182,7.44,7.44,0,0,0,7.423-5.9A7.222,7.222,0,0,0,11.7,2.936c0-.113,0-.228-.007-.34a5.373,5.373,0,0,0,1.333-1.362" transform="translate(0 0)" fill="#fff"/>
  </g>
</svg>
