<svg id="Grupo_157" data-name="Grupo 157" xmlns="http://www.w3.org/2000/svg" xmlns:xlink="http://www.w3.org/1999/xlink" width="13.027" height="9.553" viewBox="0 0 13.027 9.553">
  <defs>
    <clipPath id="clip-path">
      <rect id="Rectángulo_176" data-name="Rectángulo 176" width="13.027" height="9.553" fill="none"/>
    </clipPath>
  </defs>
  <g id="Grupo_133" data-name="Grupo 133" transform="translate(0 0)" clip-path="url(#clip-path)">
    <path id="Trazado_1875" data-name="Trazado 1875" d="M12.9,2.061A3.017,3.017,0,0,0,12.379.712a1.826,1.826,0,0,0-1.3-.575C9.25,0,6.517,0,6.517,0H6.511S3.775,0,1.953.137A1.82,1.82,0,0,0,.648.712,3.026,3.026,0,0,0,.131,2.061,21.344,21.344,0,0,0,0,4.259v1.03a21.365,21.365,0,0,0,.131,2.2A3.021,3.021,0,0,0,.648,8.836a2.155,2.155,0,0,0,1.437.58c1.042.1,4.429.137,4.429.137s2.737,0,4.561-.142a1.821,1.821,0,0,0,1.3-.576A3.015,3.015,0,0,0,12.9,7.488a21.3,21.3,0,0,0,.131-2.2V4.259a21.294,21.294,0,0,0-.131-2.2M8.687,4.637l-3.518,1.9V2.722l1.587.864Z" transform="translate(0 0)" fill="#fff"/>
  </g>
</svg>
